PowerhouseFilarOcto-Regular.ufo
<glyph name="exclam" format="2">
  <advance width="300"/>
  <unicode hex="0021"/>
  <outline>
    <contour>
      <point x="201" y="700" type="line"/>
      <point x="98" y="700" type="line"/>
      <point x="121" y="227" type="line"/>
      <point x="178" y="227" type="line"/>
    </contour>
    <component base="period" identifier="652786C2"/>
  </outline>
</glyph>
<glyph name="quotedbl" format="2">
  <advance width="500"/>
  <unicode hex="0022"/>
  <outline>
    <contour>
      <point x="106" y="700" type="line"/>
      <point x="127" y="412" type="line"/>
      <point x="194" y="412" type="line"/>
      <point x="215" y="700" type="line"/>
    </contour>
    <contour>
      <point x="286" y="700" type="line"/>
      <point x="307" y="412" type="line"/>
      <point x="374" y="412" type="line"/>
      <point x="395" y="700" type="line"/>
    </contour>
  </outline>
</glyph>
<glyph name="percent" format="2">
  <advance width="760"/>
  <unicode hex="0025"/>
  <outline>
    <contour>
      <point x="170" y="0" type="line"/>
      <point x="679" y="700" type="line"/>
      <point x="592" y="700" type="line"/>
      <point x="83" y="0" type="line"/>
    </contour>
    <contour>
      <point x="43" y="526" type="curve" smooth="yes"/>
      <point x="43" y="418"/>
      <point x="105" y="347"/>
      <point x="188" y="347" type="curve" smooth="yes"/>
      <point x="271" y="347"/>
      <point x="333" y="418"/>
      <point x="333" y="526" type="curve" smooth="yes"/>
      <point x="333" y="634"/>
      <point x="271" y="705"/>
      <point x="188" y="705" type="curve" smooth="yes"/>
      <point x="105" y="705"/>
      <point x="43" y="634"/>
    </contour>
    <contour>
      <point x="117" y="526" type="curve" smooth="yes"/>
      <point x="117" y="596"/>
      <point x="144" y="639"/>
      <point x="188" y="639" type="curve" smooth="yes"/>
      <point x="232" y="639"/>
      <point x="259" y="596"/>
      <point x="259" y="526" type="curve" smooth="yes"/>
      <point x="259" y="456"/>
      <point x="232" y="413"/>
      <point x="188" y="413" type="curve" smooth="yes"/>
      <point x="144" y="413"/>
      <point x="117" y="456"/>
    </contour>
    <contour>
      <point x="428" y="174" type="curve" smooth="yes"/>
      <point x="428" y="66"/>
      <point x="490" y="-5"/>
      <point x="573" y="-5" type="curve" smooth="yes"/>
      <point x="656" y="-5"/>
      <point x="718" y="66"/>
      <point x="718" y="174" type="curve" smooth="yes"/>
      <point x="718" y="282"/>
      <point x="656" y="353"/>
      <point x="573" y="353" type="curve" smooth="yes"/>
      <point x="490" y="353"/>
      <point x="428" y="282"/>
    </contour>
    <contour>
      <point x="502" y="174" type="curve" smooth="yes"/>
      <point x="502" y="244"/>
      <point x="529" y="287"/>
      <point x="573" y="287" type="curve" smooth="yes"/>
      <point x="617" y="287"/>
      <point x="644" y="244"/>
      <point x="644" y="174" type="curve" smooth="yes"/>
      <point x="644" y="104"/>
      <point x="617" y="61"/>
      <point x="573" y="61" type="curve" smooth="yes"/>
      <point x="529" y="61"/>
      <point x="502" y="104"/>
    </contour>
  </outline>
</glyph>
<glyph name="ampersand" format="2">
  <advance width="680"/>
  <unicode hex="0026"/>
  <outline>
    <contour>
      <point x="281" y="349" type="curve"/>
      <point x="242" y="407" type="line"/>
      <point x="113" y="358"/>
      <point x="46" y="293"/>
      <point x="46" y="189" type="curve" smooth="yes"/>
      <point x="46" y="70"/>
      <point x="132" y="-12"/>
      <point x="273" y="-12" type="curve" smooth="yes"/>
      <point x="458" y="-12"/>
      <point x="585" y="137"/>
      <point x="620" y="349" type="curve"/>
      <point x="541" y="360" type="line"/>
      <point x="506" y="170"/>
      <point x="407" y="66"/>
      <point x="280" y="66" type="curve" smooth="yes"/>
      <point x="196" y="66"/>
      <point x="138" y="109"/>
      <point x="138" y="191" type="curve" smooth="yes"/>
      <point x="138" y="261"/>
      <point x="180" y="313"/>
    </contour>
    <contour>
      <point x="660" y="0" type="line"/>
      <point x="270" y="425" type="line" smooth="yes"/>
      <point x="239" y="458"/>
      <point x="216" y="495"/>
      <point x="216" y="540" type="curve" smooth="yes"/>
      <point x="216" y="599"/>
      <point x="251" y="638"/>
      <point x="310" y="638" type="curve" smooth="yes"/>
      <point x="361" y="638"/>
      <point x="399" y="605"/>
      <point x="399" y="548" type="curve" smooth="yes"/>
      <point x="399" y="487"/>
      <point x="359" y="453"/>
      <point x="256" y="407" type="curve"/>
      <point x="294" y="352" type="line"/>
      <point x="413" y="402"/>
      <point x="480" y="462"/>
      <point x="480" y="551" type="curve" smooth="yes"/>
      <point x="480" y="636"/>
      <point x="418" y="712"/>
      <point x="309" y="712" type="curve" smooth="yes"/>
      <point x="197" y="712"/>
      <point x="130" y="631"/>
      <point x="130" y="539" type="curve" smooth="yes"/>
      <point x="130" y="469"/>
      <point x="172" y="408"/>
      <point x="202" y="375" type="curve" smooth="yes"/>
      <point x="548" y="0" type="line"/>
    </contour>
  </outline>
</glyph>
<glyph name="quotesingle" format="2">
  <advance width="300"/>
  <unicode hex="0027"/>
  <outline>
    <contour>
      <point x="96" y="700" type="line"/>
      <point x="117" y="412" type="line"/>
      <point x="184" y="412" type="line"/>
      <point x="205" y="700" type="line"/>
    </contour>
  </outline>
</glyph>
<glyph name="parenleft" format="2">
  <advance width="600"/>
  <unicode hex="0028"/>
  <outline>
    <contour>
      <point x="253" y="316" type="curve" smooth="yes"/>
      <point x="252" y="472"/>
      <point x="330" y="620"/>
      <point x="486" y="745" type="curve"/>
      <point x="382" y="745" type="line"/>
      <point x="236" y="630"/>
      <point x="158" y="472"/>
      <point x="158" y="316" type="curve" smooth="yes"/>
      <point x="158" y="160"/>
      <point x="236" y="2"/>
      <point x="382" y="-113" type="curve"/>
      <point x="486" y="-113" type="line"/>
      <point x="330" y="12"/>
      <point x="252" y="160"/>
    </contour>
  </outline>
</glyph>
<glyph name="asterisk" format="2">
  <advance width="450"/>
  <unicode hex="002A"/>
  <outline>
    <contour>
      <point x="79" y="368" type="line"/>
      <point x="135" y="326" type="line"/>
      <point x="225" y="450" type="line"/>
      <point x="315" y="326" type="line"/>
      <point x="371" y="368" type="line"/>
      <point x="280" y="494" type="line"/>
      <point x="415" y="538" type="line"/>
      <point x="394" y="604" type="line"/>
      <point x="260" y="561" type="line"/>
      <point x="260" y="700" type="line"/>
      <point x="190" y="700" type="line"/>
      <point x="190" y="561" type="line"/>
      <point x="56" y="604" type="line"/>
      <point x="35" y="538" type="line"/>
      <point x="170" y="494" type="line"/>
    </contour>
  </outline>
</glyph>
<glyph name="comma" format="2">
  <advance width="300"/>
  <unicode hex="002C"/>
  <outline>
    <contour>
      <point x="96" y="128" type="line"/>
      <point x="96" y="0" type="line"/>
      <point x="149" y="0" type="line"/>
      <point x="149" y="-14" type="line" smooth="yes"/>
      <point x="149" y="-63"/>
      <point x="122" y="-91"/>
      <point x="77" y="-91" type="curve"/>
      <point x="77" y="-140" type="line"/>
      <point x="177" y="-140"/>
      <point x="204" y="-65"/>
      <point x="204" y="-14" type="curve" smooth="yes"/>
      <point x="204" y="128" type="line"/>
    </contour>
  </outline>
</glyph>
<glyph name="zero" format="2">
  <advance width="600"/>
  <unicode hex="0030"/>
  <outline>
    <contour>
      <point x="300" y="712" type="curve" smooth="yes"/>
      <point x="148" y="712"/>
      <point x="51" y="571"/>
      <point x="51" y="350" type="curve" smooth="yes"/>
      <point x="51" y="128"/>
      <point x="148" y="-12"/>
      <point x="300" y="-12" type="curve" smooth="yes"/>
      <point x="451" y="-12"/>
      <point x="549" y="128"/>
      <point x="549" y="350" type="curve" smooth="yes"/>
      <point x="549" y="571"/>
      <point x="451" y="712"/>
    </contour>
    <contour>
      <point x="300" y="64" type="curve" smooth="yes"/>
      <point x="196" y="64"/>
      <point x="142" y="172"/>
      <point x="142" y="350" type="curve" smooth="yes"/>
      <point x="142" y="528"/>
      <point x="196" y="636"/>
      <point x="300" y="636" type="curve" smooth="yes"/>
      <point x="404" y="636"/>
      <point x="458" y="528"/>
      <point x="458" y="350" type="curve" smooth="yes"/>
      <point x="458" y="172"/>
      <point x="404" y="64"/>
    </contour>
  </outline>
</glyph>
<glyph name="one" format="2">
  <advance width="450"/>
  <unicode hex="0031"/>
  <outline>
    <contour>
      <point x="217" y="700" type="line"/>
      <point x="217" y="588"/>
      <point x="177" y="555"/>
      <point x="43" y="555" type="curve"/>
      <point x="43" y="490" type="line"/>
      <point x="263" y="490" type="line"/>
      <point x="206" y="540" type="line"/>
      <point x="206" y="0" type="line"/>
      <point x="296" y="0" type="line"/>
      <point x="296" y="700" type="line"/>
    </contour>
    <contour>
      <point x="206" y="0" type="line"/>
      <point x="296" y="0" type="line"/>
      <point x="296" y="75" type="line"/>
      <point x="206" y="75" type="line"/>
    </contour>
  </outline>
</glyph>
<glyph name="question" format="2">
  <advance width="500"/>
  <unicode hex="003F"/>
  <outline>
    <contour>
      <point x="197" y="227" type="line"/>
      <point x="278" y="227" type="line"/>
      <point x="278" y="238" type="line" smooth="yes"/>
      <point x="278" y="282"/>
      <point x="299" y="314"/>
      <point x="345" y="350" type="curve" smooth="yes"/>
      <point x="395" y="390"/>
      <point x="461" y="434"/>
      <point x="461" y="531" type="curve" smooth="yes"/>
      <point x="461" y="641"/>
      <point x="376" y="712"/>
      <point x="250" y="712" type="curve" smooth="yes"/>
      <point x="127" y="712"/>
      <point x="46" y="648"/>
      <point x="27" y="540" type="curve"/>
      <point x="115" y="517" type="line"/>
      <point x="127" y="588"/>
      <point x="167" y="634"/>
      <point x="246" y="634" type="curve" smooth="yes"/>
      <point x="322" y="634"/>
      <point x="370" y="594"/>
      <point x="370" y="531" type="curve" smooth="yes"/>
      <point x="370" y="481"/>
      <point x="338" y="449"/>
      <point x="288" y="407" type="curve" smooth="yes"/>
      <point x="223" y="352"/>
      <point x="197" y="320"/>
      <point x="197" y="245" type="curve" smooth="yes"/>
    </contour>
    <contour>
      <point x="185" y="124" type="line"/>
      <point x="185" y="0" type="line"/>
      <point x="290" y="0" type="line"/>
      <point x="290" y="124" type="line"/>
    </contour>
  </outline>
</glyph>
<glyph name="E" format="2">
  <advance width="600"/>
  <unicode hex="0045"/>
  <outline>
    <contour>
      <point x="87" y="700" type="line"/>
      <point x="87" y="0" type="line"/>
      <point x="178" y="0" type="line"/>
      <point x="178" y="700" type="line"/>
    </contour>
    <contour>
      <point x="122" y="618" type="line"/>
      <point x="543" y="618" type="line"/>
      <point x="543" y="700" type="line"/>
      <point x="122" y="700" type="line"/>
    </contour>
    <contour>
      <point x="132" y="315" type="line"/>
      <point x="405" y="315" type="line"/>
      <point x="405" y="396" type="line"/>
      <point x="132" y="396" type="line"/>
    </contour>
    <contour>
      <point x="126" y="0" type="line"/>
      <point x="561" y="0" type="line"/>
      <point x="561" y="82" type="line"/>
      <point x="126" y="82" type="line"/>
    </contour>
  </outline>
</glyph>
<glyph name="F" format="2">
  <advance width="600"/>
  <unicode hex="0046"/>
  <outline>
    <contour>
      <point x="82" y="700" type="line"/>
      <point x="82" y="0" type="line"/>
      <point x="173" y="0" type="line"/>
      <point x="173" y="700" type="line"/>
    </contour>
    <contour>
      <point x="117" y="618" type="line"/>
      <point x="563" y="618" type="line"/>
      <point x="563" y="700" type="line"/>
      <point x="117" y="700" type="line"/>
    </contour>
    <contour>
      <point x="127" y="318" type="line"/>
      <point x="489" y="318" type="line"/>
      <point x="489" y="400" type="line"/>
      <point x="127" y="400" type="line"/>
    </contour>
  </outline>
</glyph>
<glyph name="I" format="2">
  <advance width="300"/>
  <unicode hex="0049"/>
  <outline>
    <contour>
      <point x="105" y="86" type="line"/>
      <point x="105" y="0" type="line"/>
      <point x="196" y="0" type="line"/>
      <point x="196" y="86" type="line"/>
    </contour>
    <contour>
      <point x="105" y="700" type="line"/>
      <point x="105" y="614" type="line"/>
      <point x="196" y="614" type="line"/>
      <point x="196" y="700" type="line"/>
    </contour>
    <contour>
      <point x="105" y="700" type="line"/>
      <point x="105" y="0" type="line"/>
      <point x="196" y="0" type="line"/>
      <point x="196" y="700" type="line"/>
    </contour>
  </outline>
</glyph>
<glyph name="K" format="2">
  <advance width="680"/>
  <unicode hex="004B"/>
  <outline>
    <contour>
      <point x="148" y="293" type="line"/>
      <point x="148" y="183" type="line"/>
      <point x="291" y="336" type="line"/>
      <point x="316" y="360" type="line"/>
      <point x="635" y="700" type="line"/>
      <point x="522" y="700" type="line"/>
    </contour>
    <contour>
      <point x="97" y="700" type="line"/>
      <point x="97" y="0" type="line"/>
      <point x="188" y="0" type="line"/>
      <point x="188" y="700" type="line"/>
    </contour>
    <contour>
      <point x="235" y="355" type="line"/>
      <point x="558" y="0" type="line"/>
      <point x="674" y="0" type="line"/>
      <point x="294" y="416" type="line"/>
    </contour>
  </outline>
</glyph>
<glyph name="L" format="2">
  <advance width="600"/>
  <unicode hex="004C"/>
  <outline>
    <contour>
      <point x="132" y="82" type="line"/>
      <point x="132" y="0" type="line"/>
      <point x="561" y="0" type="line"/>
      <point x="561" y="82" type="line"/>
    </contour>
    <contour>
      <point x="97" y="700" type="line"/>
      <point x="97" y="0" type="line"/>
      <point x="188" y="0" type="line"/>
      <point x="188" y="700" type="line"/>
    </contour>
  </outline>
</glyph>
<glyph name="M" format="2">
  <advance width="880"/>
  <unicode hex="004D"/>
  <outline>
    <contour>
      <point x="178" y="613" type="line"/>
      <point x="421" y="0" type="line"/>
      <point x="458" y="0" type="line"/>
      <point x="700" y="612" type="line"/>
      <point x="691" y="612" type="line"/>
      <point x="691" y="0" type="line"/>
      <point x="780" y="0" type="line"/>
      <point x="780" y="700" type="line"/>
      <point x="652" y="700" type="line"/>
      <point x="422" y="117" type="line"/>
      <point x="458" y="117" type="line"/>
      <point x="230" y="700" type="line"/>
      <point x="100" y="700" type="line"/>
      <point x="100" y="0" type="line"/>
      <point x="188" y="0" type="line"/>
      <point x="188" y="613" type="line"/>
    </contour>
  </outline>
</glyph>
<glyph name="O" format="2">
  <advance width="760"/>
  <unicode hex="004F"/>
  <outline>
    <contour>
      <point x="380" y="712" type="curve" smooth="yes"/>
      <point x="198" y="712"/>
      <point x="56" y="564"/>
      <point x="56" y="350" type="curve" smooth="yes"/>
      <point x="56" y="136"/>
      <point x="198" y="-12"/>
      <point x="380" y="-12" type="curve" smooth="yes"/>
      <point x="562" y="-12"/>
      <point x="704" y="136"/>
      <point x="704" y="350" type="curve" smooth="yes"/>
      <point x="704" y="564"/>
      <point x="562" y="712"/>
    </contour>
    <contour>
      <point x="380" y="69" type="curve" smooth="yes"/>
      <point x="246" y="69"/>
      <point x="149" y="181"/>
      <point x="149" y="350" type="curve" smooth="yes"/>
      <point x="149" y="519"/>
      <point x="246" y="631"/>
      <point x="380" y="631" type="curve" smooth="yes"/>
      <point x="514" y="631"/>
      <point x="611" y="519"/>
      <point x="611" y="350" type="curve" smooth="yes"/>
      <point x="611" y="181"/>
      <point x="514" y="69"/>
    </contour>
  </outline>
</glyph>
<glyph name="Q" format="2">
  <advance width="760"/>
  <unicode hex="0051"/>
  <outline>
    <contour>
      <point x="342" y="-40" type="line" smooth="yes"/>
      <point x="342" y="-133"/>
      <point x="411" y="-181"/>
      <point x="507" y="-181" type="curve" smooth="yes"/>
      <point x="523" y="-181"/>
      <point x="561" y="-180"/>
      <point x="597" y="-175" type="curve"/>
      <point x="597" y="-99" type="line"/>
      <point x="563" y="-103"/>
      <point x="542" y="-103"/>
      <point x="520" y="-103" type="curve" smooth="yes"/>
      <point x="456" y="-103"/>
      <point x="437" y="-75"/>
      <point x="437" y="-25" type="curve" smooth="yes"/>
      <point x="437" y="27" type="line"/>
      <point x="342" y="27" type="line"/>
    </contour>
    <contour>
      <point x="611" y="350" type="curve" smooth="yes"/>
      <point x="611" y="181"/>
      <point x="514" y="69"/>
      <point x="380" y="69" type="curve" smooth="yes"/>
      <point x="246" y="69"/>
      <point x="149" y="181"/>
      <point x="149" y="350" type="curve" smooth="yes"/>
      <point x="149" y="519"/>
      <point x="246" y="631"/>
      <point x="380" y="631" type="curve" smooth="yes"/>
      <point x="514" y="631"/>
      <point x="611" y="519"/>
    </contour>
    <contour>
      <point x="56" y="350" type="curve" smooth="yes"/>
      <point x="56" y="136"/>
      <point x="198" y="-12"/>
      <point x="380" y="-12" type="curve" smooth="yes"/>
      <point x="562" y="-12"/>
      <point x="704" y="136"/>
      <point x="704" y="350" type="curve" smooth="yes"/>
      <point x="704" y="564"/>
      <point x="562" y="712"/>
      <point x="380" y="712" type="curve" smooth="yes"/>
      <point x="198" y="712"/>
      <point x="56" y="564"/>
    </contour>
  </outline>
</glyph>
<glyph name="R" format="2">
  <advance width="680"/>
  <unicode hex="0052"/>
  <outline>
    <contour>
      <point x="97" y="700" type="line"/>
      <point x="97" y="0" type="line"/>
      <point x="188" y="0" type="line"/>
      <point x="188" y="700" type="line"/>
    </contour>
    <contour>
      <point x="406" y="373" type="curve" smooth="yes"/>
      <point x="140" y="373" type="line"/>
      <point x="140" y="293" type="line"/>
      <point x="406" y="293" type="line" smooth="yes"/>
      <point x="541" y="293"/>
      <point x="625" y="377"/>
      <point x="625" y="496" type="curve" smooth="yes"/>
      <point x="625" y="614"/>
      <point x="539" y="700"/>
      <point x="409" y="700" type="curve" smooth="yes"/>
      <point x="145" y="700" type="line"/>
      <point x="145" y="618" type="line"/>
      <point x="406" y="618" type="line" smooth="yes"/>
      <point x="483" y="618"/>
      <point x="532" y="577"/>
      <point x="532" y="495" type="curve" smooth="yes"/>
      <point x="532" y="415"/>
      <point x="483" y="373"/>
    </contour>
    <contour>
      <point x="323" y="324" type="line"/>
      <point x="380" y="230"/>
      <point x="484" y="79"/>
      <point x="554" y="0" type="curve"/>
      <point x="660" y="0" type="line"/>
      <point x="656" y="7" type="line"/>
      <point x="588" y="82"/>
      <point x="482" y="231"/>
      <point x="424" y="324" type="curve"/>
    </contour>
  </outline>
</glyph>
<glyph name="W" format="2">
  <advance width="880"/>
  <unicode hex="0057"/>
  <outline>
    <contour>
      <point x="680" y="0" type="line"/>
      <point x="846" y="700" type="line"/>
      <point x="753" y="700" type="line"/>
      <point x="606" y="36" type="line"/>
      <point x="657" y="36" type="line"/>
      <point x="492" y="700" type="line"/>
      <point x="389" y="700" type="line"/>
      <point x="226" y="36" type="line"/>
      <point x="278" y="36" type="line"/>
      <point x="127" y="700" type="line"/>
      <point x="34" y="700" type="line"/>
      <point x="201" y="0" type="line"/>
      <point x="297" y="0" type="line"/>
      <point x="456" y="647" type="line"/>
      <point x="424" y="647" type="line"/>
      <point x="584" y="0" type="line"/>
    </contour>
  </outline>
</glyph>
<glyph name="underscore" format="2">
  <advance width="450"/>
  <unicode hex="005F"/>
  <outline>
    <contour>
      <point x="10" y="-140" type="line"/>
      <point x="440" y="-140" type="line"/>
      <point x="440" y="-70" type="line"/>
      <point x="10" y="-70" type="line"/>
    </contour>
  </outline>
</glyph>
<glyph name="c" format="2">
  <advance width="550"/>
  <unicode hex="0063"/>
  <outline>
    <contour>
      <point x="502" y="346" type="line"/>
      <point x="477" y="445"/>
      <point x="400" y="502"/>
      <point x="297" y="502" type="curve" smooth="yes"/>
      <point x="163" y="502"/>
      <point x="64" y="403"/>
      <point x="64" y="245" type="curve" smooth="yes"/>
      <point x="64" y="87"/>
      <point x="163" y="-12"/>
      <point x="297" y="-12" type="curve" smooth="yes"/>
      <point x="400" y="-12"/>
      <point x="477" y="43"/>
      <point x="502" y="142" type="curve"/>
      <point x="421" y="164" type="line"/>
      <point x="407" y="95"/>
      <point x="364" y="58"/>
      <point x="297" y="58" type="curve" smooth="yes"/>
      <point x="207" y="58"/>
      <point x="153" y="130"/>
      <point x="153" y="245" type="curve" smooth="yes"/>
      <point x="153" y="360"/>
      <point x="207" y="432"/>
      <point x="297" y="432" type="curve" smooth="yes"/>
      <point x="364" y="432"/>
      <point x="408" y="393"/>
      <point x="421" y="324" type="curve"/>
    </contour>
  </outline>
</glyph>
<glyph name="e" format="2">
  <advance width="550"/>
  <unicode hex="0065"/>
  <outline>
    <contour>
      <point x="285" y="-12" type="curve" smooth="yes"/>
      <point x="394" y="-12"/>
      <point x="474" y="48"/>
      <point x="501" y="142" type="curve"/>
      <point x="424" y="164" type="line"/>
      <point x="407" y="100"/>
      <point x="358" y="58"/>
      <point x="285" y="58" type="curve" smooth="yes"/>
      <point x="196" y="58"/>
      <point x="141" y="123"/>
      <point x="141" y="244" type="curve" smooth="yes"/>
      <point x="141" y="359"/>
      <point x="197" y="432"/>
      <point x="285" y="432" type="curve" smooth="yes"/>
      <point x="366" y="432"/>
      <point x="418" y="374"/>
      <point x="418" y="247" type="curve"/>
      <point x="440" y="292" type="line"/>
      <point x="102" y="292" type="line"/>
      <point x="102" y="226" type="line"/>
      <point x="501" y="226" type="line"/>
      <point x="501" y="242" type="line" smooth="yes"/>
      <point x="501" y="393"/>
      <point x="417" y="502"/>
      <point x="285" y="502" type="curve" smooth="yes"/>
      <point x="153" y="502"/>
      <point x="53" y="404"/>
      <point x="53" y="244" type="curve" smooth="yes"/>
      <point x="53" y="85"/>
      <point x="154" y="-12"/>
    </contour>
  </outline>
</glyph>
<glyph name="f" format="2">
  <advance width="450"/>
  <unicode hex="0066"/>
  <outline>
    <contour>
      <point x="29" y="422" type="line"/>
      <point x="417" y="422" type="line"/>
      <point x="417" y="490" type="line"/>
      <point x="29" y="490" type="line"/>
    </contour>
    <contour>
      <point x="351" y="702" type="curve" smooth="yes"/>
      <point x="228" y="702"/>
      <point x="169" y="631"/>
      <point x="169" y="544" type="curve" smooth="yes"/>
      <point x="169" y="0" type="line"/>
      <point x="258" y="0" type="line"/>
      <point x="258" y="542" type="line" smooth="yes"/>
      <point x="258" y="605"/>
      <point x="307" y="629"/>
      <point x="361" y="629" type="curve" smooth="yes"/>
      <point x="380" y="629"/>
      <point x="401" y="627"/>
      <point x="417" y="624" type="curve"/>
      <point x="417" y="694" type="line"/>
      <point x="400" y="700"/>
      <point x="373" y="702"/>
    </contour>
  </outline>
</glyph>
<glyph name="h" format="2">
  <advance width="550"/>
  <unicode hex="0068"/>
  <outline>
    <contour>
      <point x="78" y="700" type="line"/>
      <point x="78" y="0" type="line"/>
      <point x="166" y="0" type="line"/>
      <point x="166" y="309" type="line" smooth="yes"/>
      <point x="166" y="383"/>
      <point x="214" y="431"/>
      <point x="284" y="431" type="curve" smooth="yes"/>
      <point x="352" y="431"/>
      <point x="387" y="383"/>
      <point x="387" y="318" type="curve" smooth="yes"/>
      <point x="387" y="0" type="line"/>
      <point x="475" y="0" type="line"/>
      <point x="475" y="333" type="line" smooth="yes"/>
      <point x="475" y="427"/>
      <point x="412" y="502"/>
      <point x="314" y="502" type="curve" smooth="yes"/>
      <point x="240" y="502"/>
      <point x="177" y="459"/>
      <point x="144" y="394" type="curve"/>
      <point x="166" y="394" type="line"/>
      <point x="166" y="700" type="line"/>
    </contour>
  </outline>
</glyph>
<glyph name="k" format="2">
  <advance width="550"/>
  <unicode hex="006B"/>
  <outline>
    <contour>
      <point x="93" y="0" type="line"/>
      <point x="181" y="0" type="line"/>
      <point x="181" y="700" type="line"/>
      <point x="93" y="700" type="line"/>
    </contour>
    <contour>
      <point x="138" y="236" type="line"/>
      <point x="138" y="144" type="line"/>
      <point x="260" y="258" type="line"/>
      <point x="289" y="275" type="line"/>
      <point x="517" y="490" type="line"/>
      <point x="409" y="490" type="line"/>
    </contour>
    <contour>
      <point x="221" y="266" type="line"/>
      <point x="432" y="0" type="line"/>
      <point x="535" y="0" type="line"/>
      <point x="284" y="316" type="line"/>
    </contour>
  </outline>
</glyph>
<glyph name="l" format="2">
  <advance width="300"/>
  <unicode hex="006C"/>
  <outline>
    <contour>
      <point x="106" y="62" type="line"/>
      <point x="106" y="0" type="line"/>
      <point x="194" y="0" type="line"/>
      <point x="194" y="62" type="line"/>
    </contour>
    <contour>
      <point x="106" y="700" type="line"/>
      <point x="106" y="637" type="line"/>
      <point x="154" y="637" type="line"/>
      <point x="154" y="700" type="line"/>
    </contour>
    <contour>
      <point x="106" y="700" type="line"/>
      <point x="106" y="0" type="line"/>
      <point x="194" y="0" type="line"/>
      <point x="194" y="700" type="line"/>
    </contour>
  </outline>
</glyph>
<glyph name="m" format="2">
  <advance width="880"/>
  <unicode hex="006D"/>
  <outline>
    <contour>
      <point x="450" y="309" type="line"/>
      <point x="485" y="309" type="line"/>
      <point x="485" y="383"/>
      <point x="532" y="431"/>
      <point x="595" y="431" type="curve" smooth="yes"/>
      <point x="657" y="431"/>
      <point x="690" y="383"/>
      <point x="690" y="318" type="curve" smooth="yes"/>
      <point x="690" y="0" type="line"/>
      <point x="778" y="0" type="line"/>
      <point x="778" y="333" type="line" smooth="yes"/>
      <point x="778" y="427"/>
      <point x="717" y="501"/>
      <point x="624" y="501" type="curve" smooth="yes"/>
      <point x="556" y="501"/>
      <point x="489" y="462"/>
      <point x="460" y="394" type="curve"/>
      <point x="450" y="394" type="line"/>
    </contour>
    <contour>
      <point x="104" y="490" type="line"/>
      <point x="104" y="0" type="line"/>
      <point x="192" y="0" type="line"/>
      <point x="192" y="309" type="line" smooth="yes"/>
      <point x="192" y="383"/>
      <point x="239" y="431"/>
      <point x="302" y="431" type="curve" smooth="yes"/>
      <point x="364" y="431"/>
      <point x="397" y="383"/>
      <point x="397" y="318" type="curve" smooth="yes"/>
      <point x="397" y="0" type="line"/>
      <point x="485" y="0" type="line"/>
      <point x="485" y="333" type="line" smooth="yes"/>
      <point x="485" y="427"/>
      <point x="423" y="501"/>
      <point x="331" y="501" type="curve" smooth="yes"/>
      <point x="265" y="501"/>
      <point x="201" y="461"/>
      <point x="170" y="394" type="curve"/>
      <point x="192" y="394" type="line"/>
      <point x="192" y="490" type="line"/>
    </contour>
  </outline>
</glyph>
<glyph name="o" format="2">
  <advance width="550"/>
  <unicode hex="006F"/>
  <outline>
    <contour>
      <point x="275" y="-12" type="curve" smooth="yes"/>
      <point x="406" y="-12"/>
      <point x="507" y="87"/>
      <point x="507" y="245" type="curve" smooth="yes"/>
      <point x="507" y="403"/>
      <point x="406" y="502"/>
      <point x="275" y="502" type="curve" smooth="yes"/>
      <point x="144" y="502"/>
      <point x="43" y="403"/>
      <point x="43" y="245" type="curve" smooth="yes"/>
      <point x="43" y="87"/>
      <point x="144" y="-12"/>
    </contour>
    <contour>
      <point x="275" y="432" type="curve" smooth="yes"/>
      <point x="363" y="432"/>
      <point x="418" y="360"/>
      <point x="418" y="245" type="curve" smooth="yes"/>
      <point x="418" y="130"/>
      <point x="363" y="58"/>
      <point x="275" y="58" type="curve" smooth="yes"/>
      <point x="187" y="58"/>
      <point x="132" y="130"/>
      <point x="132" y="245" type="curve" smooth="yes"/>
      <point x="132" y="360"/>
      <point x="187" y="432"/>
    </contour>
  </outline>
</glyph>
<glyph name="p" format="2">
  <advance width="600"/>
  <unicode hex="0070"/>
  <outline>
    <contour>
      <point x="343" y="502" type="curve" smooth="yes"/>
      <point x="256" y="502"/>
      <point x="187" y="457"/>
      <point x="148" y="371" type="curve"/>
      <point x="177" y="371" type="line"/>
      <point x="177" y="490" type="line"/>
      <point x="89" y="490" type="line"/>
      <point x="89" y="-180" type="line"/>
      <point x="177" y="-180" type="line"/>
      <point x="177" y="117" type="line"/>
      <point x="148" y="117" type="line"/>
      <point x="187" y="32"/>
      <point x="256" y="-12"/>
      <point x="343" y="-12" type="curve" smooth="yes"/>
      <point x="453" y="-12"/>
      <point x="546" y="76"/>
      <point x="546" y="244" type="curve" smooth="yes"/>
      <point x="546" y="411"/>
      <point x="453" y="502"/>
    </contour>
    <contour>
      <point x="314" y="58" type="curve" smooth="yes"/>
      <point x="222" y="58"/>
      <point x="171" y="130"/>
      <point x="171" y="245" type="curve" smooth="yes"/>
      <point x="171" y="360"/>
      <point x="222" y="432"/>
      <point x="314" y="432" type="curve" smooth="yes"/>
      <point x="406" y="432"/>
      <point x="457" y="360"/>
      <point x="457" y="245" type="curve" smooth="yes"/>
      <point x="457" y="130"/>
      <point x="406" y="58"/>
    </contour>
  </outline>
</glyph>
<glyph name="r" format="2">
  <advance width="450"/>
  <unicode hex="0072"/>
  <outline>
    <contour>
      <point x="103" y="490" type="line"/>
      <point x="103" y="0" type="line"/>
      <point x="191" y="0" type="line"/>
      <point x="191" y="241" type="line" smooth="yes"/>
      <point x="191" y="352"/>
      <point x="267" y="413"/>
      <point x="375" y="413" type="curve" smooth="yes"/>
      <point x="390" y="413"/>
      <point x="408" y="412"/>
      <point x="418" y="410" type="curve"/>
      <point x="418" y="498" type="line"/>
      <point x="413" y="499"/>
      <point x="399" y="500"/>
      <point x="385" y="500" type="curve" smooth="yes"/>
      <point x="268" y="500"/>
      <point x="201" y="434"/>
      <point x="174" y="350" type="curve"/>
      <point x="191" y="350" type="line"/>
      <point x="191" y="490" type="line"/>
    </contour>
  </outline>
</glyph>
<glyph name="s" format="2">
  <advance width="500"/>
  <unicode hex="0073"/>
  <outline>
    <contour>
      <point x="42" y="159" type="line"/>
      <point x="48" y="59"/>
      <point x="128" y="-12"/>
      <point x="259" y="-12" type="curve" smooth="yes"/>
      <point x="381" y="-12"/>
      <point x="453" y="48"/>
      <point x="453" y="146" type="curve" smooth="yes"/>
      <point x="453" y="211"/>
      <point x="416" y="261"/>
      <point x="316" y="277" type="curve" smooth="yes"/>
      <point x="237" y="290" type="line" smooth="yes"/>
      <point x="168" y="301"/>
      <point x="140" y="315"/>
      <point x="140" y="359" type="curve" smooth="yes"/>
      <point x="140" y="401"/>
      <point x="180" y="435"/>
      <point x="247" y="435" type="curve" smooth="yes"/>
      <point x="315" y="435"/>
      <point x="355" y="400"/>
      <point x="358" y="353" type="curve"/>
      <point x="444" y="347" type="line"/>
      <point x="442" y="430"/>
      <point x="371" y="502"/>
      <point x="248" y="502" type="curve" smooth="yes"/>
      <point x="138" y="502"/>
      <point x="57" y="447"/>
      <point x="57" y="349" type="curve" smooth="yes"/>
      <point x="57" y="283"/>
      <point x="91" y="234"/>
      <point x="201" y="217" type="curve" smooth="yes"/>
      <point x="280" y="205" type="line" smooth="yes"/>
      <point x="346" y="195"/>
      <point x="367" y="168"/>
      <point x="367" y="133" type="curve" smooth="yes"/>
      <point x="367" y="84"/>
      <point x="334" y="55"/>
      <point x="260" y="55" type="curve" smooth="yes"/>
      <point x="178" y="55"/>
      <point x="140" y="92"/>
      <point x="135" y="150" type="curve"/>
    </contour>
  </outline>
</glyph>
<glyph name="t" format="2">
  <advance width="450"/>
  <unicode hex="0074"/>
  <outline>
    <contour>
      <point x="30" y="422" type="line"/>
      <point x="397" y="422" type="line"/>
      <point x="397" y="490" type="line"/>
      <point x="30" y="490" type="line"/>
    </contour>
    <contour>
      <point x="307" y="-12" type="curve" smooth="yes"/>
      <point x="329" y="-12"/>
      <point x="370" y="-10"/>
      <point x="397" y="-5" type="curve"/>
      <point x="397" y="67" type="line"/>
      <point x="373" y="64"/>
      <point x="349" y="63"/>
      <point x="332" y="63" type="curve" smooth="yes"/>
      <point x="275" y="63"/>
      <point x="247" y="79"/>
      <point x="247" y="122" type="curve" smooth="yes"/>
      <point x="247" y="646" type="line"/>
      <point x="159" y="646" type="line"/>
      <point x="159" y="105" type="line" smooth="yes"/>
      <point x="159" y="34"/>
      <point x="206" y="-12"/>
    </contour>
  </outline>
</glyph>
<glyph name="u" format="2">
  <advance width="550"/>
  <unicode hex="0075"/>
  <outline>
    <contour>
      <point x="472" y="0" type="line"/>
      <point x="472" y="490" type="line"/>
      <point x="384" y="490" type="line"/>
      <point x="384" y="181" type="line" smooth="yes"/>
      <point x="384" y="107"/>
      <point x="336" y="59"/>
      <point x="266" y="59" type="curve" smooth="yes"/>
      <point x="198" y="59"/>
      <point x="163" y="107"/>
      <point x="163" y="172" type="curve" smooth="yes"/>
      <point x="163" y="490" type="line"/>
      <point x="75" y="490" type="line"/>
      <point x="75" y="157" type="line" smooth="yes"/>
      <point x="75" y="63"/>
      <point x="138" y="-12"/>
      <point x="235" y="-12" type="curve" smooth="yes"/>
      <point x="310" y="-12"/>
      <point x="373" y="31"/>
      <point x="406" y="96" type="curve"/>
      <point x="384" y="96" type="line"/>
      <point x="384" y="0" type="line"/>
    </contour>
  </outline>
</glyph>
<glyph name="v" format="2">
  <advance width="550"/>
  <unicode hex="0076"/>
  <outline>
    <contour>
      <point x="228" y="0" type="line"/>
      <point x="324" y="0" type="line"/>
      <point x="523" y="490" type="line"/>
      <point x="430" y="490" type="line"/>
      <point x="256" y="50" type="line"/>
      <point x="297" y="50" type="line"/>
      <point x="120" y="490" type="line"/>
      <point x="27" y="490" type="line"/>
    </contour>
  </outline>
</glyph>
<glyph name="w" format="2">
  <advance width="760"/>
  <unicode hex="0077"/>
  <outline>
    <contour>
      <point x="188" y="0" type="line"/>
      <point x="264" y="0" type="line"/>
      <point x="389" y="404" type="line"/>
      <point x="367" y="404" type="line"/>
      <point x="496" y="0" type="line"/>
      <point x="573" y="0" type="line"/>
      <point x="731" y="490" type="line"/>
      <point x="645" y="490" type="line"/>
      <point x="512" y="50" type="line"/>
      <point x="559" y="50" type="line"/>
      <point x="420" y="490" type="line"/>
      <point x="337" y="490" type="line"/>
      <point x="209" y="56" type="line"/>
      <point x="251" y="56" type="line"/>
      <point x="118" y="490" type="line"/>
      <point x="28" y="490" type="line"/>
    </contour>
  </outline>
</glyph>
<glyph name="x" format="2">
  <advance width="500"/>
  <unicode hex="0078"/>
  <outline>
    <contour>
      <point x="30" y="490" type="line"/>
      <point x="213" y="223" type="line"/>
      <point x="226" y="223" type="line"/>
      <point x="380" y="0" type="line"/>
      <point x="480" y="0" type="line"/>
      <point x="289" y="270" type="line"/>
      <point x="274" y="275" type="line"/>
      <point x="130" y="490" type="line"/>
    </contour>
    <contour>
      <point x="465" y="490" type="line"/>
      <point x="369" y="490" type="line"/>
      <point x="229" y="275" type="line"/>
      <point x="211" y="272" type="line"/>
      <point x="19" y="0" type="line"/>
      <point x="117" y="0" type="line"/>
      <point x="273" y="224" type="line"/>
      <point x="283" y="221" type="line"/>
    </contour>
  </outline>
</glyph>
<glyph name="y" format="2">
  <advance width="550"/>
  <unicode hex="0079"/>
  <outline>
    <contour>
      <point x="241" y="-180" type="line"/>
      <point x="522" y="490" type="line"/>
      <point x="428" y="490" type="line"/>
      <point x="255" y="57" type="line"/>
      <point x="241" y="28" type="line"/>
      <point x="148" y="-180" type="line"/>
    </contour>
    <contour>
      <point x="28" y="490" type="line"/>
      <point x="260" y="-60" type="line"/>
      <point x="304" y="47" type="line"/>
      <point x="123" y="490" type="line"/>
    </contour>
  </outline>
</glyph>
<glyph name="z" format="2">
  <advance width="500"/>
  <unicode hex="007A"/>
  <outline>
    <contour>
      <point x="49" y="62" type="line"/>
      <point x="49" y="0" type="line"/>
      <point x="450" y="0" type="line"/>
      <point x="450" y="73" type="line"/>
      <point x="101" y="73" type="line"/>
      <point x="123" y="34" type="line"/>
      <point x="447" y="436" type="line"/>
      <point x="447" y="490" type="line"/>
      <point x="48" y="490" type="line"/>
      <point x="48" y="417" type="line"/>
      <point x="400" y="417" type="line"/>
      <point x="377" y="469" type="line"/>
    </contour>
  </outline>
</glyph>
<glyph name="bar" format="2">
  <advance width="300"/>
  <unicode hex="007C"/>
  <outline>
    <contour>
      <point x="109" y="745" type="line"/>
      <point x="109" y="-113" type="line"/>
      <point x="192" y="-113" type="line"/>
      <point x="192" y="745" type="line"/>
    </contour>
  </outline>
</glyph>
<glyph name="asciitilde" format="2">
  <advance width="550"/>
  <unicode hex="007E"/>
  <outline>
    <contour>
      <point x="360" y="246" type="curve" smooth="yes"/>
      <point x="423" y="246"/>
      <point x="474" y="303" name="inserted"/>
      <point x="483" y="391" type="curve"/>
      <point x="410" y="391" type="line"/>
      <point x="405" y="357"/>
      <point x="384" y="328" name="inserted"/>
      <point x="355" y="328" type="curve" smooth="yes"/>
      <point x="314" y="328"/>
      <point x="255" y="386" name="inserted"/>
      <point x="191" y="386" type="curve" smooth="yes"/>
      <point x="128" y="386"/>
      <point x="77" y="330" name="inserted"/>
      <point x="68" y="242" type="curve"/>
      <point x="141" y="242" type="line"/>
      <point x="146" y="276"/>
      <point x="167" y="304" name="inserted"/>
      <point x="196" y="304" type="curve" smooth="yes"/>
      <point x="237" y="304"/>
      <point x="296" y="246" name="inserted"/>
    </contour>
  </outline>
</glyph>
<glyph name="cent" format="2">
  <advance width="550"/>
  <unicode hex="00A2"/>
  <outline>
    <contour>
      <point x="501" y="346" type="line"/>
      <point x="475" y="445"/>
      <point x="398" y="502"/>
      <point x="293" y="502" type="curve" smooth="yes"/>
      <point x="157" y="502"/>
      <point x="56" y="403"/>
      <point x="56" y="245" type="curve" smooth="yes"/>
      <point x="56" y="87"/>
      <point x="157" y="-12"/>
      <point x="293" y="-12" type="curve" smooth="yes"/>
      <point x="398" y="-12"/>
      <point x="475" y="43"/>
      <point x="501" y="142" type="curve"/>
      <point x="420" y="164" type="line"/>
      <point x="405" y="95"/>
      <point x="362" y="58"/>
      <point x="293" y="58" type="curve" smooth="yes"/>
      <point x="201" y="58"/>
      <point x="145" y="130"/>
      <point x="145" y="245" type="curve" smooth="yes"/>
      <point x="145" y="360"/>
      <point x="201" y="432"/>
      <point x="293" y="432" type="curve" smooth="yes"/>
      <point x="362" y="432"/>
      <point x="406" y="393"/>
      <point x="420" y="324" type="curve"/>
    </contour>
    <contour>
      <point x="250" y="-112" type="line"/>
      <point x="318" y="-112" type="line"/>
      <point x="318" y="597" type="line"/>
      <point x="250" y="597" type="line"/>
    </contour>
  </outline>
</glyph>
<glyph name="section" format="2">
  <advance width="550"/>
  <unicode hex="00A7"/>
  <outline>
    <contour>
      <point x="352" y="165" type="line"/>
      <point x="399" y="206"/>
      <point x="408" y="240"/>
      <point x="408" y="268" type="curve" smooth="yes"/>
      <point x="408" y="313"/>
      <point x="384" y="341"/>
      <point x="316" y="363" type="curve" smooth="yes"/>
      <point x="229" y="391" type="line" smooth="yes"/>
      <point x="117" y="427"/>
      <point x="81" y="470"/>
      <point x="81" y="542" type="curve" smooth="yes"/>
      <point x="81" y="650"/>
      <point x="161" y="712"/>
      <point x="274" y="712" type="curve" smooth="yes"/>
      <point x="396" y="712"/>
      <point x="466" y="644"/>
      <point x="468" y="552" type="curve"/>
      <point x="382" y="558" type="line"/>
      <point x="379" y="614"/>
      <point x="340" y="645"/>
      <point x="273" y="645" type="curve" smooth="yes"/>
      <point x="203" y="645"/>
      <point x="164" y="605"/>
      <point x="164" y="551" type="curve" smooth="yes"/>
      <point x="164" y="503"/>
      <point x="194" y="487"/>
      <point x="265" y="464" type="curve" smooth="yes"/>
      <point x="352" y="436" type="line" smooth="yes"/>
      <point x="454" y="403"/>
      <point x="494" y="350"/>
      <point x="494" y="285" type="curve" smooth="yes"/>
      <point x="494" y="239"/>
      <point x="475" y="180"/>
      <point x="412" y="130" type="curve"/>
    </contour>
    <contour>
      <point x="57" y="50" type="curve"/>
      <point x="150" y="41" type="line"/>
      <point x="155" y="-27"/>
      <point x="196" y="-59"/>
      <point x="278" y="-59" type="curve" smooth="yes"/>
      <point x="354" y="-59"/>
      <point x="393" y="-24"/>
      <point x="393" y="32" type="curve" smooth="yes"/>
      <point x="393" y="77"/>
      <point x="363" y="105"/>
      <point x="295" y="127" type="curve" smooth="yes"/>
      <point x="208" y="155" type="line" smooth="yes"/>
      <point x="96" y="191"/>
      <point x="60" y="240"/>
      <point x="60" y="306" type="curve" smooth="yes"/>
      <point x="60" y="364"/>
      <point x="85" y="418"/>
      <point x="158" y="466" type="curve"/>
      <point x="212" y="427" type="line"/>
      <point x="155" y="388"/>
      <point x="143" y="353"/>
      <point x="143" y="320" type="curve" smooth="yes"/>
      <point x="143" y="268"/>
      <point x="173" y="251"/>
      <point x="244" y="228" type="curve" smooth="yes"/>
      <point x="331" y="200" type="line" smooth="yes"/>
      <point x="433" y="167"/>
      <point x="479" y="120"/>
      <point x="479" y="47" type="curve" smooth="yes"/>
      <point x="479" y="-60"/>
      <point x="403" y="-126"/>
      <point x="277" y="-126" type="curve" smooth="yes"/>
      <point x="146" y="-126"/>
      <point x="63" y="-60"/>
    </contour>
  </outline>
</glyph>
<glyph name="copyright" format="2">
  <advance width="760"/>
  <unicode hex="00A9"/>
  <outline>
    <contour>
      <point x="539" y="449" type="line"/>
      <point x="521" y="515"/>
      <point x="462" y="562"/>
      <point x="383" y="562" type="curve" smooth="yes"/>
      <point x="282" y="562"/>
      <point x="208" y="487"/>
      <point x="208" y="379" type="curve" smooth="yes"/>
      <point x="208" y="271"/>
      <point x="282" y="196"/>
      <point x="383" y="196" type="curve" smooth="yes"/>
      <point x="463" y="196"/>
      <point x="522" y="243"/>
      <point x="539" y="310" type="curve"/>
      <point x="476" y="331" type="line"/>
      <point x="465" y="286"/>
      <point x="429" y="257"/>
      <point x="383" y="257" type="curve" smooth="yes"/>
      <point x="321" y="257"/>
      <point x="278" y="304"/>
      <point x="278" y="379" type="curve" smooth="yes"/>
      <point x="278" y="454"/>
      <point x="321" y="502"/>
      <point x="383" y="502" type="curve" smooth="yes"/>
      <point x="429" y="502"/>
      <point x="464" y="474"/>
      <point x="476" y="428" type="curve"/>
    </contour>
    <contour>
      <point x="51" y="379" type="curve" smooth="yes"/>
      <point x="51" y="195"/>
      <point x="193" y="48"/>
      <point x="380" y="48" type="curve" smooth="yes"/>
      <point x="567" y="48"/>
      <point x="709" y="195"/>
      <point x="709" y="379" type="curve" smooth="yes"/>
      <point x="709" y="563"/>
      <point x="567" y="710"/>
      <point x="380" y="710" type="curve" smooth="yes"/>
      <point x="193" y="710"/>
      <point x="51" y="563"/>
    </contour>
    <contour>
      <point x="656" y="379" type="curve" smooth="yes"/>
      <point x="656" y="217"/>
      <point x="542" y="97"/>
      <point x="380" y="97" type="curve" smooth="yes"/>
      <point x="218" y="97"/>
      <point x="104" y="217"/>
      <point x="104" y="379" type="curve" smooth="yes"/>
      <point x="104" y="541"/>
      <point x="218" y="662"/>
      <point x="380" y="662" type="curve" smooth="yes"/>
      <point x="542" y="662"/>
      <point x="656" y="541"/>
    </contour>
  </outline>
</glyph>
<glyph name="ordfeminine" format="2">
  <advance width="450"/>
  <unicode hex="00AA"/>
  <outline>
    <contour>
      <point x="38" y="420" type="curve" smooth="yes"/>
      <point x="38" y="347"/>
      <point x="91" y="301"/>
      <point x="175" y="301" type="curve" smooth="yes"/>
      <point x="233" y="301"/>
      <point x="273" y="321"/>
      <point x="299" y="355" type="curve"/>
      <point x="311" y="316"/>
      <point x="341" y="305"/>
      <point x="377" y="305" type="curve" smooth="yes"/>
      <point x="387" y="305"/>
      <point x="398" y="306"/>
      <point x="404" y="307" type="curve"/>
      <point x="404" y="370" type="line"/>
      <point x="396" y="370" type="line" smooth="yes"/>
      <point x="378" y="370"/>
      <point x="371" y="381"/>
      <point x="371" y="398" type="curve" smooth="yes"/>
      <point x="371" y="586" type="line" smooth="yes"/>
      <point x="371" y="666"/>
      <point x="318" y="712"/>
      <point x="216" y="712" type="curve" smooth="yes"/>
      <point x="99" y="712"/>
      <point x="58" y="650"/>
      <point x="54" y="590" type="curve"/>
      <point x="135" y="578" type="line"/>
      <point x="138" y="613"/>
      <point x="153" y="648"/>
      <point x="216" y="648" type="curve" smooth="yes"/>
      <point x="269" y="648"/>
      <point x="295" y="624"/>
      <point x="295" y="583" type="curve" smooth="yes"/>
      <point x="295" y="553" type="line"/>
      <point x="173" y="539" type="line" smooth="yes"/>
      <point x="93" y="530"/>
      <point x="38" y="492"/>
    </contour>
    <contour>
      <point x="295" y="454" type="line" smooth="yes"/>
      <point x="295" y="407"/>
      <point x="243" y="364"/>
      <point x="183" y="364" type="curve" smooth="yes"/>
      <point x="143" y="364"/>
      <point x="117" y="383"/>
      <point x="117" y="420" type="curve" smooth="yes"/>
      <point x="117" y="457"/>
      <point x="142" y="477"/>
      <point x="187" y="482" type="curve" smooth="yes"/>
      <point x="295" y="495" type="line"/>
    </contour>
  </outline>
</glyph>
<glyph name="registered" format="2">
  <advance width="550"/>
  <unicode hex="00AE"/>
  <outline>
    <contour>
      <point x="497" y="482" type="curve" smooth="yes"/>
      <point x="497" y="606"/>
      <point x="403" y="705"/>
      <point x="275" y="705" type="curve" smooth="yes"/>
      <point x="147" y="705"/>
      <point x="53" y="606"/>
      <point x="53" y="482" type="curve" smooth="yes"/>
      <point x="53" y="358"/>
      <point x="147" y="259"/>
      <point x="275" y="259" type="curve" smooth="yes"/>
      <point x="403" y="259"/>
      <point x="497" y="358"/>
    </contour>
    <contour>
      <point x="101" y="482" type="curve" smooth="yes"/>
      <point x="101" y="584"/>
      <point x="169" y="660"/>
      <point x="275" y="660" type="curve" smooth="yes"/>
      <point x="381" y="660"/>
      <point x="449" y="584"/>
      <point x="449" y="482" type="curve" smooth="yes"/>
      <point x="449" y="380"/>
      <point x="381" y="304"/>
      <point x="275" y="304" type="curve" smooth="yes"/>
      <point x="169" y="304"/>
      <point x="101" y="380"/>
    </contour>
    <contour>
      <point x="188" y="589" type="line"/>
      <point x="188" y="375" type="line"/>
      <point x="239" y="375" type="line"/>
      <point x="239" y="589" type="line"/>
    </contour>
    <contour>
      <point x="291" y="494" type="curve" smooth="yes"/>
      <point x="207" y="494" type="line"/>
      <point x="207" y="453" type="line"/>
      <point x="288" y="453" type="line" smooth="yes"/>
      <point x="344" y="453"/>
      <point x="371" y="480"/>
      <point x="371" y="520" type="curve" smooth="yes"/>
      <point x="371" y="560"/>
      <point x="343" y="589"/>
      <point x="289" y="589" type="curve" smooth="yes"/>
      <point x="208" y="589" type="line"/>
      <point x="208" y="546" type="line"/>
      <point x="291" y="546" type="line" smooth="yes"/>
      <point x="309" y="546"/>
      <point x="319" y="537"/>
      <point x="319" y="520" type="curve" smooth="yes"/>
      <point x="319" y="503"/>
      <point x="309" y="494"/>
    </contour>
    <contour>
      <point x="255" y="462" type="line"/>
      <point x="272" y="432"/>
      <point x="304" y="399"/>
      <point x="325" y="375" type="curve"/>
      <point x="383" y="375" type="line"/>
      <point x="383" y="377" type="line"/>
      <point x="362" y="400"/>
      <point x="330" y="433"/>
      <point x="312" y="462" type="curve"/>
    </contour>
  </outline>
</glyph>
<glyph name="degree" format="2">
  <advance width="450"/>
  <unicode hex="00B0"/>
  <outline>
    <contour>
      <point x="76" y="559" type="curve" smooth="yes"/>
      <point x="76" y="475"/>
      <point x="142" y="410"/>
      <point x="225" y="410" type="curve" smooth="yes"/>
      <point x="308" y="410"/>
      <point x="374" y="475"/>
      <point x="374" y="559" type="curve" smooth="yes"/>
      <point x="374" y="643"/>
      <point x="308" y="708"/>
      <point x="225" y="708" type="curve" smooth="yes"/>
      <point x="142" y="708"/>
      <point x="76" y="643"/>
    </contour>
    <contour>
      <point x="304" y="559" type="curve" smooth="yes"/>
      <point x="304" y="509"/>
      <point x="269" y="476"/>
      <point x="225" y="476" type="curve" smooth="yes"/>
      <point x="181" y="476"/>
      <point x="146" y="509"/>
      <point x="146" y="559" type="curve" smooth="yes"/>
      <point x="146" y="609"/>
      <point x="181" y="642"/>
      <point x="225" y="642" type="curve" smooth="yes"/>
      <point x="269" y="642"/>
      <point x="304" y="609"/>
    </contour>
  </outline>
</glyph>
<glyph name="ordmasculine" format="2">
  <advance width="450"/>
  <unicode hex="00BA"/>
  <outline>
    <contour>
      <point x="212" y="301" type="curve" smooth="yes"/>
      <point x="320" y="301"/>
      <point x="403" y="380"/>
      <point x="403" y="506" type="curve" smooth="yes"/>
      <point x="403" y="633"/>
      <point x="320" y="712"/>
      <point x="212" y="712" type="curve" smooth="yes"/>
      <point x="104" y="712"/>
      <point x="21" y="633"/>
      <point x="21" y="506" type="curve" smooth="yes"/>
      <point x="21" y="380"/>
      <point x="104" y="301"/>
    </contour>
    <contour>
      <point x="212" y="646" type="curve" smooth="yes"/>
      <point x="281" y="646"/>
      <point x="324" y="593"/>
      <point x="324" y="506" type="curve" smooth="yes"/>
      <point x="324" y="419"/>
      <point x="281" y="367"/>
      <point x="212" y="367" type="curve" smooth="yes"/>
      <point x="143" y="367"/>
      <point x="100" y="419"/>
      <point x="100" y="506" type="curve" smooth="yes"/>
      <point x="100" y="593"/>
      <point x="143" y="646"/>
    </contour>
  </outline>
</glyph>
<glyph name="Oslash" format="2">
  <advance width="760"/>
  <unicode hex="00D8"/>
  <outline>
    <contour>
      <point x="72" y="18" type="line"/>
      <point x="130" y="-33" type="line"/>
      <point x="690" y="681" type="line"/>
      <point x="632" y="732" type="line"/>
    </contour>
    <contour>
      <point x="381" y="711" type="curve" smooth="yes"/>
      <point x="199" y="711"/>
      <point x="57" y="563"/>
      <point x="57" y="349" type="curve" smooth="yes"/>
      <point x="57" y="135"/>
      <point x="199" y="-13"/>
      <point x="381" y="-13" type="curve" smooth="yes"/>
      <point x="563" y="-13"/>
      <point x="705" y="135"/>
      <point x="705" y="349" type="curve" smooth="yes"/>
      <point x="705" y="563"/>
      <point x="563" y="711"/>
    </contour>
    <contour>
      <point x="381" y="68" type="curve" smooth="yes"/>
      <point x="247" y="68"/>
      <point x="150" y="180"/>
      <point x="150" y="349" type="curve" smooth="yes"/>
      <point x="150" y="518"/>
      <point x="247" y="630"/>
      <point x="381" y="630" type="curve" smooth="yes"/>
      <point x="515" y="630"/>
      <point x="612" y="518"/>
      <point x="612" y="349" type="curve" smooth="yes"/>
      <point x="612" y="180"/>
      <point x="515" y="68"/>
    </contour>
  </outline>
</glyph>
<glyph name="Thorn" format="2">
  <advance width="680"/>
  <unicode hex="00DE"/>
  <outline>
    <contour>
      <point x="97" y="700" type="line"/>
      <point x="97" y="0" type="line"/>
      <point x="188" y="0" type="line"/>
      <point x="188" y="700" type="line"/>
    </contour>
    <contour>
      <point x="432" y="465" type="line" smooth="yes"/>
      <point x="512" y="465"/>
      <point x="558" y="433"/>
      <point x="558" y="357" type="curve" smooth="yes"/>
      <point x="558" y="281"/>
      <point x="511" y="245"/>
      <point x="432" y="245" type="curve" smooth="yes"/>
      <point x="139" y="245" type="line"/>
      <point x="139" y="163" type="line"/>
      <point x="439" y="163" type="line" smooth="yes"/>
      <point x="563" y="163"/>
      <point x="651" y="241"/>
      <point x="651" y="357" type="curve" smooth="yes"/>
      <point x="651" y="473"/>
      <point x="562" y="547"/>
      <point x="438" y="547" type="curve" smooth="yes"/>
      <point x="140" y="547" type="line"/>
      <point x="140" y="465" type="line"/>
    </contour>
  </outline>
</glyph>
<glyph name="germandbls" format="2">
  <advance width="550"/>
  <unicode hex="00DF"/>
  <outline>
    <contour>
      <point x="75" y="518" type="curve" smooth="yes"/>
      <point x="75" y="0" type="line"/>
      <point x="163" y="0" type="line"/>
      <point x="163" y="518" type="line" smooth="yes"/>
      <point x="163" y="585"/>
      <point x="205" y="636"/>
      <point x="274" y="636" type="curve" smooth="yes"/>
      <point x="344" y="636"/>
      <point x="388" y="590"/>
      <point x="388" y="523" type="curve" smooth="yes"/>
      <point x="388" y="448"/>
      <point x="341" y="410"/>
      <point x="262" y="410" type="curve" smooth="yes"/>
      <point x="240" y="410" type="line"/>
      <point x="240" y="334" type="line"/>
      <point x="266" y="334" type="line" smooth="yes"/>
      <point x="355" y="334"/>
      <point x="420" y="285"/>
      <point x="420" y="199" type="curve" smooth="yes"/>
      <point x="420" y="113"/>
      <point x="378" y="64"/>
      <point x="301" y="64" type="curve" smooth="yes"/>
      <point x="271" y="64"/>
      <point x="251" y="71"/>
      <point x="235" y="78" type="curve"/>
      <point x="235" y="1" type="line"/>
      <point x="249" y="-4"/>
      <point x="271" y="-12"/>
      <point x="310" y="-12" type="curve" smooth="yes"/>
      <point x="441" y="-12"/>
      <point x="509" y="77"/>
      <point x="509" y="197" type="curve" smooth="yes"/>
      <point x="509" y="303"/>
      <point x="444" y="361"/>
      <point x="360" y="378" type="curve"/>
      <point x="360" y="372" type="line"/>
      <point x="418" y="388"/>
      <point x="476" y="435"/>
      <point x="476" y="529" type="curve" smooth="yes"/>
      <point x="476" y="634"/>
      <point x="397" y="712"/>
      <point x="276" y="712" type="curve" smooth="yes"/>
      <point x="155" y="712"/>
      <point x="75" y="634"/>
    </contour>
  </outline>
</glyph>
<glyph name="ae" format="2">
  <advance width="760"/>
  <unicode hex="00E6"/>
  <outline>
    <contour>
      <point x="60" y="137" type="curve" smooth="yes"/>
      <point x="60" y="46"/>
      <point x="122" y="-12"/>
      <point x="216" y="-12" type="curve" smooth="yes"/>
      <point x="324" y="-12"/>
      <point x="407" y="62"/>
      <point x="407" y="224" type="curve" smooth="yes"/>
      <point x="407" y="326" type="line" smooth="yes"/>
      <point x="407" y="436"/>
      <point x="355" y="502"/>
      <point x="249" y="502" type="curve" smooth="yes"/>
      <point x="127" y="502"/>
      <point x="81" y="424"/>
      <point x="76" y="353" type="curve"/>
      <point x="159" y="338" type="line"/>
      <point x="162" y="383"/>
      <point x="183" y="431"/>
      <point x="248" y="431" type="curve" smooth="yes"/>
      <point x="309" y="431"/>
      <point x="330" y="396"/>
      <point x="330" y="341" type="curve" smooth="yes"/>
      <point x="330" y="173" type="line" smooth="yes"/>
      <point x="330" y="109"/>
      <point x="290" y="59"/>
      <point x="225" y="59" type="curve" smooth="yes"/>
      <point x="174" y="59"/>
      <point x="145" y="88"/>
      <point x="145" y="137" type="curve" smooth="yes"/>
      <point x="145" y="191"/>
      <point x="178" y="221"/>
      <point x="247" y="224" type="curve" smooth="yes"/>
      <point x="363" y="229" type="line"/>
      <point x="363" y="296" type="line"/>
      <point x="239" y="290" type="line" smooth="yes"/>
      <point x="135" y="285"/>
      <point x="60" y="232"/>
    </contour>
    <contour>
      <point x="342" y="244" type="curve" smooth="yes"/>
      <point x="342" y="85"/>
      <point x="411" y="-12"/>
      <point x="524" y="-12" type="curve" smooth="yes"/>
      <point x="613" y="-12"/>
      <point x="671" y="48"/>
      <point x="698" y="142" type="curve"/>
      <point x="628" y="162" type="line"/>
      <point x="610" y="95"/>
      <point x="575" y="59"/>
      <point x="524" y="59" type="curve" smooth="yes"/>
      <point x="458" y="59"/>
      <point x="417" y="123"/>
      <point x="417" y="244" type="curve" smooth="yes"/>
      <point x="417" y="359"/>
      <point x="459" y="431"/>
      <point x="524" y="431" type="curve" smooth="yes"/>
      <point x="584" y="431"/>
      <point x="620" y="374"/>
      <point x="620" y="247" type="curve"/>
      <point x="638" y="292" type="line"/>
      <point x="379" y="292" type="line"/>
      <point x="379" y="226" type="line"/>
      <point x="699" y="226" type="line"/>
      <point x="699" y="242" type="line" smooth="yes"/>
      <point x="699" y="393"/>
      <point x="636" y="502"/>
      <point x="524" y="502" type="curve" smooth="yes"/>
      <point x="410" y="502"/>
      <point x="342" y="404"/>
    </contour>
  </outline>
</glyph>
<glyph name="icircumflex" format="2">
  <advance width="300"/>
  <unicode hex="00EE"/>
  <outline>
    <contour>
      <point x="106" y="700" type="line"/>
      <point x="4" y="570" type="line"/>
      <point x="74" y="570" type="line"/>
      <point x="176" y="671" type="line"/>
      <point x="124" y="671" type="line"/>
      <point x="226" y="570" type="line"/>
      <point x="296" y="570" type="line"/>
      <point x="194" y="700" type="line"/>
    </contour>
    <component base="dotlessi" identifier="545A8925"/>
  </outline>
</glyph>
<glyph name="idieresis" format="2">
  <advance width="300"/>
  <unicode hex="00EF"/>
  <outline>
    <contour>
      <point x="11" y="700" type="line"/>
      <point x="11" y="597" type="line"/>
      <point x="107" y="597" type="line"/>
      <point x="107" y="700" type="line"/>
    </contour>
    <contour>
      <point x="192" y="700" type="line"/>
      <point x="192" y="597" type="line"/>
      <point x="288" y="597" type="line"/>
      <point x="288" y="700" type="line"/>
    </contour>
    <component base="dotlessi" identifier="0DC8F904"/>
  </outline>
</glyph>
<glyph name="eth" format="2">
  <advance width="550"/>
  <unicode hex="00F0"/>
  <outline>
    <contour>
      <point x="275" y="422" type="curve" smooth="yes"/>
      <point x="364" y="422"/>
      <point x="418" y="351"/>
      <point x="418" y="240" type="curve" smooth="yes"/>
      <point x="418" y="129"/>
      <point x="364" y="58"/>
      <point x="275" y="58" type="curve" smooth="yes"/>
      <point x="186" y="58"/>
      <point x="132" y="129"/>
      <point x="132" y="240" type="curve" smooth="yes"/>
      <point x="132" y="351"/>
      <point x="186" y="422"/>
    </contour>
    <contour>
      <point x="275" y="-12" type="curve" smooth="yes"/>
      <point x="406" y="-12"/>
      <point x="507" y="73"/>
      <point x="507" y="266" type="curve" smooth="yes"/>
      <point x="507" y="512"/>
      <point x="357" y="652"/>
      <point x="206" y="711" type="curve"/>
      <point x="114" y="687" type="line"/>
      <point x="282" y="619"/>
      <point x="360" y="532"/>
      <point x="399" y="422" type="curve"/>
      <point x="408" y="422" type="line"/>
      <point x="365" y="479"/>
      <point x="317" y="492"/>
      <point x="271" y="492" type="curve" smooth="yes"/>
      <point x="145" y="492"/>
      <point x="43" y="394"/>
      <point x="43" y="240" type="curve" smooth="yes"/>
      <point x="43" y="86"/>
      <point x="144" y="-12"/>
    </contour>
    <contour>
      <point x="154" y="514" type="line"/>
      <point x="455" y="643" type="line"/>
      <point x="432" y="699" type="line"/>
      <point x="131" y="570" type="line"/>
    </contour>
  </outline>
</glyph>
<glyph name="oslash" format="2">
  <advance width="550"/>
  <unicode hex="00F8"/>
  <outline>
    <contour>
      <point x="41" y="9" type="line"/>
      <point x="90" y="-32" type="line"/>
      <point x="509" y="481" type="line"/>
      <point x="460" y="522" type="line"/>
    </contour>
    <contour>
      <point x="275" y="-12" type="curve" smooth="yes"/>
      <point x="406" y="-12"/>
      <point x="507" y="87"/>
      <point x="507" y="245" type="curve" smooth="yes"/>
      <point x="507" y="403"/>
      <point x="406" y="502"/>
      <point x="275" y="502" type="curve" smooth="yes"/>
      <point x="144" y="502"/>
      <point x="43" y="403"/>
      <point x="43" y="245" type="curve" smooth="yes"/>
      <point x="43" y="87"/>
      <point x="144" y="-12"/>
    </contour>
    <contour>
      <point x="275" y="432" type="curve" smooth="yes"/>
      <point x="363" y="432"/>
      <point x="418" y="360"/>
      <point x="418" y="245" type="curve" smooth="yes"/>
      <point x="418" y="130"/>
      <point x="363" y="58"/>
      <point x="275" y="58" type="curve" smooth="yes"/>
      <point x="187" y="58"/>
      <point x="132" y="130"/>
      <point x="132" y="245" type="curve" smooth="yes"/>
      <point x="132" y="360"/>
      <point x="187" y="432"/>
    </contour>
  </outline>
</glyph>
<glyph name="aogonek" format="2">
  <advance width="550"/>
  <unicode hex="0105"/>
  <outline>
    <contour>
      <point x="380" y="93" type="line"/>
      <point x="383" y="13"/>
      <point x="429" y="-10"/>
      <point x="477" y="-10" type="curve" smooth="yes"/>
      <point x="487" y="-10"/>
      <point x="496" y="-9"/>
      <point x="504" y="-7" type="curve"/>
      <point x="504" y="64" type="line"/>
      <point x="501" y="64"/>
      <point x="496" y="64"/>
      <point x="492" y="64" type="curve" smooth="yes"/>
      <point x="471" y="64"/>
      <point x="462" y="78"/>
      <point x="462" y="100" type="curve" smooth="yes"/>
      <point x="462" y="345" type="line" smooth="yes"/>
      <point x="462" y="445"/>
      <point x="396" y="502"/>
      <point x="275" y="502" type="curve" smooth="yes"/>
      <point x="138" y="502"/>
      <point x="85" y="424"/>
      <point x="80" y="350" type="curve"/>
      <point x="169" y="335" type="line"/>
      <point x="172" y="382"/>
      <point x="188" y="429"/>
      <point x="274" y="429" type="curve" smooth="yes"/>
      <point x="350" y="429"/>
      <point x="376" y="396"/>
      <point x="376" y="341" type="curve" smooth="yes"/>
      <point x="376" y="177" type="line" smooth="yes"/>
      <point x="376" y="114"/>
      <point x="316" y="59"/>
      <point x="236" y="59" type="curve" smooth="yes"/>
      <point x="181" y="59"/>
      <point x="148" y="86"/>
      <point x="148" y="136" type="curve" smooth="yes"/>
      <point x="148" y="186"/>
      <point x="180" y="212"/>
      <point x="241" y="220" type="curve" smooth="yes"/>
      <point x="409" y="241" type="line"/>
      <point x="409" y="306" type="line"/>
      <point x="227" y="284" type="line" smooth="yes"/>
      <point x="127" y="272"/>
      <point x="58" y="226"/>
      <point x="58" y="136" type="curve" smooth="yes"/>
      <point x="58" y="44"/>
      <point x="127" y="-12"/>
      <point x="225" y="-12" type="curve" smooth="yes"/>
      <point x="311" y="-12"/>
      <point x="369" y="28"/>
      <point x="402" y="93" type="curve"/>
    </contour>
    <contour>
      <point x="449" y="-203" type="curve" smooth="yes"/>
      <point x="470" y="-203"/>
      <point x="494" y="-200"/>
      <point x="517" y="-193" type="curve"/>
      <point x="517" y="-132" type="line"/>
      <point x="497" y="-137"/>
      <point x="481" y="-140"/>
      <point x="463" y="-140" type="curve" smooth="yes"/>
      <point x="433" y="-140"/>
      <point x="416" y="-130"/>
      <point x="416" y="-107" type="curve" smooth="yes"/>
      <point x="416" y="-71"/>
      <point x="454" y="-37"/>
      <point x="504" y="-7" type="curve"/>
      <point x="444" y="6" type="line"/>
      <point x="398" y="-18"/>
      <point x="341" y="-55"/>
      <point x="341" y="-120" type="curve" smooth="yes"/>
      <point x="341" y="-170"/>
      <point x="374" y="-203"/>
    </contour>
  </outline>
</glyph>
<glyph name="dcroat" format="2">
  <advance width="600"/>
  <unicode hex="0111"/>
  <outline>
    <contour>
      <point x="271" y="554" type="line"/>
      <point x="579" y="554" type="line"/>
      <point x="579" y="619" type="line"/>
      <point x="271" y="619" type="line"/>
    </contour>
    <component base="d" identifier="8B087A2B"/>
  </outline>
</glyph>
<glyph name="eogonek" format="2">
  <advance width="550"/>
  <unicode hex="0119"/>
  <outline>
    <contour>
      <point x="312" y="-196" type="curve" smooth="yes"/>
      <point x="333" y="-196"/>
      <point x="357" y="-193"/>
      <point x="380" y="-186" type="curve"/>
      <point x="380" y="-125" type="line"/>
      <point x="360" y="-130"/>
      <point x="344" y="-133"/>
      <point x="326" y="-133" type="curve" smooth="yes"/>
      <point x="296" y="-133"/>
      <point x="279" y="-123"/>
      <point x="279" y="-100" type="curve" smooth="yes"/>
      <point x="279" y="-64"/>
      <point x="311" y="-18"/>
      <point x="367" y="0" type="curve" smooth="yes"/>
      <point x="438" y="23"/>
      <point x="483" y="80"/>
      <point x="501" y="142" type="curve"/>
      <point x="424" y="164" type="line"/>
      <point x="407" y="100"/>
      <point x="358" y="58"/>
      <point x="285" y="58" type="curve" smooth="yes"/>
      <point x="201" y="58"/>
      <point x="147" y="117"/>
      <point x="141" y="226" type="curve"/>
      <point x="501" y="226" type="line"/>
      <point x="501" y="242" type="line" smooth="yes"/>
      <point x="501" y="393"/>
      <point x="417" y="502"/>
      <point x="285" y="502" type="curve" smooth="yes"/>
      <point x="153" y="502"/>
      <point x="53" y="404"/>
      <point x="53" y="244" type="curve" smooth="yes"/>
      <point x="53" y="86"/>
      <point x="153" y="-11"/>
      <point x="282" y="-11" type="curve" smooth="yes"/>
      <point x="286" y="-11"/>
      <point x="291" y="-11"/>
      <point x="295" y="-11" type="curve"/>
      <point x="289" y="4" type="line"/>
      <point x="248" y="-21"/>
      <point x="204" y="-56"/>
      <point x="204" y="-113" type="curve" smooth="yes"/>
      <point x="204" y="-163"/>
      <point x="237" y="-196"/>
    </contour>
    <contour>
      <point x="285" y="432" type="curve" smooth="yes"/>
      <point x="356" y="432"/>
      <point x="404" y="388"/>
      <point x="416" y="292" type="curve"/>
      <point x="145" y="292" type="line"/>
      <point x="158" y="379"/>
      <point x="210" y="432"/>
    </contour>
  </outline>
</glyph>
<glyph name="Hbar" format="2">
  <advance width="760"/>
  <unicode hex="0126"/>
  <outline>
    <contour>
      <point x="43" y="500" type="line"/>
      <point x="717" y="500" type="line"/>
      <point x="717" y="578" type="line"/>
      <point x="43" y="578" type="line"/>
    </contour>
    <contour>
      <point x="170" y="300" type="line"/>
      <point x="591" y="300" type="line"/>
      <point x="591" y="382" type="line"/>
      <point x="170" y="382" type="line"/>
    </contour>
    <contour>
      <point x="546" y="700" type="line"/>
      <point x="546" y="0" type="line"/>
      <point x="637" y="0" type="line"/>
      <point x="637" y="700" type="line"/>
    </contour>
    <contour>
      <point x="123" y="700" type="line"/>
      <point x="123" y="0" type="line"/>
      <point x="214" y="0" type="line"/>
      <point x="214" y="700" type="line"/>
    </contour>
  </outline>
</glyph>
<glyph name="itilde" format="2">
  <advance width="300"/>
  <unicode hex="0129"/>
  <outline>
    <contour>
      <point x="95" y="677" type="curve" smooth="yes"/>
      <point x="45" y="677"/>
      <point x="19" y="635"/>
      <point x="16" y="570" type="curve"/>
      <point x="74" y="570" type="line"/>
      <point x="77" y="598"/>
      <point x="82" y="612"/>
      <point x="100" y="612" type="curve" smooth="yes"/>
      <point x="126" y="612"/>
      <point x="164" y="579"/>
      <point x="205" y="579" type="curve" smooth="yes"/>
      <point x="255" y="579"/>
      <point x="281" y="621"/>
      <point x="284" y="686" type="curve"/>
      <point x="225" y="686" type="line"/>
      <point x="223" y="658"/>
      <point x="218" y="644"/>
      <point x="200" y="644" type="curve" smooth="yes"/>
      <point x="174" y="644"/>
      <point x="136" y="677"/>
    </contour>
    <component base="dotlessi" identifier="A826B57B"/>
  </outline>
</glyph>
<glyph name="imacron" format="2">
  <advance width="300"/>
  <unicode hex="012B"/>
  <outline>
    <contour>
      <point x="16" y="604" type="line"/>
      <point x="284" y="604" type="line"/>
      <point x="284" y="670" type="line"/>
      <point x="16" y="670" type="line"/>
    </contour>
    <component base="dotlessi" identifier="D5265FC7"/>
  </outline>
</glyph>
<glyph name="ibreve" format="2">
  <advance width="300"/>
  <unicode hex="012D"/>
  <outline>
    <contour>
      <point x="15" y="700" type="line"/>
      <point x="15" y="626"/>
      <point x="64" y="565"/>
      <point x="150" y="565" type="curve" smooth="yes"/>
      <point x="236" y="565"/>
      <point x="285" y="626"/>
      <point x="285" y="700" type="curve"/>
      <point x="219" y="700" type="line"/>
      <point x="219" y="658"/>
      <point x="195" y="627"/>
      <point x="150" y="627" type="curve" smooth="yes"/>
      <point x="105" y="627"/>
      <point x="81" y="658"/>
      <point x="81" y="700" type="curve"/>
    </contour>
    <component base="dotlessi" identifier="F5673785"/>
  </outline>
</glyph>
<glyph name="dotlessi" format="2">
  <advance width="300"/>
  <unicode hex="0131"/>
  <outline>
    <contour>
      <point x="106" y="490" type="line"/>
      <point x="106" y="421" type="line"/>
      <point x="154" y="421" type="line"/>
      <point x="154" y="490" type="line"/>
    </contour>
    <contour>
      <point x="106" y="69" type="line"/>
      <point x="106" y="0" type="line"/>
      <point x="194" y="0" type="line"/>
      <point x="194" y="69" type="line"/>
    </contour>
    <contour>
      <point x="106" y="490" type="line"/>
      <point x="106" y="0" type="line"/>
      <point x="194" y="0" type="line"/>
      <point x="194" y="490" type="line"/>
    </contour>
  </outline>
</glyph>
<glyph name="ij" format="2">
  <advance width="500"/>
  <unicode hex="0133"/>
  <outline>
    <contour>
      <point x="78" y="700" type="line"/>
      <point x="78" y="597" type="line"/>
      <point x="174" y="597" type="line"/>
      <point x="174" y="700" type="line"/>
    </contour>
    <contour>
      <point x="82" y="490" type="line"/>
      <point x="82" y="0" type="line"/>
      <point x="170" y="0" type="line"/>
      <point x="170" y="490" type="line"/>
    </contour>
    <contour>
      <point x="82" y="0" type="line"/>
      <point x="170" y="0" type="line"/>
      <point x="170" y="69" type="line"/>
      <point x="82" y="69" type="line"/>
    </contour>
    <contour>
      <point x="82" y="421" type="line"/>
      <point x="130" y="421" type="line"/>
      <point x="130" y="490" type="line"/>
      <point x="82" y="490" type="line"/>
    </contour>
    <contour>
      <point x="225" y="-182" type="line"/>
      <point x="237" y="-186"/>
      <point x="258" y="-189"/>
      <point x="287" y="-189" type="curve" smooth="yes"/>
      <point x="356" y="-189"/>
      <point x="418" y="-161"/>
      <point x="418" y="-60" type="curve" smooth="yes"/>
      <point x="418" y="490" type="line"/>
      <point x="330" y="490" type="line"/>
      <point x="330" y="-55" type="line" smooth="yes"/>
      <point x="330" y="-101"/>
      <point x="305" y="-113"/>
      <point x="265" y="-113" type="curve" smooth="yes"/>
      <point x="249" y="-113"/>
      <point x="240" y="-112"/>
      <point x="225" y="-110" type="curve"/>
    </contour>
    <contour>
      <point x="330" y="428" type="line"/>
      <point x="378" y="428" type="line"/>
      <point x="378" y="490" type="line"/>
      <point x="330" y="490" type="line"/>
    </contour>
    <contour>
      <point x="322" y="700" type="line"/>
      <point x="322" y="597" type="line"/>
      <point x="422" y="597" type="line"/>
      <point x="422" y="700" type="line"/>
    </contour>
  </outline>
</glyph>
<glyph name="Ldot" format="2">
  <advance width="600"/>
  <unicode hex="013F"/>
  <outline>
    <contour>
      <point x="393" y="442" type="line"/>
      <point x="393" y="326" type="line"/>
      <point x="492" y="326" type="line"/>
      <point x="492" y="442" type="line"/>
    </contour>
    <component base="L" identifier="67CF9309"/>
  </outline>
</glyph>
<glyph name="ldot" format="2">
  <advance width="300"/>
  <unicode hex="0140"/>
  <outline>
    <contour>
      <point x="254" y="431" type="line"/>
      <point x="254" y="319" type="line"/>
      <point x="347" y="319" type="line"/>
      <point x="347" y="431" type="line"/>
    </contour>
    <component base="l" identifier="9471C1E7"/>
  </outline>
</glyph>
<glyph name="lslash" format="2">
  <advance width="300"/>
  <unicode hex="0142"/>
  <outline>
    <contour>
      <point x="8" y="316" type="line"/>
      <point x="8" y="240" type="line"/>
      <point x="292" y="424" type="line"/>
      <point x="292" y="500" type="line"/>
    </contour>
    <component base="l" identifier="D5926BD4"/>
  </outline>
</glyph>
<glyph name="Eng" format="2">
  <advance width="760"/>
  <unicode hex="014A"/>
  <outline>
    <contour>
      <point x="641" y="40" type="line"/>
      <point x="231" y="700" type="line"/>
      <point x="104" y="700" type="line"/>
      <point x="104" y="0" type="line"/>
      <point x="193" y="0" type="line"/>
      <point x="193" y="657" type="line"/>
      <point x="159" y="657" type="line"/>
      <point x="589" y="-35" type="line"/>
      <point x="656" y="0" type="line"/>
      <point x="656" y="700" type="line"/>
      <point x="567" y="700" type="line"/>
      <point x="567" y="40" type="line"/>
    </contour>
    <contour>
      <point x="476" y="-111" type="curve" smooth="yes"/>
      <point x="441" y="-111"/>
      <point x="416" y="-103"/>
      <point x="394" y="-95" type="curve"/>
      <point x="394" y="-177" type="line"/>
      <point x="418" y="-186"/>
      <point x="450" y="-192"/>
      <point x="486" y="-192" type="curve" smooth="yes"/>
      <point x="608" y="-192"/>
      <point x="656" y="-133"/>
      <point x="656" y="-40" type="curve" smooth="yes"/>
      <point x="656" y="80" type="line"/>
      <point x="567" y="80" type="line"/>
      <point x="567" y="-32" type="line" smooth="yes"/>
      <point x="567" y="-80"/>
      <point x="549" y="-111"/>
    </contour>
  </outline>
</glyph>
<glyph name="eng" format="2">
  <advance width="550"/>
  <unicode hex="014B"/>
  <outline>
    <contour>
      <point x="78" y="490" type="line"/>
      <point x="78" y="0" type="line"/>
      <point x="166" y="0" type="line"/>
      <point x="166" y="309" type="line" smooth="yes"/>
      <point x="166" y="383"/>
      <point x="214" y="431"/>
      <point x="284" y="431" type="curve" smooth="yes"/>
      <point x="352" y="431"/>
      <point x="387" y="383"/>
      <point x="387" y="318" type="curve" smooth="yes"/>
      <point x="387" y="0" type="line"/>
      <point x="475" y="0" type="line"/>
      <point x="475" y="333" type="line" smooth="yes"/>
      <point x="475" y="427"/>
      <point x="412" y="502"/>
      <point x="314" y="502" type="curve" smooth="yes"/>
      <point x="240" y="502"/>
      <point x="177" y="459"/>
      <point x="144" y="394" type="curve"/>
      <point x="166" y="394" type="line"/>
      <point x="166" y="490" type="line"/>
    </contour>
    <contour>
      <point x="302" y="-182" type="line"/>
      <point x="312" y="-186"/>
      <point x="330" y="-189"/>
      <point x="354" y="-189" type="curve" smooth="yes"/>
      <point x="418" y="-189"/>
      <point x="475" y="-164"/>
      <point x="475" y="-73" type="curve" smooth="yes"/>
      <point x="475" y="121" type="line"/>
      <point x="387" y="121" type="line"/>
      <point x="387" y="-68" type="line" smooth="yes"/>
      <point x="387" y="-100"/>
      <point x="366" y="-113"/>
      <point x="332" y="-113" type="curve" smooth="yes"/>
      <point x="320" y="-113"/>
      <point x="313" y="-112"/>
      <point x="302" y="-110" type="curve"/>
    </contour>
  </outline>
</glyph>
<glyph name="oe" format="2">
  <advance width="760"/>
  <unicode hex="0153"/>
  <outline>
    <contour>
      <point x="538" y="-12" type="curve" smooth="yes"/>
      <point x="626" y="-12"/>
      <point x="683" y="48"/>
      <point x="710" y="142" type="curve"/>
      <point x="640" y="162" type="line"/>
      <point x="623" y="94"/>
      <point x="588" y="59"/>
      <point x="538" y="59" type="curve" smooth="yes"/>
      <point x="474" y="59"/>
      <point x="434" y="123"/>
      <point x="434" y="244" type="curve" smooth="yes"/>
      <point x="434" y="359"/>
      <point x="475" y="431"/>
      <point x="538" y="431" type="curve" smooth="yes"/>
      <point x="597" y="431"/>
      <point x="633" y="374"/>
      <point x="633" y="247" type="curve"/>
      <point x="650" y="292" type="line"/>
      <point x="396" y="292" type="line"/>
      <point x="396" y="226" type="line"/>
      <point x="711" y="226" type="line"/>
      <point x="711" y="242" type="line" smooth="yes"/>
      <point x="711" y="393"/>
      <point x="649" y="502"/>
      <point x="538" y="502" type="curve" smooth="yes"/>
      <point x="426" y="502"/>
      <point x="359" y="404"/>
      <point x="359" y="244" type="curve" smooth="yes"/>
      <point x="359" y="85"/>
      <point x="427" y="-12"/>
    </contour>
    <contour>
      <point x="245" y="-12" type="curve" smooth="yes"/>
      <point x="356" y="-12"/>
      <point x="424" y="87"/>
      <point x="424" y="245" type="curve" smooth="yes"/>
      <point x="424" y="403"/>
      <point x="356" y="502"/>
      <point x="245" y="502" type="curve" smooth="yes"/>
      <point x="134" y="502"/>
      <point x="54" y="403"/>
      <point x="54" y="245" type="curve" smooth="yes"/>
      <point x="54" y="87"/>
      <point x="134" y="-12"/>
    </contour>
    <contour>
      <point x="245" y="431" type="curve" smooth="yes"/>
      <point x="309" y="431"/>
      <point x="348" y="360"/>
      <point x="348" y="245" type="curve" smooth="yes"/>
      <point x="348" y="130"/>
      <point x="309" y="59"/>
      <point x="245" y="59" type="curve" smooth="yes"/>
      <point x="181" y="59"/>
      <point x="141" y="130"/>
      <point x="141" y="245" type="curve" smooth="yes"/>
      <point x="141" y="360"/>
      <point x="181" y="431"/>
    </contour>
  </outline>
</glyph>
<glyph name="Tbar" format="2">
  <advance width="680"/>
  <unicode hex="0166"/>
  <outline>
    <contour>
      <point x="140" y="325" type="line"/>
      <point x="541" y="325" type="line"/>
      <point x="541" y="403" type="line"/>
      <point x="140" y="403" type="line"/>
    </contour>
    <component base="T" xOffset="3" identifier="ED3AE91C"/>
  </outline>
</glyph>
<glyph name="tbar" format="2">
  <advance width="450"/>
  <unicode hex="0167"/>
  <outline>
    <contour>
      <point x="30" y="252" type="line"/>
      <point x="397" y="252" type="line"/>
      <point x="397" y="320" type="line"/>
      <point x="30" y="320" type="line"/>
    </contour>
    <component base="t" identifier="AE10E19D"/>
  </outline>
</glyph>
<glyph name="uogonek" format="2">
  <advance width="550"/>
  <unicode hex="0173"/>
  <outline>
    <contour>
      <point x="75" y="157" type="line" smooth="yes"/>
      <point x="75" y="63"/>
      <point x="138" y="-12"/>
      <point x="235" y="-12" type="curve" smooth="yes"/>
      <point x="310" y="-12"/>
      <point x="373" y="31"/>
      <point x="406" y="96" type="curve"/>
      <point x="384" y="96" type="line"/>
      <point x="384" y="-20" type="line"/>
      <point x="472" y="0" type="line"/>
      <point x="472" y="490" type="line"/>
      <point x="384" y="490" type="line"/>
      <point x="384" y="181" type="line" smooth="yes"/>
      <point x="384" y="107"/>
      <point x="336" y="59"/>
      <point x="266" y="59" type="curve" smooth="yes"/>
      <point x="198" y="59"/>
      <point x="163" y="107"/>
      <point x="163" y="172" type="curve" smooth="yes"/>
      <point x="163" y="490" type="line"/>
      <point x="75" y="490" type="line"/>
    </contour>
    <contour>
      <point x="309" y="-113" type="curve" smooth="yes"/>
      <point x="309" y="-163"/>
      <point x="342" y="-196"/>
      <point x="417" y="-196" type="curve" smooth="yes"/>
      <point x="438" y="-196"/>
      <point x="462" y="-193"/>
      <point x="485" y="-186" type="curve"/>
      <point x="485" y="-125" type="line"/>
      <point x="465" y="-130"/>
      <point x="449" y="-133"/>
      <point x="431" y="-133" type="curve" smooth="yes"/>
      <point x="401" y="-133"/>
      <point x="384" y="-123"/>
      <point x="384" y="-100" type="curve" smooth="yes"/>
      <point x="384" y="-64"/>
      <point x="422" y="-30"/>
      <point x="472" y="0" type="curve"/>
      <point x="389" y="0" type="line"/>
      <point x="349" y="-24"/>
      <point x="309" y="-59"/>
    </contour>
  </outline>
</glyph>
<glyph name="Oopen" format="2">
  <advance width="760"/>
  <unicode hex="0186"/>
  <outline>
    <contour>
      <point x="82" y="487" type="curve"/>
      <point x="173" y="460" type="line"/>
      <point x="199" y="559"/>
      <point x="274" y="631"/>
      <point x="381" y="631" type="curve" smooth="yes"/>
      <point x="515" y="631"/>
      <point x="610" y="519"/>
      <point x="610" y="350" type="curve" smooth="yes"/>
      <point x="610" y="181"/>
      <point x="515" y="69"/>
      <point x="381" y="69" type="curve" smooth="yes"/>
      <point x="274" y="69"/>
      <point x="198" y="144"/>
      <point x="172" y="242" type="curve"/>
      <point x="81" y="214" type="line"/>
      <point x="117" y="81"/>
      <point x="231" y="-12"/>
      <point x="381" y="-12" type="curve" smooth="yes"/>
      <point x="563" y="-12"/>
      <point x="703" y="136"/>
      <point x="703" y="350" type="curve" smooth="yes"/>
      <point x="703" y="564"/>
      <point x="563" y="712"/>
      <point x="381" y="712" type="curve" smooth="yes"/>
      <point x="233" y="712"/>
      <point x="120" y="620"/>
    </contour>
  </outline>
</glyph>
<glyph name="Schwa" format="2">
  <advance width="760"/>
  <unicode hex="018F"/>
  <outline>
    <contour>
      <point x="380" y="712" type="curve" smooth="yes"/>
      <point x="229" y="712"/>
      <point x="120" y="624"/>
      <point x="77" y="498" type="curve"/>
      <point x="157" y="468" type="line"/>
      <point x="187" y="558"/>
      <point x="263" y="632"/>
      <point x="380" y="632" type="curve" smooth="yes"/>
      <point x="518" y="632"/>
      <point x="609" y="522"/>
      <point x="609" y="352" type="curve" smooth="yes"/>
      <point x="609" y="183"/>
      <point x="516" y="69"/>
      <point x="381" y="69" type="curve" smooth="yes"/>
      <point x="248" y="69"/>
      <point x="152" y="177"/>
      <point x="153" y="348" type="curve"/>
      <point x="139" y="291" type="line"/>
      <point x="642" y="291" type="line"/>
      <point x="642" y="366" type="line"/>
      <point x="60" y="366" type="line"/>
      <point x="60" y="355" type="line" smooth="yes"/>
      <point x="60" y="151"/>
      <point x="189" y="-12"/>
      <point x="381" y="-12" type="curve" smooth="yes"/>
      <point x="564" y="-12"/>
      <point x="701" y="138"/>
      <point x="701" y="352" type="curve" smooth="yes"/>
      <point x="701" y="565"/>
      <point x="566" y="712"/>
    </contour>
  </outline>
</glyph>
<glyph name="fhook" format="2">
  <advance width="500"/>
  <unicode hex="0192"/>
  <outline>
    <contour>
      <point x="132" y="382" type="line"/>
      <point x="433" y="382" type="line"/>
      <point x="433" y="452" type="line"/>
      <point x="132" y="452" type="line"/>
    </contour>
    <contour>
      <point x="242" y="109" type="curve" smooth="yes"/>
      <point x="367" y="582" type="line" smooth="yes"/>
      <point x="377" y="622"/>
      <point x="401" y="640"/>
      <point x="441" y="640" type="curve" smooth="yes"/>
      <point x="452" y="640"/>
      <point x="463" y="639"/>
      <point x="473" y="638" type="curve"/>
      <point x="473" y="708" type="line"/>
      <point x="459" y="711"/>
      <point x="442" y="712"/>
      <point x="429" y="712" type="curve" smooth="yes"/>
      <point x="334" y="712"/>
      <point x="296" y="658"/>
      <point x="279" y="591" type="curve" smooth="yes"/>
      <point x="154" y="118" type="line" smooth="yes"/>
      <point x="143" y="78"/>
      <point x="120" y="60"/>
      <point x="80" y="60" type="curve" smooth="yes"/>
      <point x="69" y="60"/>
      <point x="58" y="61"/>
      <point x="48" y="62" type="curve"/>
      <point x="48" y="-8" type="line"/>
      <point x="62" y="-11"/>
      <point x="79" y="-12"/>
      <point x="92" y="-12" type="curve" smooth="yes"/>
      <point x="187" y="-12"/>
      <point x="224" y="42"/>
    </contour>
  </outline>
</glyph>
<glyph name="Khook" format="2">
  <advance width="680"/>
  <unicode hex="0198"/>
  <outline>
    <contour>
      <point x="114" y="700" type="line"/>
      <point x="114" y="0" type="line"/>
      <point x="205" y="0" type="line"/>
      <point x="205" y="700" type="line"/>
    </contour>
    <contour>
      <point x="254" y="348" type="line"/>
      <point x="515" y="0" type="line"/>
      <point x="630" y="0" type="line"/>
      <point x="315" y="416" type="line"/>
    </contour>
    <contour>
      <point x="558" y="627" type="curve" smooth="yes"/>
      <point x="580" y="627"/>
      <point x="603" y="618"/>
      <point x="620" y="610" type="curve"/>
      <point x="623" y="693" type="line"/>
      <point x="605" y="703"/>
      <point x="577" y="712"/>
      <point x="549" y="712" type="curve" smooth="yes"/>
      <point x="508" y="712"/>
      <point x="472" y="694"/>
      <point x="444" y="658" type="curve" smooth="yes"/>
      <point x="164" y="297" type="line"/>
      <point x="164" y="180" type="line"/>
      <point x="298" y="339" type="line"/>
      <point x="319" y="361" type="line"/>
      <point x="505" y="599" type="line" smooth="yes"/>
      <point x="521" y="619"/>
      <point x="538" y="627"/>
    </contour>
  </outline>
</glyph>
<glyph name="khook" format="2">
  <advance width="550"/>
  <unicode hex="0199"/>
  <outline>
    <contour>
      <point x="138" y="236" type="line"/>
      <point x="138" y="144" type="line"/>
      <point x="260" y="258" type="line"/>
      <point x="289" y="275" type="line"/>
      <point x="517" y="490" type="line"/>
      <point x="409" y="490" type="line"/>
    </contour>
    <contour>
      <point x="221" y="266" type="line"/>
      <point x="432" y="0" type="line"/>
      <point x="535" y="0" type="line"/>
      <point x="284" y="316" type="line"/>
    </contour>
    <contour>
      <point x="181" y="576" type="line" smooth="yes"/>
      <point x="181" y="616"/>
      <point x="204" y="629"/>
      <point x="232" y="629" type="curve" smooth="yes"/>
      <point x="251" y="629"/>
      <point x="271" y="623"/>
      <point x="286" y="616" type="curve"/>
      <point x="289" y="689" type="line"/>
      <point x="272" y="698"/>
      <point x="246" y="706"/>
      <point x="216" y="706" type="curve" smooth="yes"/>
      <point x="142" y="706"/>
      <point x="93" y="654"/>
      <point x="93" y="583" type="curve" smooth="yes"/>
      <point x="93" y="0" type="line"/>
      <point x="181" y="0" type="line"/>
    </contour>
  </outline>
</glyph>
<glyph name="Uhorn" format="2">
  <advance width="760"/>
  <unicode hex="01AF"/>
  <outline>
    <contour>
      <point x="104" y="256" type="line" smooth="yes"/>
      <point x="104" y="96"/>
      <point x="213" y="-12"/>
      <point x="381" y="-12" type="curve" smooth="yes"/>
      <point x="549" y="-12"/>
      <point x="656" y="96"/>
      <point x="656" y="256" type="curve" smooth="yes"/>
      <point x="656" y="700" type="line"/>
      <point x="566" y="700" type="line"/>
      <point x="566" y="264" type="line" smooth="yes"/>
      <point x="566" y="147"/>
      <point x="499" y="72"/>
      <point x="381" y="72" type="curve" smooth="yes"/>
      <point x="263" y="72"/>
      <point x="195" y="147"/>
      <point x="195" y="264" type="curve" smooth="yes"/>
      <point x="195" y="700" type="line"/>
      <point x="104" y="700" type="line"/>
    </contour>
    <component base="horncmb.uc" xOffset="380" identifier="93597BEC"/>
  </outline>
</glyph>
<glyph name="Yhook" format="2">
  <advance width="680"/>
  <unicode hex="01B3"/>
  <outline>
    <contour>
      <point x="615" y="628" type="curve" smooth="yes"/>
      <point x="624" y="628"/>
      <point x="636" y="626"/>
      <point x="649" y="620" type="curve"/>
      <point x="652" y="701" type="line"/>
      <point x="636" y="709"/>
      <point x="619" y="712"/>
      <point x="602" y="712" type="curve" smooth="yes"/>
      <point x="562" y="712"/>
      <point x="527" y="692"/>
      <point x="501" y="649" type="curve" smooth="yes"/>
      <point x="315" y="344" type="line"/>
      <point x="366" y="344" type="line"/>
      <point x="149" y="700" type="line"/>
      <point x="47" y="700" type="line"/>
      <point x="294" y="297" type="line"/>
      <point x="294" y="0" type="line"/>
      <point x="385" y="0" type="line"/>
      <point x="385" y="297" type="line"/>
      <point x="567" y="594" type="line" smooth="yes"/>
      <point x="584" y="621"/>
      <point x="600" y="628"/>
    </contour>
  </outline>
</glyph>
<glyph name="yhook" format="2">
  <advance width="550"/>
  <unicode hex="01B4"/>
  <outline>
    <contour>
      <point x="28" y="490" type="line"/>
      <point x="260" y="-60" type="line"/>
      <point x="304" y="47" type="line"/>
      <point x="123" y="490" type="line"/>
    </contour>
    <contour>
      <point x="475" y="376" type="line" smooth="yes"/>
      <point x="490" y="412"/>
      <point x="503" y="424"/>
      <point x="525" y="424" type="curve" smooth="yes"/>
      <point x="539" y="424"/>
      <point x="552" y="419"/>
      <point x="563" y="413" type="curve"/>
      <point x="566" y="487" type="line"/>
      <point x="552" y="495"/>
      <point x="532" y="502"/>
      <point x="506" y="502" type="curve" smooth="yes"/>
      <point x="447" y="502"/>
      <point x="418" y="466"/>
      <point x="391" y="398" type="curve" smooth="yes"/>
      <point x="255" y="57" type="line"/>
      <point x="241" y="28" type="line"/>
      <point x="148" y="-180" type="line"/>
      <point x="241" y="-180" type="line"/>
    </contour>
  </outline>
</glyph>
<glyph name="Icaron" format="2">
  <advance width="300"/>
  <unicode hex="01CF"/>
  <outline>
    <contour>
      <point x="-6" y="892" type="line"/>
      <point x="105" y="771" type="line"/>
      <point x="195" y="771" type="line"/>
      <point x="306" y="892" type="line"/>
      <point x="232" y="892" type="line"/>
      <point x="124" y="808" type="line"/>
      <point x="176" y="808" type="line"/>
      <point x="68" y="892" type="line"/>
    </contour>
    <component base="I" identifier="858AC797"/>
  </outline>
</glyph>
<glyph name="icaron" format="2">
  <advance width="300"/>
  <unicode hex="01D0"/>
  <outline>
    <contour>
      <point x="106" y="570" type="line"/>
      <point x="194" y="570" type="line"/>
      <point x="296" y="700" type="line"/>
      <point x="226" y="700" type="line"/>
      <point x="124" y="599" type="line"/>
      <point x="176" y="599" type="line"/>
      <point x="74" y="700" type="line"/>
      <point x="4" y="700" type="line"/>
    </contour>
    <component base="dotlessi" identifier="E047B466"/>
  </outline>
</glyph>
<glyph name="oogonek" format="2">
  <advance width="550"/>
  <unicode hex="01EB"/>
  <outline>
    <contour>
      <point x="293" y="-196" type="curve" smooth="yes"/>
      <point x="314" y="-196"/>
      <point x="338" y="-193"/>
      <point x="361" y="-186" type="curve"/>
      <point x="361" y="-125" type="line"/>
      <point x="341" y="-130"/>
      <point x="325" y="-133"/>
      <point x="307" y="-133" type="curve" smooth="yes"/>
      <point x="277" y="-133"/>
      <point x="260" y="-123"/>
      <point x="260" y="-100" type="curve" smooth="yes"/>
      <point x="260" y="-65"/>
      <point x="295" y="-20"/>
      <point x="348" y="-2" type="curve" smooth="yes"/>
      <point x="442" y="30"/>
      <point x="507" y="117"/>
      <point x="507" y="245" type="curve" smooth="yes"/>
      <point x="507" y="403"/>
      <point x="406" y="502"/>
      <point x="275" y="502" type="curve" smooth="yes"/>
      <point x="144" y="502"/>
      <point x="43" y="403"/>
      <point x="43" y="245" type="curve" smooth="yes"/>
      <point x="43" y="88"/>
      <point x="144" y="-11"/>
      <point x="274" y="-13" type="curve" smooth="yes"/>
      <point x="275" y="-13"/>
      <point x="277" y="-13"/>
      <point x="278" y="-13" type="curve"/>
      <point x="273" y="3" type="line"/>
      <point x="230" y="-20"/>
      <point x="185" y="-55"/>
      <point x="185" y="-113" type="curve" smooth="yes"/>
      <point x="185" y="-163"/>
      <point x="218" y="-196"/>
    </contour>
    <contour>
      <point x="275" y="432" type="curve" smooth="yes"/>
      <point x="363" y="432"/>
      <point x="418" y="360"/>
      <point x="418" y="245" type="curve" smooth="yes"/>
      <point x="418" y="130"/>
      <point x="363" y="58"/>
      <point x="275" y="58" type="curve" smooth="yes"/>
      <point x="187" y="58"/>
      <point x="132" y="130"/>
      <point x="132" y="245" type="curve" smooth="yes"/>
      <point x="132" y="360"/>
      <point x="187" y="432"/>
    </contour>
  </outline>
</glyph>
<glyph name="dotlessj" format="2">
  <advance width="300"/>
  <unicode hex="0237"/>
  <outline>
    <contour>
      <point x="11" y="-182" type="line"/>
      <point x="23" y="-185"/>
      <point x="42" y="-189"/>
      <point x="68" y="-189" type="curve" smooth="yes"/>
      <point x="135" y="-189"/>
      <point x="194" y="-162"/>
      <point x="194" y="-66" type="curve" smooth="yes"/>
      <point x="194" y="490" type="line"/>
      <point x="106" y="490" type="line"/>
      <point x="106" y="-61" type="line" smooth="yes"/>
      <point x="106" y="-100"/>
      <point x="83" y="-113"/>
      <point x="46" y="-113" type="curve" smooth="yes"/>
      <point x="32" y="-113"/>
      <point x="24" y="-112"/>
      <point x="11" y="-110" type="curve"/>
    </contour>
    <contour>
      <point x="106" y="428" type="line"/>
      <point x="154" y="428" type="line"/>
      <point x="154" y="490" type="line"/>
      <point x="106" y="490" type="line"/>
    </contour>
  </outline>
</glyph>
<glyph name="oopen" format="2">
  <advance width="550"/>
  <unicode hex="0254"/>
  <outline>
    <contour>
      <point x="52" y="144" type="line"/>
      <point x="75" y="45"/>
      <point x="161" y="-12"/>
      <point x="268" y="-12" type="curve" smooth="yes"/>
      <point x="404" y="-12"/>
      <point x="494" y="87"/>
      <point x="494" y="245" type="curve" smooth="yes"/>
      <point x="494" y="403"/>
      <point x="404" y="502"/>
      <point x="268" y="502" type="curve" smooth="yes"/>
      <point x="161" y="502"/>
      <point x="75" y="447"/>
      <point x="52" y="348" type="curve"/>
      <point x="139" y="326" type="line"/>
      <point x="153" y="395"/>
      <point x="205" y="432"/>
      <point x="269" y="432" type="curve" smooth="yes"/>
      <point x="358" y="432"/>
      <point x="405" y="360"/>
      <point x="405" y="245" type="curve" smooth="yes"/>
      <point x="405" y="130"/>
      <point x="358" y="58"/>
      <point x="269" y="58" type="curve" smooth="yes"/>
      <point x="205" y="58"/>
      <point x="152" y="97"/>
      <point x="139" y="166" type="curve"/>
    </contour>
  </outline>
</glyph>
<glyph name="dhook" format="2">
  <advance width="600"/>
  <unicode hex="0257"/>
  <outline>
    <contour>
      <point x="286" y="58" type="curve" smooth="yes"/>
      <point x="194" y="58"/>
      <point x="143" y="130"/>
      <point x="143" y="245" type="curve" smooth="yes"/>
      <point x="143" y="360"/>
      <point x="194" y="432"/>
      <point x="286" y="432" type="curve" smooth="yes"/>
      <point x="378" y="432"/>
      <point x="429" y="360"/>
      <point x="429" y="245" type="curve" smooth="yes"/>
      <point x="429" y="130"/>
      <point x="378" y="58"/>
    </contour>
    <contour>
      <point x="511" y="576" type="line" smooth="yes"/>
      <point x="511" y="618"/>
      <point x="534" y="631"/>
      <point x="566" y="631" type="curve" smooth="yes"/>
      <point x="583" y="631"/>
      <point x="606" y="626"/>
      <point x="623" y="619" type="curve"/>
      <point x="626" y="692" type="line"/>
      <point x="608" y="700"/>
      <point x="579" y="706"/>
      <point x="551" y="706" type="curve" smooth="yes"/>
      <point x="469" y="706"/>
      <point x="423" y="654"/>
      <point x="423" y="581" type="curve" smooth="yes"/>
      <point x="423" y="371" type="line"/>
      <point x="452" y="371" type="line"/>
      <point x="413" y="457"/>
      <point x="344" y="502"/>
      <point x="257" y="502" type="curve" smooth="yes"/>
      <point x="147" y="502"/>
      <point x="54" y="411"/>
      <point x="54" y="244" type="curve" smooth="yes"/>
      <point x="54" y="76"/>
      <point x="147" y="-12"/>
      <point x="257" y="-12" type="curve" smooth="yes"/>
      <point x="344" y="-12"/>
      <point x="413" y="32"/>
      <point x="452" y="117" type="curve"/>
      <point x="423" y="117" type="line"/>
      <point x="423" y="0" type="line"/>
      <point x="511" y="0" type="line"/>
    </contour>
  </outline>
</glyph>
<glyph name="schwa" format="2">
  <advance width="550"/>
  <unicode hex="0259"/>
  <outline>
    <contour>
      <point x="277" y="502" type="curve" smooth="yes"/>
      <point x="172" y="502"/>
      <point x="83" y="442"/>
      <point x="57" y="348" type="curve"/>
      <point x="137" y="325" type="line"/>
      <point x="156" y="389"/>
      <point x="212" y="432"/>
      <point x="277" y="432" type="curve" smooth="yes"/>
      <point x="367" y="432"/>
      <point x="416" y="363"/>
      <point x="416" y="246" type="curve" smooth="yes"/>
      <point x="416" y="131"/>
      <point x="366" y="58"/>
      <point x="278" y="58" type="curve" smooth="yes"/>
      <point x="199" y="58"/>
      <point x="138" y="126"/>
      <point x="138" y="243" type="curve"/>
      <point x="112" y="198" type="line"/>
      <point x="455" y="198" type="line"/>
      <point x="455" y="264" type="line"/>
      <point x="51" y="264" type="line"/>
      <point x="51" y="248" type="line" smooth="yes"/>
      <point x="51" y="97"/>
      <point x="148" y="-12"/>
      <point x="278" y="-12" type="curve" smooth="yes"/>
      <point x="410" y="-12"/>
      <point x="504" y="86"/>
      <point x="504" y="246" type="curve" smooth="yes"/>
      <point x="504" y="401"/>
      <point x="409" y="502"/>
    </contour>
  </outline>
</glyph>
<glyph name="eopen" format="2">
  <advance width="500"/>
  <unicode hex="025B"/>
  <outline>
    <contour>
      <point x="464" y="149" type="curve"/>
      <point x="375" y="143" type="line"/>
      <point x="372" y="94"/>
      <point x="330" y="59"/>
      <point x="255" y="59" type="curve" smooth="yes"/>
      <point x="184" y="59"/>
      <point x="134" y="89"/>
      <point x="134" y="139" type="curve" smooth="yes"/>
      <point x="134" y="188"/>
      <point x="167" y="218"/>
      <point x="240" y="218" type="curve" smooth="yes"/>
      <point x="301" y="218" type="line"/>
      <point x="301" y="288" type="line"/>
      <point x="241" y="288" type="line" smooth="yes"/>
      <point x="180" y="288"/>
      <point x="146" y="307"/>
      <point x="146" y="355" type="curve" smooth="yes"/>
      <point x="146" y="407"/>
      <point x="196" y="431"/>
      <point x="255" y="431" type="curve" smooth="yes"/>
      <point x="325" y="431"/>
      <point x="370" y="398"/>
      <point x="370" y="348" type="curve"/>
      <point x="459" y="341" type="line"/>
      <point x="464" y="443"/>
      <point x="371" y="502"/>
      <point x="254" y="502" type="curve" smooth="yes"/>
      <point x="142" y="502"/>
      <point x="56" y="442"/>
      <point x="56" y="359" type="curve" smooth="yes"/>
      <point x="56" y="295"/>
      <point x="111" y="265"/>
      <point x="155" y="253" type="curve"/>
      <point x="155" y="258" type="line"/>
      <point x="93" y="246"/>
      <point x="42" y="203"/>
      <point x="42" y="138" type="curve" smooth="yes"/>
      <point x="42" y="44"/>
      <point x="142" y="-12"/>
      <point x="256" y="-12" type="curve" smooth="yes"/>
      <point x="376" y="-12"/>
      <point x="465" y="41"/>
    </contour>
  </outline>
</glyph>
<glyph name="nhookleft" format="2">
  <advance width="550"/>
  <unicode hex="0272"/>
  <outline>
    <contour>
      <point x="78" y="490" type="line"/>
      <point x="78" y="0" type="line"/>
      <point x="166" y="0" type="line"/>
      <point x="166" y="309" type="line" smooth="yes"/>
      <point x="166" y="383"/>
      <point x="214" y="431"/>
      <point x="284" y="431" type="curve" smooth="yes"/>
      <point x="352" y="431"/>
      <point x="387" y="383"/>
      <point x="387" y="318" type="curve" smooth="yes"/>
      <point x="387" y="0" type="line"/>
      <point x="475" y="0" type="line"/>
      <point x="475" y="333" type="line" smooth="yes"/>
      <point x="475" y="427"/>
      <point x="412" y="502"/>
      <point x="314" y="502" type="curve" smooth="yes"/>
      <point x="240" y="502"/>
      <point x="177" y="459"/>
      <point x="144" y="394" type="curve"/>
      <point x="166" y="394" type="line"/>
      <point x="166" y="490" type="line"/>
    </contour>
    <contour>
      <point x="-3" y="-182" type="line"/>
      <point x="8" y="-185"/>
      <point x="27" y="-189"/>
      <point x="51" y="-189" type="curve" smooth="yes"/>
      <point x="113" y="-189"/>
      <point x="166" y="-168"/>
      <point x="166" y="-80" type="curve" smooth="yes"/>
      <point x="166" y="90" type="line"/>
      <point x="78" y="90" type="line"/>
      <point x="78" y="-75" type="line" smooth="yes"/>
      <point x="78" y="-104"/>
      <point x="61" y="-113"/>
      <point x="27" y="-113" type="curve" smooth="yes"/>
      <point x="15" y="-113"/>
      <point x="8" y="-112"/>
      <point x="-3" y="-110" type="curve"/>
    </contour>
  </outline>
</glyph>
<glyph name="nretroflex" format="2">
  <advance width="550"/>
  <unicode hex="0273"/>
  <outline>
    <contour>
      <point x="78" y="490" type="line"/>
      <point x="78" y="0" type="line"/>
      <point x="166" y="0" type="line"/>
      <point x="166" y="309" type="line" smooth="yes"/>
      <point x="166" y="383"/>
      <point x="214" y="431"/>
      <point x="284" y="431" type="curve" smooth="yes"/>
      <point x="352" y="431"/>
      <point x="387" y="383"/>
      <point x="387" y="318" type="curve" smooth="yes"/>
      <point x="387" y="0" type="line"/>
      <point x="475" y="0" type="line"/>
      <point x="475" y="333" type="line" smooth="yes"/>
      <point x="475" y="427"/>
      <point x="412" y="502"/>
      <point x="314" y="502" type="curve" smooth="yes"/>
      <point x="240" y="502"/>
      <point x="177" y="459"/>
      <point x="144" y="394" type="curve"/>
      <point x="166" y="394" type="line"/>
      <point x="166" y="490" type="line"/>
    </contour>
    <contour>
      <point x="551" y="-182" type="curve"/>
      <point x="551" y="-110" type="line"/>
      <point x="542" y="-112"/>
      <point x="536" y="-113"/>
      <point x="525" y="-113" type="curve" smooth="yes"/>
      <point x="496" y="-113"/>
      <point x="475" y="-105"/>
      <point x="475" y="-79" type="curve" smooth="yes"/>
      <point x="475" y="90" type="line"/>
      <point x="387" y="90" type="line"/>
      <point x="387" y="-84" type="line" smooth="yes"/>
      <point x="387" y="-169"/>
      <point x="444" y="-189"/>
      <point x="500" y="-189" type="curve" smooth="yes"/>
      <point x="524" y="-189"/>
      <point x="540" y="-185"/>
    </contour>
  </outline>
</glyph>
<glyph name="vturned" format="2">
  <advance width="550"/>
  <unicode hex="028C"/>
  <outline>
    <contour>
      <point x="323" y="490" type="line"/>
      <point x="227" y="490" type="line"/>
      <point x="27" y="0" type="line"/>
      <point x="120" y="0" type="line"/>
      <point x="295" y="440" type="line"/>
      <point x="254" y="440" type="line"/>
      <point x="430" y="0" type="line"/>
      <point x="523" y="0" type="line"/>
    </contour>
  </outline>
</glyph>
<glyph name="ringhalfleftmod" format="2">
  <advance width="300"/>
  <unicode hex="02BF"/>
  <outline>
    <contour>
      <point x="225" y="446" type="line" smooth="yes"/>
      <point x="172" y="446"/>
      <point x="137" y="484"/>
      <point x="137" y="537" type="curve" smooth="yes"/>
      <point x="137" y="590"/>
      <point x="172" y="629"/>
      <point x="225" y="629" type="curve" smooth="yes"/>
      <point x="239" y="629" type="line"/>
      <point x="239" y="700" type="line"/>
      <point x="225" y="700" type="line" smooth="yes"/>
      <point x="133" y="700"/>
      <point x="61" y="632"/>
      <point x="61" y="537" type="curve" smooth="yes"/>
      <point x="61" y="442"/>
      <point x="133" y="375"/>
      <point x="225" y="375" type="curve" smooth="yes"/>
      <point x="239" y="375" type="line"/>
      <point x="239" y="446" type="line"/>
    </contour>
  </outline>
</glyph>
<glyph name="acutecmb" format="2">
  <advance width="600"/>
  <unicode hex="0301"/>
  <outline>
    <contour>
      <point x="298" y="700" type="line"/>
      <point x="381" y="700" type="line"/>
      <point x="302" y="570" type="line"/>
      <point x="236" y="570" type="line"/>
    </contour>
  </outline>
</glyph>
<glyph name="hookabovecmb" format="2">
  <advance width="600"/>
  <unicode hex="0309"/>
  <outline>
    <contour>
      <point x="310" y="662" type="curve" smooth="yes"/>
      <point x="310" y="637"/>
      <point x="288" y="620"/>
      <point x="252" y="608" type="curve"/>
      <point x="286" y="568" type="line"/>
      <point x="328" y="579"/>
      <point x="368" y="610"/>
      <point x="368" y="663" type="curve" smooth="yes"/>
      <point x="368" y="710"/>
      <point x="334" y="751"/>
      <point x="279" y="751" type="curve" smooth="yes"/>
      <point x="239" y="751"/>
      <point x="205" y="728"/>
      <point x="187" y="695" type="curve"/>
      <point x="227" y="665" type="line"/>
      <point x="236" y="679"/>
      <point x="249" y="697"/>
      <point x="274" y="697" type="curve" smooth="yes"/>
      <point x="296" y="697"/>
      <point x="310" y="682"/>
    </contour>
  </outline>
</glyph>
<glyph name="ringabovecmb" format="2">
  <advance width="600"/>
  <unicode hex="030A"/>
  <outline>
    <contour>
      <point x="395" y="658" type="curve" smooth="yes"/>
      <point x="395" y="710"/>
      <point x="354" y="752"/>
      <point x="300" y="752" type="curve" smooth="yes"/>
      <point x="246" y="752"/>
      <point x="205" y="710"/>
      <point x="205" y="658" type="curve" smooth="yes"/>
      <point x="205" y="606"/>
      <point x="246" y="564"/>
      <point x="300" y="564" type="curve" smooth="yes"/>
      <point x="354" y="564"/>
      <point x="395" y="606"/>
    </contour>
    <contour>
      <point x="345" y="658" type="curve" smooth="yes"/>
      <point x="345" y="632"/>
      <point x="328" y="611"/>
      <point x="300" y="611" type="curve" smooth="yes"/>
      <point x="272" y="611"/>
      <point x="255" y="632"/>
      <point x="255" y="658" type="curve" smooth="yes"/>
      <point x="255" y="684"/>
      <point x="272" y="705"/>
      <point x="300" y="705" type="curve" smooth="yes"/>
      <point x="328" y="705"/>
      <point x="345" y="684"/>
    </contour>
  </outline>
</glyph>
<glyph name="overlaystrokeshortcmb" format="2">
  <advance width="600"/>
  <unicode hex="0335"/>
  <outline>
    <contour>
      <point x="175" y="319" type="line"/>
      <point x="426" y="319" type="line"/>
      <point x="426" y="397" type="line"/>
      <point x="175" y="397" type="line"/>
    </contour>
  </outline>
</glyph>
<glyph name="rlinebelow" format="2">
  <advance width="450"/>
  <unicode hex="1E5F"/>
  <outline>
    <contour>
      <point x="43" y="-86" type="line"/>
      <point x="251" y="-86" type="line"/>
      <point x="251" y="-152" type="line"/>
      <point x="43" y="-152" type="line"/>
    </contour>
    <component base="r" identifier="197C3E62"/>
  </outline>
</glyph>
<glyph name="Germandbls" format="2">
  <advance width="760"/>
  <unicode hex="1E9E"/>
  <outline>
    <contour>
      <point x="109" y="700" type="line"/>
      <point x="109" y="0" type="line"/>
      <point x="200" y="0" type="line"/>
      <point x="200" y="700" type="line"/>
    </contour>
    <contour>
      <point x="663" y="618" type="line"/>
      <point x="663" y="700" type="line"/>
      <point x="144" y="700" type="line"/>
      <point x="144" y="618" type="line"/>
      <point x="619" y="618" type="line"/>
      <point x="582" y="649" type="line"/>
      <point x="323" y="418" type="line"/>
      <point x="323" y="353" type="line"/>
      <point x="445" y="353" type="line" smooth="yes"/>
      <point x="569" y="353"/>
      <point x="622" y="295"/>
      <point x="622" y="212" type="curve" smooth="yes"/>
      <point x="622" y="129"/>
      <point x="565" y="68"/>
      <point x="438" y="68" type="curve" smooth="yes"/>
      <point x="402" y="68"/>
      <point x="356" y="73"/>
      <point x="310" y="87" type="curve"/>
      <point x="310" y="7" type="line"/>
      <point x="358" y="-8"/>
      <point x="404" y="-12"/>
      <point x="440" y="-12" type="curve" smooth="yes"/>
      <point x="614" y="-12"/>
      <point x="714" y="83"/>
      <point x="714" y="211" type="curve" smooth="yes"/>
      <point x="714" y="339"/>
      <point x="621" y="430"/>
      <point x="461" y="430" type="curve" smooth="yes"/>
      <point x="380" y="430" type="line"/>
      <point x="420" y="403" type="line"/>
    </contour>
  </outline>
</glyph>
<glyph name="endash" format="2">
  <advance width="680"/>
  <unicode hex="2013"/>
  <outline>
    <contour>
      <point x="119" y="260" type="line"/>
      <point x="561" y="260" type="line"/>
      <point x="561" y="332" type="line"/>
      <point x="119" y="332" type="line"/>
    </contour>
  </outline>
</glyph>
<glyph name="emdash" format="2">
  <advance width="880"/>
  <unicode hex="2014"/>
  <outline>
    <contour>
      <point x="57" y="260" type="line"/>
      <point x="823" y="260" type="line"/>
      <point x="823" y="332" type="line"/>
      <point x="57" y="332" type="line"/>
    </contour>
  </outline>
</glyph>
<glyph name="quotedblright" format="2">
  <advance width="500" height="0"/>
  <unicode hex="201D"/>
  <outline>
    <contour>
      <point x="119" y="700" type="line"/>
      <point x="119" y="572" type="line"/>
      <point x="172" y="572" type="line"/>
      <point x="172" y="558" type="line" smooth="yes"/>
      <point x="172" y="509"/>
      <point x="145" y="481"/>
      <point x="100" y="481" type="curve"/>
      <point x="100" y="432" type="line"/>
      <point x="200" y="432"/>
      <point x="227" y="507"/>
      <point x="227" y="558" type="curve" smooth="yes"/>
      <point x="227" y="700" type="line"/>
    </contour>
    <contour>
      <point x="299" y="700" type="line"/>
      <point x="299" y="572" type="line"/>
      <point x="352" y="572" type="line"/>
      <point x="352" y="558" type="line" smooth="yes"/>
      <point x="352" y="509"/>
      <point x="325" y="481"/>
      <point x="280" y="481" type="curve"/>
      <point x="280" y="432" type="line"/>
      <point x="380" y="432"/>
      <point x="407" y="507"/>
      <point x="407" y="558" type="curve" smooth="yes"/>
      <point x="407" y="700" type="line"/>
    </contour>
  </outline>
</glyph>
<glyph name="dagger" format="2">
  <advance width="300"/>
  <unicode hex="2020"/>
  <outline>
    <contour>
      <point x="114" y="349" type="line"/>
      <point x="186" y="349" type="line"/>
      <point x="186" y="700" type="line"/>
      <point x="114" y="700" type="line"/>
    </contour>
    <contour>
      <point x="33" y="611" type="line"/>
      <point x="33" y="544" type="line"/>
      <point x="267" y="544" type="line"/>
      <point x="267" y="611" type="line"/>
    </contour>
  </outline>
</glyph>
<glyph name="daggerdbl" format="2">
  <advance width="300"/>
  <unicode hex="2021"/>
  <outline>
    <contour>
      <point x="114" y="349" type="line"/>
      <point x="186" y="349" type="line"/>
      <point x="186" y="700" type="line"/>
      <point x="114" y="700" type="line"/>
    </contour>
    <contour>
      <point x="33" y="624" type="line"/>
      <point x="33" y="557" type="line"/>
      <point x="267" y="557" type="line"/>
      <point x="267" y="624" type="line"/>
    </contour>
    <contour>
      <point x="33" y="500" type="line"/>
      <point x="33" y="433" type="line"/>
      <point x="267" y="433" type="line"/>
      <point x="267" y="500" type="line"/>
    </contour>
  </outline>
</glyph>
<glyph name="bullet" format="2">
  <advance width="500"/>
  <unicode hex="2022"/>
  <outline>
    <contour>
      <point x="250" y="484" type="curve" smooth="yes"/>
      <point x="154" y="484"/>
      <point x="75" y="405"/>
      <point x="75" y="309" type="curve" smooth="yes"/>
      <point x="75" y="213"/>
      <point x="154" y="134"/>
      <point x="250" y="134" type="curve" smooth="yes"/>
      <point x="346" y="134"/>
      <point x="425" y="213"/>
      <point x="425" y="309" type="curve" smooth="yes"/>
      <point x="425" y="405"/>
      <point x="346" y="484"/>
    </contour>
  </outline>
</glyph>
<glyph name="minute" format="2">
  <advance width="300"/>
  <unicode hex="2032"/>
  <outline>
    <contour>
      <point x="120" y="700" type="line"/>
      <point x="71" y="412" type="line"/>
      <point x="138" y="412" type="line"/>
      <point x="229" y="700" type="line"/>
    </contour>
  </outline>
</glyph>
<glyph name="second" format="2">
  <advance width="450"/>
  <unicode hex="2033"/>
  <outline>
    <contour>
      <point x="108" y="700" type="line"/>
      <point x="59" y="412" type="line"/>
      <point x="126" y="412" type="line"/>
      <point x="217" y="700" type="line"/>
    </contour>
    <contour>
      <point x="282" y="700" type="line"/>
      <point x="233" y="412" type="line"/>
      <point x="300" y="412" type="line"/>
      <point x="391" y="700" type="line"/>
    </contour>
  </outline>
</glyph>
<glyph name="guilsinglright" format="2">
  <advance width="300"/>
  <unicode hex="203A"/>
  <outline>
    <contour>
      <point x="32" y="60" type="line"/>
      <point x="128" y="60" type="line"/>
      <point x="268" y="234" type="line"/>
      <point x="268" y="276" type="line"/>
      <point x="128" y="450" type="line"/>
      <point x="32" y="450" type="line"/>
      <point x="209" y="230" type="line"/>
      <point x="209" y="280" type="line"/>
    </contour>
  </outline>
</glyph>
<glyph name="interrobang" format="2">
  <advance width="500"/>
  <unicode hex="203D"/>
  <outline>
    <contour>
      <point x="220" y="227" type="line"/>
      <point x="290" y="227" type="line"/>
      <point x="290" y="238" type="line" smooth="yes"/>
      <point x="290" y="282"/>
      <point x="312" y="314"/>
      <point x="357" y="350" type="curve" smooth="yes"/>
      <point x="411" y="391"/>
      <point x="464" y="437"/>
      <point x="464" y="531" type="curve" smooth="yes"/>
      <point x="464" y="641"/>
      <point x="376" y="712"/>
      <point x="252" y="712" type="curve" smooth="yes"/>
      <point x="130" y="712"/>
      <point x="47" y="647"/>
      <point x="26" y="539" type="curve"/>
      <point x="113" y="516" type="line"/>
      <point x="128" y="587"/>
      <point x="168" y="635"/>
      <point x="248" y="635" type="curve" smooth="yes"/>
      <point x="325" y="635"/>
      <point x="374" y="595"/>
      <point x="374" y="531" type="curve" smooth="yes"/>
      <point x="374" y="480"/>
      <point x="354" y="448"/>
      <point x="306" y="406" type="curve" smooth="yes"/>
      <point x="247" y="352"/>
      <point x="220" y="320"/>
      <point x="220" y="245" type="curve" smooth="yes"/>
    </contour>
    <contour>
      <point x="297" y="700" type="line"/>
      <point x="198" y="700" type="line"/>
      <point x="211" y="227" type="line"/>
      <point x="274" y="227" type="line"/>
    </contour>
    <contour>
      <point x="198" y="124" type="line"/>
      <point x="198" y="0" type="line"/>
      <point x="303" y="0" type="line"/>
      <point x="303" y="124" type="line"/>
    </contour>
  </outline>
</glyph>
<glyph name="naira" format="2">
  <advance width="680"/>
  <unicode hex="20A6"/>
  <outline>
    <contour>
      <point x="532" y="40" type="line"/>
      <point x="227" y="700" type="line"/>
      <point x="115" y="700" type="line"/>
      <point x="115" y="0" type="line"/>
      <point x="195" y="0" type="line"/>
      <point x="195" y="657" type="line"/>
      <point x="167" y="657" type="line"/>
      <point x="470" y="0" type="line"/>
      <point x="562" y="0" type="line"/>
      <point x="562" y="700" type="line"/>
      <point x="482" y="700" type="line"/>
      <point x="482" y="40" type="line"/>
    </contour>
    <contour>
      <point x="42" y="255" type="line"/>
      <point x="399" y="255" type="line"/>
      <point x="360" y="325" type="line"/>
      <point x="42" y="325" type="line"/>
    </contour>
    <contour>
      <point x="523" y="255" type="line"/>
      <point x="639" y="255" type="line"/>
      <point x="639" y="325" type="line"/>
      <point x="523" y="325" type="line"/>
    </contour>
    <contour>
      <point x="323" y="400" type="line"/>
      <point x="639" y="400" type="line"/>
      <point x="639" y="470" type="line"/>
      <point x="286" y="470" type="line"/>
    </contour>
    <contour>
      <point x="42" y="400" type="line"/>
      <point x="156" y="400" type="line"/>
      <point x="156" y="470" type="line"/>
      <point x="42" y="470" type="line"/>
    </contour>
  </outline>
</glyph>
<glyph name="newsheqel" format="2">
  <advance width="760"/>
  <unicode hex="20AA"/>
  <outline>
    <contour>
      <point x="313" y="700" type="line" smooth="yes"/>
      <point x="442" y="700"/>
      <point x="500" y="635"/>
      <point x="500" y="518" type="curve" smooth="yes"/>
      <point x="500" y="184" type="line"/>
      <point x="418" y="184" type="line"/>
      <point x="418" y="516" type="line" smooth="yes"/>
      <point x="418" y="583"/>
      <point x="391" y="622"/>
      <point x="311" y="622" type="curve" smooth="yes"/>
      <point x="186" y="622" type="line"/>
      <point x="186" y="0" type="line"/>
      <point x="102" y="0" type="line"/>
      <point x="102" y="700" type="line"/>
    </contour>
    <contour>
      <point x="448" y="0" type="line" smooth="yes"/>
      <point x="319" y="0"/>
      <point x="261" y="66"/>
      <point x="261" y="183" type="curve" smooth="yes"/>
      <point x="261" y="516" type="line"/>
      <point x="343" y="516" type="line"/>
      <point x="343" y="184" type="line" smooth="yes"/>
      <point x="343" y="117"/>
      <point x="370" y="78"/>
      <point x="450" y="78" type="curve" smooth="yes"/>
      <point x="575" y="78" type="line"/>
      <point x="575" y="700" type="line"/>
      <point x="659" y="700" type="line"/>
      <point x="659" y="0" type="line"/>
    </contour>
  </outline>
</glyph>
<glyph name="dong" format="2">
  <advance width="600"/>
  <unicode hex="20AB"/>
  <outline>
    <contour>
      <point x="259" y="539" type="curve" smooth="yes"/>
      <point x="161" y="539"/>
      <point x="81" y="463"/>
      <point x="81" y="324" type="curve" smooth="yes"/>
      <point x="81" y="184"/>
      <point x="161" y="110"/>
      <point x="259" y="110" type="curve" smooth="yes"/>
      <point x="339" y="110"/>
      <point x="400" y="164"/>
      <point x="422" y="239" type="curve"/>
      <point x="393" y="239" type="line"/>
      <point x="393" y="122" type="line"/>
      <point x="479" y="122" type="line"/>
      <point x="479" y="700" type="line"/>
      <point x="393" y="700" type="line"/>
      <point x="393" y="408" type="line"/>
      <point x="422" y="408" type="line"/>
      <point x="400" y="484"/>
      <point x="339" y="539"/>
    </contour>
    <contour>
      <point x="283" y="180" type="curve" smooth="yes"/>
      <point x="218" y="180"/>
      <point x="167" y="234"/>
      <point x="167" y="325" type="curve" smooth="yes"/>
      <point x="167" y="417"/>
      <point x="218" y="469"/>
      <point x="283" y="469" type="curve" smooth="yes"/>
      <point x="348" y="469"/>
      <point x="399" y="417"/>
      <point x="399" y="325" type="curve" smooth="yes"/>
      <point x="399" y="234"/>
      <point x="348" y="180"/>
    </contour>
    <contour>
      <point x="509" y="0" type="line"/>
      <point x="509" y="63" type="line"/>
      <point x="103" y="63" type="line"/>
      <point x="103" y="0" type="line"/>
    </contour>
    <contour>
      <point x="539" y="586" type="line"/>
      <point x="539" y="649" type="line"/>
      <point x="232" y="649" type="line"/>
      <point x="232" y="586" type="line"/>
    </contour>
  </outline>
</glyph>
<glyph name="Euro" format="2">
  <advance width="600"/>
  <unicode hex="20AC"/>
  <outline>
    <contour>
      <point x="559" y="486" type="line"/>
      <point x="534" y="620"/>
      <point x="464" y="712"/>
      <point x="345" y="712" type="curve" smooth="yes"/>
      <point x="194" y="712"/>
      <point x="99" y="569"/>
      <point x="99" y="350" type="curve" smooth="yes"/>
      <point x="99" y="131"/>
      <point x="194" y="-12"/>
      <point x="345" y="-12" type="curve" smooth="yes"/>
      <point x="464" y="-12"/>
      <point x="537" y="81"/>
      <point x="560" y="216" type="curve"/>
      <point x="480" y="232" type="line"/>
      <point x="466" y="142"/>
      <point x="427" y="64"/>
      <point x="345" y="64" type="curve" smooth="yes"/>
      <point x="242" y="64"/>
      <point x="189" y="174"/>
      <point x="189" y="350" type="curve" smooth="yes"/>
      <point x="189" y="526"/>
      <point x="242" y="636"/>
      <point x="345" y="636" type="curve" smooth="yes"/>
      <point x="427" y="636"/>
      <point x="465" y="561"/>
      <point x="479" y="470" type="curve"/>
    </contour>
    <contour>
      <point x="39" y="248" type="line"/>
      <point x="331" y="248" type="line"/>
      <point x="346" y="318" type="line"/>
      <point x="39" y="318" type="line"/>
    </contour>
    <contour>
      <point x="39" y="388" type="line"/>
      <point x="361" y="388" type="line"/>
      <point x="376" y="458" type="line"/>
      <point x="39" y="458" type="line"/>
    </contour>
  </outline>
</glyph>
<glyph name="turkishlira" format="2">
  <advance width="600"/>
  <unicode hex="20BA"/>
  <outline>
    <contour>
      <point x="60" y="286" type="line"/>
      <point x="396" y="468" type="line"/>
      <point x="396" y="546" type="line"/>
      <point x="60" y="364" type="line"/>
    </contour>
    <contour>
      <point x="60" y="138" type="line"/>
      <point x="396" y="320" type="line"/>
      <point x="396" y="398" type="line"/>
      <point x="60" y="216" type="line"/>
    </contour>
    <contour>
      <point x="133" y="700" type="line"/>
      <point x="133" y="0" type="line"/>
      <point x="219" y="0" type="line"/>
      <point x="219" y="700" type="line"/>
    </contour>
    <contour>
      <point x="168" y="0" type="line"/>
      <point x="317" y="0" type="line" smooth="yes"/>
      <point x="477" y="0"/>
      <point x="553" y="90"/>
      <point x="574" y="233" type="curve"/>
      <point x="496" y="251" type="line"/>
      <point x="478" y="126"/>
      <point x="416" y="77"/>
      <point x="314" y="77" type="curve" smooth="yes"/>
      <point x="168" y="77" type="line"/>
    </contour>
  </outline>
</glyph>
<glyph name="onetenth" format="2">
  <advance width="760"/>
  <unicode hex="2152"/>
  <outline>
    <contour>
      <point x="384" y="274" type="line"/>
      <point x="384" y="226"/>
      <point x="371" y="212"/>
      <point x="310" y="212" type="curve"/>
      <point x="310" y="163" type="line"/>
      <point x="416" y="163" type="line"/>
      <point x="378" y="205" type="line"/>
      <point x="378" y="0" type="line"/>
      <point x="443" y="0" type="line"/>
      <point x="443" y="274" type="line"/>
    </contour>
    <contour>
      <point x="603" y="278" type="curve" smooth="yes"/>
      <point x="537" y="278"/>
      <point x="496" y="224"/>
      <point x="496" y="137" type="curve" smooth="yes"/>
      <point x="496" y="50"/>
      <point x="537" y="-5"/>
      <point x="603" y="-5" type="curve" smooth="yes"/>
      <point x="669" y="-5"/>
      <point x="711" y="50"/>
      <point x="711" y="137" type="curve" smooth="yes"/>
      <point x="711" y="224"/>
      <point x="669" y="278"/>
    </contour>
    <contour>
      <point x="603" y="48" type="curve" smooth="yes"/>
      <point x="574" y="48"/>
      <point x="558" y="81"/>
      <point x="558" y="137" type="curve" smooth="yes"/>
      <point x="558" y="193"/>
      <point x="574" y="226"/>
      <point x="603" y="226" type="curve" smooth="yes"/>
      <point x="633" y="226"/>
      <point x="648" y="193"/>
      <point x="648" y="137" type="curve" smooth="yes"/>
      <point x="648" y="81"/>
      <point x="633" y="48"/>
    </contour>
    <contour>
      <point x="136" y="700" type="line"/>
      <point x="136" y="646"/>
      <point x="120" y="629"/>
      <point x="50" y="629" type="curve"/>
      <point x="50" y="580" type="line"/>
      <point x="168" y="580" type="line"/>
      <point x="128" y="621" type="line"/>
      <point x="128" y="386" type="line"/>
      <point x="195" y="386" type="line"/>
      <point x="195" y="700" type="line"/>
    </contour>
    <contour>
      <point x="80" y="0" type="line"/>
      <point x="149" y="0" type="line"/>
      <point x="510" y="700" type="line"/>
      <point x="441" y="700" type="line"/>
    </contour>
  </outline>
</glyph>
<glyph name="arrowup" format="2">
  <advance width="680"/>
  <unicode hex="2191"/>
  <outline>
    <contour>
      <point x="383" y="78" type="line"/>
      <point x="383" y="534" type="line"/>
      <point x="297" y="534" type="line"/>
      <point x="297" y="78" type="line"/>
    </contour>
    <contour>
      <point x="340" y="622" type="line"/>
      <point x="76" y="358" type="line"/>
      <point x="136" y="298" type="line"/>
      <point x="340" y="502" type="line"/>
      <point x="544" y="298" type="line"/>
      <point x="604" y="358" type="line"/>
    </contour>
  </outline>
</glyph>
<glyph name="approxequal" format="2">
  <advance width="600"/>
  <unicode hex="2248"/>
  <outline>
    <contour>
      <point x="190" y="302" type="curve" smooth="yes"/>
      <point x="126" y="302"/>
      <point x="78" y="267"/>
      <point x="72" y="179" type="curve"/>
      <point x="143" y="179" type="line"/>
      <point x="147" y="211"/>
      <point x="161" y="228"/>
      <point x="194" y="228" type="curve" smooth="yes"/>
      <point x="240" y="228"/>
      <point x="341" y="182"/>
      <point x="410" y="182" type="curve" smooth="yes"/>
      <point x="474" y="182"/>
      <point x="522" y="218"/>
      <point x="528" y="305" type="curve"/>
      <point x="457" y="305" type="line"/>
      <point x="454" y="273"/>
      <point x="439" y="256"/>
      <point x="406" y="256" type="curve" smooth="yes"/>
      <point x="360" y="256"/>
      <point x="259" y="302"/>
    </contour>
    <contour>
      <point x="190" y="498" type="curve" smooth="yes"/>
      <point x="126" y="498"/>
      <point x="78" y="463"/>
      <point x="72" y="375" type="curve"/>
      <point x="143" y="375" type="line"/>
      <point x="147" y="407"/>
      <point x="161" y="424"/>
      <point x="194" y="424" type="curve" smooth="yes"/>
      <point x="240" y="424"/>
      <point x="341" y="378"/>
      <point x="410" y="378" type="curve" smooth="yes"/>
      <point x="474" y="378"/>
      <point x="522" y="413"/>
      <point x="528" y="501" type="curve"/>
      <point x="457" y="501" type="line"/>
      <point x="453" y="469"/>
      <point x="439" y="452"/>
      <point x="406" y="452" type="curve" smooth="yes"/>
      <point x="360" y="452"/>
      <point x="259" y="498"/>
    </contour>
  </outline>
</glyph>
<glyph name="greaterequal" format="2">
  <advance width="600"/>
  <unicode hex="2265"/>
  <outline>
    <contour>
      <point x="72" y="0" type="line"/>
      <point x="72" y="76" type="line"/>
      <point x="528" y="76" type="line"/>
      <point x="528" y="0" type="line"/>
    </contour>
    <contour>
      <point x="528" y="428" type="line"/>
      <point x="528" y="342" type="line"/>
      <point x="72" y="151" type="line"/>
      <point x="72" y="236" type="line"/>
      <point x="466" y="400" type="line"/>
      <point x="466" y="371" type="line"/>
      <point x="72" y="535" type="line"/>
      <point x="72" y="619" type="line"/>
    </contour>
  </outline>
</glyph>
<glyph name="circlewhite" format="2">
  <advance width="760"/>
  <unicode hex="25CB"/>
  <outline>
    <contour>
      <point x="380" y="-12" type="curve" smooth="yes"/>
      <point x="584" y="-12"/>
      <point x="739" y="149"/>
      <point x="739" y="350" type="curve" smooth="yes"/>
      <point x="739" y="551"/>
      <point x="584" y="712"/>
      <point x="380" y="712" type="curve" smooth="yes"/>
      <point x="176" y="712"/>
      <point x="21" y="551"/>
      <point x="21" y="350" type="curve" smooth="yes"/>
      <point x="21" y="149"/>
      <point x="176" y="-12"/>
    </contour>
    <contour>
      <point x="380" y="38" type="curve" smooth="yes"/>
      <point x="202" y="38"/>
      <point x="75" y="171"/>
      <point x="75" y="350" type="curve" smooth="yes"/>
      <point x="75" y="529"/>
      <point x="202" y="662"/>
      <point x="380" y="662" type="curve" smooth="yes"/>
      <point x="558" y="662"/>
      <point x="685" y="529"/>
      <point x="685" y="350" type="curve" smooth="yes"/>
      <point x="685" y="171"/>
      <point x="558" y="38"/>
    </contour>
  </outline>
</glyph>
<glyph name="onesanscircled" format="2">
  <advance width="760"/>
  <unicode hex="2780"/>
  <outline>
    <contour>
      <point x="363" y="546" type="line"/>
      <point x="363" y="478"/>
      <point x="344" y="457"/>
      <point x="255" y="457" type="curve"/>
      <point x="255" y="403" type="line"/>
      <point x="354" y="403" type="line"/>
      <point x="354" y="154" type="line"/>
      <point x="429" y="154" type="line"/>
      <point x="429" y="546" type="line"/>
    </contour>
    <component base="circlewhite" identifier="487BC2BC"/>
  </outline>
</glyph>
<glyph name="twosanscircled" format="2">
  <advance width="760"/>
  <unicode hex="2781"/>
  <outline>
    <contour>
      <point x="517" y="154" type="line"/>
      <point x="517" y="218" type="line"/>
      <point x="347" y="218" type="line"/>
      <point x="452" y="302"/>
      <point x="514" y="355"/>
      <point x="514" y="426" type="curve" smooth="yes"/>
      <point x="514" y="486"/>
      <point x="476" y="552"/>
      <point x="379" y="552" type="curve" smooth="yes"/>
      <point x="287" y="552"/>
      <point x="243" y="491"/>
      <point x="243" y="433" type="curve" smooth="yes"/>
      <point x="243" y="414"/>
      <point x="248" y="398"/>
      <point x="256" y="384" type="curve"/>
      <point x="326" y="392" type="line"/>
      <point x="318" y="405"/>
      <point x="315" y="417"/>
      <point x="315" y="428" type="curve" smooth="yes"/>
      <point x="315" y="460"/>
      <point x="338" y="489"/>
      <point x="377" y="489" type="curve" smooth="yes"/>
      <point x="415" y="489"/>
      <point x="440" y="463"/>
      <point x="440" y="424" type="curve" smooth="yes"/>
      <point x="440" y="366"/>
      <point x="382" y="332"/>
      <point x="246" y="215" type="curve"/>
      <point x="246" y="154" type="line"/>
    </contour>
    <component base="circlewhite" identifier="74CF4CC4"/>
  </outline>
</glyph>
<glyph name="eightsanscircled" format="2">
  <advance width="760"/>
  <unicode hex="2787"/>
  <outline>
    <contour>
      <point x="236" y="268" type="curve" smooth="yes"/>
      <point x="236" y="199"/>
      <point x="295" y="148"/>
      <point x="380" y="148" type="curve" smooth="yes"/>
      <point x="465" y="148"/>
      <point x="524" y="199"/>
      <point x="524" y="268" type="curve" smooth="yes"/>
      <point x="524" y="318"/>
      <point x="494" y="349"/>
      <point x="453" y="363" type="curve"/>
      <point x="487" y="375"/>
      <point x="513" y="402"/>
      <point x="513" y="445" type="curve" smooth="yes"/>
      <point x="513" y="506"/>
      <point x="461" y="552"/>
      <point x="380" y="552" type="curve" smooth="yes"/>
      <point x="299" y="552"/>
      <point x="247" y="506"/>
      <point x="247" y="445" type="curve" smooth="yes"/>
      <point x="247" y="402"/>
      <point x="273" y="375"/>
      <point x="307" y="363" type="curve"/>
      <point x="266" y="349"/>
      <point x="236" y="318"/>
    </contour>
    <contour>
      <point x="451" y="271" type="curve" smooth="yes"/>
      <point x="451" y="232"/>
      <point x="422" y="206"/>
      <point x="380" y="206" type="curve" smooth="yes"/>
      <point x="338" y="206"/>
      <point x="309" y="232"/>
      <point x="309" y="271" type="curve" smooth="yes"/>
      <point x="309" y="310"/>
      <point x="338" y="334"/>
      <point x="380" y="334" type="curve" smooth="yes"/>
      <point x="422" y="334"/>
      <point x="451" y="310"/>
    </contour>
    <contour>
      <point x="442" y="442" type="curve" smooth="yes"/>
      <point x="442" y="411"/>
      <point x="416" y="390"/>
      <point x="380" y="390" type="curve" smooth="yes"/>
      <point x="344" y="390"/>
      <point x="318" y="411"/>
      <point x="318" y="442" type="curve" smooth="yes"/>
      <point x="318" y="473"/>
      <point x="344" y="494"/>
      <point x="380" y="494" type="curve" smooth="yes"/>
      <point x="416" y="494"/>
      <point x="442" y="473"/>
    </contour>
    <component base="circlewhite" identifier="18C4364B"/>
  </outline>
</glyph>
<glyph name="onesansnegativecircled" format="2">
  <advance width="760"/>
  <unicode hex="278A"/>
  <outline>
    <contour>
      <point x="363" y="546" type="curve"/>
      <point x="429" y="546" type="line"/>
      <point x="429" y="154" type="line"/>
      <point x="354" y="154" type="line"/>
      <point x="354" y="403" type="line"/>
      <point x="255" y="403" type="line"/>
      <point x="255" y="457" type="line"/>
      <point x="344" y="457"/>
      <point x="363" y="478"/>
    </contour>
    <component base="circleblack" identifier="B1DF2CDC"/>
  </outline>
</glyph>
<glyph name="twosansnegativecircled" format="2">
  <advance width="760"/>
  <unicode hex="278B"/>
  <outline>
    <contour>
      <point x="517" y="154" type="line"/>
      <point x="246" y="154" type="line"/>
      <point x="246" y="215" type="line"/>
      <point x="382" y="332"/>
      <point x="440" y="366"/>
      <point x="440" y="424" type="curve" smooth="yes"/>
      <point x="440" y="463"/>
      <point x="415" y="489"/>
      <point x="377" y="489" type="curve" smooth="yes"/>
      <point x="338" y="489"/>
      <point x="315" y="460"/>
      <point x="315" y="428" type="curve" smooth="yes"/>
      <point x="315" y="417"/>
      <point x="318" y="405"/>
      <point x="326" y="392" type="curve"/>
      <point x="256" y="384" type="line"/>
      <point x="248" y="398"/>
      <point x="243" y="414"/>
      <point x="243" y="433" type="curve" smooth="yes"/>
      <point x="243" y="491"/>
      <point x="287" y="552"/>
      <point x="379" y="552" type="curve" smooth="yes"/>
      <point x="476" y="552"/>
      <point x="514" y="486"/>
      <point x="514" y="426" type="curve" smooth="yes"/>
      <point x="514" y="355"/>
      <point x="452" y="302"/>
      <point x="347" y="218" type="curve"/>
      <point x="517" y="218" type="line"/>
    </contour>
    <component base="circleblack" identifier="990E68C8"/>
  </outline>
</glyph>
<glyph name="ninesansnegativecircled" format="2">
  <advance width="760"/>
  <unicode hex="2792"/>
  <outline>
    <contour>
      <point x="383" y="552" type="curve" smooth="yes"/>
      <point x="431" y="552"/>
      <point x="473" y="532"/>
      <point x="498" y="494" type="curve" smooth="yes"/>
      <point x="519" y="461"/>
      <point x="526" y="422"/>
      <point x="526" y="358" type="curve" smooth="yes"/>
      <point x="526" y="220"/>
      <point x="480" y="148"/>
      <point x="378" y="148" type="curve" smooth="yes"/>
      <point x="294" y="148"/>
      <point x="248" y="197"/>
      <point x="245" y="268" type="curve"/>
      <point x="325" y="256" type="line"/>
      <point x="328" y="224"/>
      <point x="349" y="206"/>
      <point x="379" y="206" type="curve" smooth="yes"/>
      <point x="429" y="206"/>
      <point x="449" y="255"/>
      <point x="452" y="321" type="curve"/>
      <point x="432" y="298"/>
      <point x="402" y="285"/>
      <point x="369" y="285" type="curve" smooth="yes"/>
      <point x="301" y="285"/>
      <point x="244" y="336"/>
      <point x="244" y="416" type="curve" smooth="yes"/>
      <point x="244" y="490"/>
      <point x="293" y="552"/>
    </contour>
    <contour>
      <point x="383" y="344" type="curve" smooth="yes"/>
      <point x="418" y="344"/>
      <point x="448" y="370"/>
      <point x="448" y="418" type="curve" smooth="yes"/>
      <point x="448" y="466"/>
      <point x="418" y="492"/>
      <point x="383" y="492" type="curve" smooth="yes"/>
      <point x="348" y="492"/>
      <point x="318" y="466"/>
      <point x="318" y="418" type="curve" smooth="yes"/>
      <point x="318" y="370"/>
      <point x="348" y="344"/>
    </contour>
    <component base="circleblack" identifier="D5ED370D"/>
  </outline>
</glyph>
<glyph name="R.alt1" format="2">
  <advance width="680"/>
  <outline>
    <contour>
      <point x="97" y="700" type="line"/>
      <point x="97" y="0" type="line"/>
      <point x="188" y="0" type="line"/>
      <point x="188" y="700" type="line"/>
    </contour>
    <contour>
      <point x="406" y="373" type="curve" smooth="yes"/>
      <point x="140" y="373" type="line"/>
      <point x="140" y="293" type="line"/>
      <point x="455" y="293" type="line" smooth="yes"/>
      <point x="486" y="293"/>
      <point x="510" y="260"/>
      <point x="512" y="179" type="curve" smooth="yes"/>
      <point x="514" y="84"/>
      <point x="508" y="34"/>
      <point x="538" y="0" type="curve"/>
      <point x="630" y="0" type="line"/>
      <point x="630" y="11" type="line"/>
      <point x="600" y="35"/>
      <point x="606" y="130"/>
      <point x="600" y="210" type="curve" smooth="yes"/>
      <point x="595" y="276"/>
      <point x="554" y="327"/>
      <point x="482" y="341" type="curve"/>
      <point x="482" y="322" type="line"/>
      <point x="573" y="341"/>
      <point x="625" y="405"/>
      <point x="625" y="496" type="curve" smooth="yes"/>
      <point x="625" y="614"/>
      <point x="539" y="700"/>
      <point x="409" y="700" type="curve" smooth="yes"/>
      <point x="145" y="700" type="line"/>
      <point x="145" y="618" type="line"/>
      <point x="406" y="618" type="line" smooth="yes"/>
      <point x="483" y="618"/>
      <point x="532" y="577"/>
      <point x="532" y="495" type="curve" smooth="yes"/>
      <point x="532" y="415"/>
      <point x="483" y="373"/>
    </contour>
  </outline>
</glyph>
<glyph name="a.alt1" format="2">
  <advance width="550"/>
  <outline>
    <contour>
      <point x="56" y="136" type="curve" smooth="yes"/>
      <point x="56" y="44"/>
      <point x="125" y="-11"/>
      <point x="223" y="-11" type="curve" smooth="yes"/>
      <point x="309" y="-11"/>
      <point x="367" y="29"/>
      <point x="400" y="94" type="curve"/>
      <point x="377" y="93" type="line"/>
      <point x="377" y="55"/>
      <point x="377" y="32"/>
      <point x="382" y="0" type="curve"/>
      <point x="467" y="0" type="line"/>
      <point x="462" y="31"/>
      <point x="460" y="56"/>
      <point x="460" y="89" type="curve" smooth="yes"/>
      <point x="460" y="345" type="line" smooth="yes"/>
      <point x="460" y="445"/>
      <point x="394" y="502"/>
      <point x="273" y="502" type="curve" smooth="yes"/>
      <point x="136" y="502"/>
      <point x="83" y="424"/>
      <point x="78" y="350" type="curve"/>
      <point x="167" y="335" type="line"/>
      <point x="170" y="382"/>
      <point x="186" y="429"/>
      <point x="272" y="429" type="curve" smooth="yes"/>
      <point x="348" y="429"/>
      <point x="374" y="396"/>
      <point x="374" y="341" type="curve" smooth="yes"/>
      <point x="374" y="177" type="line" smooth="yes"/>
      <point x="374" y="114"/>
      <point x="314" y="59"/>
      <point x="234" y="59" type="curve" smooth="yes"/>
      <point x="179" y="59"/>
      <point x="146" y="86"/>
      <point x="146" y="136" type="curve" smooth="yes"/>
      <point x="146" y="186"/>
      <point x="178" y="212"/>
      <point x="239" y="220" type="curve" smooth="yes"/>
      <point x="407" y="241" type="line"/>
      <point x="407" y="306" type="line"/>
      <point x="225" y="284" type="line" smooth="yes"/>
      <point x="125" y="272"/>
      <point x="56" y="226"/>
    </contour>
  </outline>
</glyph>
<glyph name="aogonek.alt1" format="2">
  <advance width="550"/>
  <outline>
    <contour>
      <point x="412" y="-196" type="curve" smooth="yes"/>
      <point x="433" y="-196"/>
      <point x="457" y="-193"/>
      <point x="480" y="-186" type="curve"/>
      <point x="480" y="-125" type="line"/>
      <point x="460" y="-130"/>
      <point x="444" y="-133"/>
      <point x="426" y="-133" type="curve" smooth="yes"/>
      <point x="396" y="-133"/>
      <point x="379" y="-123"/>
      <point x="379" y="-100" type="curve" smooth="yes"/>
      <point x="379" y="-64"/>
      <point x="417" y="-30"/>
      <point x="467" y="0" type="curve"/>
      <point x="384" y="0" type="line"/>
      <point x="344" y="-24"/>
      <point x="304" y="-59"/>
      <point x="304" y="-113" type="curve" smooth="yes"/>
      <point x="304" y="-163"/>
      <point x="337" y="-196"/>
    </contour>
    <contour>
      <point x="377" y="93" type="line"/>
      <point x="377" y="43"/>
      <point x="377" y="19"/>
      <point x="388" y="-33" type="curve"/>
      <point x="467" y="0" type="line"/>
      <point x="462" y="31"/>
      <point x="460" y="56"/>
      <point x="460" y="89" type="curve" smooth="yes"/>
      <point x="460" y="345" type="line" smooth="yes"/>
      <point x="460" y="445"/>
      <point x="394" y="502"/>
      <point x="273" y="502" type="curve" smooth="yes"/>
      <point x="136" y="502"/>
      <point x="83" y="424"/>
      <point x="78" y="350" type="curve"/>
      <point x="167" y="335" type="line"/>
      <point x="170" y="382"/>
      <point x="186" y="429"/>
      <point x="272" y="429" type="curve" smooth="yes"/>
      <point x="348" y="429"/>
      <point x="374" y="396"/>
      <point x="374" y="341" type="curve" smooth="yes"/>
      <point x="374" y="177" type="line" smooth="yes"/>
      <point x="374" y="114"/>
      <point x="314" y="59"/>
      <point x="234" y="59" type="curve" smooth="yes"/>
      <point x="179" y="59"/>
      <point x="146" y="86"/>
      <point x="146" y="136" type="curve" smooth="yes"/>
      <point x="146" y="186"/>
      <point x="178" y="212"/>
      <point x="239" y="220" type="curve" smooth="yes"/>
      <point x="407" y="241" type="line"/>
      <point x="407" y="306" type="line"/>
      <point x="225" y="284" type="line" smooth="yes"/>
      <point x="125" y="272"/>
      <point x="56" y="226"/>
      <point x="56" y="136" type="curve" smooth="yes"/>
      <point x="56" y="44"/>
      <point x="125" y="-11"/>
      <point x="223" y="-11" type="curve" smooth="yes"/>
      <point x="309" y="-11"/>
      <point x="367" y="29"/>
      <point x="400" y="94" type="curve"/>
    </contour>
  </outline>
</glyph>
<glyph name="backslash.uc" format="2">
  <advance width="600"/>
  <outline>
    <contour>
      <point x="144" y="745" type="line"/>
      <point x="557" y="-83" type="line"/>
      <point x="466" y="-83" type="line"/>
      <point x="53" y="745" type="line"/>
    </contour>
  </outline>
</glyph>
<glyph name="braceleft.uc" format="2">
  <advance width="600"/>
  <outline>
    <contour>
      <point x="337" y="187" type="line"/>
      <point x="337" y="266"/>
      <point x="324" y="311"/>
      <point x="261" y="331" type="curve"/>
      <point x="324" y="351"/>
      <point x="337" y="396"/>
      <point x="337" y="475" type="curve" smooth="yes"/>
      <point x="337" y="578" type="line" smooth="yes"/>
      <point x="337" y="645"/>
      <point x="364" y="674"/>
      <point x="439" y="674" type="curve" smooth="yes"/>
      <point x="467" y="674" type="line"/>
      <point x="467" y="745" type="line"/>
      <point x="424" y="745" type="line" smooth="yes"/>
      <point x="308" y="745"/>
      <point x="248" y="679"/>
      <point x="248" y="564" type="curve" smooth="yes"/>
      <point x="248" y="453" type="line" smooth="yes"/>
      <point x="248" y="390"/>
      <point x="220" y="368"/>
      <point x="170" y="368" type="curve" smooth="yes"/>
      <point x="133" y="368" type="line"/>
      <point x="133" y="294" type="line"/>
      <point x="170" y="294" type="line" smooth="yes"/>
      <point x="220" y="294"/>
      <point x="248" y="272"/>
      <point x="248" y="209" type="curve" smooth="yes"/>
      <point x="248" y="98" type="line" smooth="yes"/>
      <point x="248" y="-18"/>
      <point x="270" y="-83"/>
      <point x="424" y="-83" type="curve" smooth="yes"/>
      <point x="467" y="-83" type="line"/>
      <point x="467" y="-11" type="line"/>
      <point x="439" y="-11" type="line" smooth="yes"/>
      <point x="364" y="-11"/>
      <point x="337" y="15"/>
      <point x="337" y="83" type="curve" smooth="yes"/>
    </contour>
  </outline>
</glyph>
<glyph name="braceright.uc" format="2">
  <advance width="600"/>
  <outline>
    <contour>
      <point x="263" y="187" type="line" smooth="yes"/>
      <point x="263" y="266"/>
      <point x="276" y="311"/>
      <point x="339" y="331" type="curve"/>
      <point x="276" y="351"/>
      <point x="263" y="396"/>
      <point x="263" y="475" type="curve" smooth="yes"/>
      <point x="263" y="578" type="line" smooth="yes"/>
      <point x="263" y="645"/>
      <point x="236" y="674"/>
      <point x="161" y="674" type="curve" smooth="yes"/>
      <point x="133" y="674" type="line"/>
      <point x="133" y="745" type="line"/>
      <point x="176" y="745" type="line" smooth="yes"/>
      <point x="292" y="745"/>
      <point x="352" y="679"/>
      <point x="352" y="564" type="curve" smooth="yes"/>
      <point x="352" y="453" type="line" smooth="yes"/>
      <point x="352" y="390"/>
      <point x="380" y="368"/>
      <point x="430" y="368" type="curve" smooth="yes"/>
      <point x="467" y="368" type="line"/>
      <point x="467" y="294" type="line"/>
      <point x="430" y="294" type="line" smooth="yes"/>
      <point x="380" y="294"/>
      <point x="352" y="272"/>
      <point x="352" y="209" type="curve" smooth="yes"/>
      <point x="352" y="98" type="line" smooth="yes"/>
      <point x="352" y="-18"/>
      <point x="330" y="-83"/>
      <point x="176" y="-83" type="curve" smooth="yes"/>
      <point x="133" y="-83" type="line"/>
      <point x="133" y="-11" type="line"/>
      <point x="161" y="-11" type="line" smooth="yes"/>
      <point x="236" y="-11"/>
      <point x="263" y="15"/>
      <point x="263" y="83" type="curve" smooth="yes"/>
    </contour>
  </outline>
</glyph>
<glyph name="brevecmb.uc" format="2">
  <advance width="600"/>
  <outline>
    <contour>
      <point x="163" y="892" type="line"/>
      <point x="163" y="822"/>
      <point x="213" y="761"/>
      <point x="300" y="761" type="curve" smooth="yes"/>
      <point x="387" y="761"/>
      <point x="437" y="822"/>
      <point x="437" y="892" type="curve"/>
      <point x="371" y="892" type="line"/>
      <point x="371" y="854"/>
      <point x="346" y="823"/>
      <point x="300" y="823" type="curve" smooth="yes"/>
      <point x="254" y="823"/>
      <point x="229" y="854"/>
      <point x="229" y="892" type="curve"/>
    </contour>
  </outline>
</glyph>
<glyph name="bullet.medium" format="2">
  <advance width="550"/>
  <outline>
    <contour>
      <point x="275" y="528" type="curve" smooth="yes"/>
      <point x="155" y="528"/>
      <point x="56" y="429"/>
      <point x="56" y="309" type="curve" smooth="yes"/>
      <point x="56" y="189"/>
      <point x="155" y="90"/>
      <point x="275" y="90" type="curve" smooth="yes"/>
      <point x="395" y="90"/>
      <point x="494" y="189"/>
      <point x="494" y="309" type="curve" smooth="yes"/>
      <point x="494" y="429"/>
      <point x="395" y="528"/>
    </contour>
  </outline>
</glyph>
<glyph name="caroncmb.alt" format="2">
  <advance width="600"/>
  <outline>
    <contour>
      <point x="261" y="700" type="line"/>
      <point x="253" y="550" type="line"/>
      <point x="317" y="550" type="line"/>
      <point x="343" y="700" type="line"/>
    </contour>
  </outline>
</glyph>
<glyph name="caroncmb.uc" format="2">
  <advance width="600"/>
  <outline>
    <contour>
      <point x="144" y="892" type="line"/>
      <point x="255" y="771" type="line"/>
      <point x="345" y="771" type="line"/>
      <point x="456" y="892" type="line"/>
      <point x="382" y="892" type="line"/>
      <point x="274" y="808" type="line"/>
      <point x="326" y="808" type="line"/>
      <point x="218" y="892" type="line"/>
    </contour>
  </outline>
</glyph>
<glyph name="caroncmb.ucalt" format="2">
  <advance width="600"/>
  <outline>
    <contour>
      <point x="281" y="700" type="line"/>
      <point x="274" y="472" type="line"/>
      <point x="339" y="472" type="line"/>
      <point x="370" y="700" type="line"/>
    </contour>
  </outline>
</glyph>
<glyph name="eight.den" format="2">
  <advance width="300"/>
  <outline>
    <contour>
      <point x="150" y="203" type="curve" smooth="yes"/>
      <point x="122" y="203"/>
      <point x="102" y="220"/>
      <point x="102" y="243" type="curve" smooth="yes"/>
      <point x="102" y="267"/>
      <point x="122" y="284"/>
      <point x="150" y="284" type="curve" smooth="yes"/>
      <point x="178" y="284"/>
      <point x="198" y="267"/>
      <point x="198" y="243" type="curve" smooth="yes"/>
      <point x="198" y="220"/>
      <point x="178" y="203"/>
    </contour>
    <contour>
      <point x="100" y="173" type="curve"/>
      <point x="100" y="182" type="line"/>
      <point x="57" y="173"/>
      <point x="23" y="145"/>
      <point x="23" y="97" type="curve" smooth="yes"/>
      <point x="23" y="38"/>
      <point x="73" y="-5"/>
      <point x="150" y="-5" type="curve" smooth="yes"/>
      <point x="227" y="-5"/>
      <point x="277" y="38"/>
      <point x="277" y="97" type="curve" smooth="yes"/>
      <point x="277" y="145"/>
      <point x="243" y="173"/>
      <point x="200" y="182" type="curve"/>
      <point x="200" y="173" type="line"/>
      <point x="236" y="180"/>
      <point x="267" y="204"/>
      <point x="267" y="247" type="curve" smooth="yes"/>
      <point x="267" y="298"/>
      <point x="223" y="338"/>
      <point x="150" y="338" type="curve" smooth="yes"/>
      <point x="77" y="338"/>
      <point x="33" y="298"/>
      <point x="33" y="247" type="curve" smooth="yes"/>
      <point x="33" y="204"/>
      <point x="64" y="180"/>
    </contour>
    <contour>
      <point x="150" y="150" type="curve" smooth="yes"/>
      <point x="183" y="150"/>
      <point x="206" y="131"/>
      <point x="206" y="101" type="curve" smooth="yes"/>
      <point x="206" y="70"/>
      <point x="183" y="49"/>
      <point x="150" y="49" type="curve" smooth="yes"/>
      <point x="117" y="49"/>
      <point x="94" y="70"/>
      <point x="94" y="101" type="curve" smooth="yes"/>
      <point x="94" y="131"/>
      <point x="117" y="150"/>
    </contour>
  </outline>
</glyph>
<glyph name="eight.num" format="2">
  <advance width="300"/>
  <outline>
    <contour>
      <point x="150" y="570" type="curve" smooth="yes"/>
      <point x="122" y="570"/>
      <point x="102" y="587"/>
      <point x="102" y="610" type="curve" smooth="yes"/>
      <point x="102" y="634"/>
      <point x="122" y="651"/>
      <point x="150" y="651" type="curve" smooth="yes"/>
      <point x="178" y="651"/>
      <point x="198" y="634"/>
      <point x="198" y="610" type="curve" smooth="yes"/>
      <point x="198" y="587"/>
      <point x="178" y="570"/>
    </contour>
    <contour>
      <point x="100" y="540" type="curve"/>
      <point x="100" y="549" type="line"/>
      <point x="57" y="540"/>
      <point x="23" y="512"/>
      <point x="23" y="464" type="curve" smooth="yes"/>
      <point x="23" y="405"/>
      <point x="73" y="362"/>
      <point x="150" y="362" type="curve" smooth="yes"/>
      <point x="227" y="362"/>
      <point x="277" y="405"/>
      <point x="277" y="464" type="curve" smooth="yes"/>
      <point x="277" y="512"/>
      <point x="243" y="540"/>
      <point x="200" y="549" type="curve"/>
      <point x="200" y="540" type="line"/>
      <point x="236" y="547"/>
      <point x="267" y="571"/>
      <point x="267" y="614" type="curve" smooth="yes"/>
      <point x="267" y="665"/>
      <point x="223" y="705"/>
      <point x="150" y="705" type="curve" smooth="yes"/>
      <point x="77" y="705"/>
      <point x="33" y="665"/>
      <point x="33" y="614" type="curve" smooth="yes"/>
      <point x="33" y="571"/>
      <point x="64" y="547"/>
    </contour>
    <contour>
      <point x="150" y="517" type="curve" smooth="yes"/>
      <point x="183" y="517"/>
      <point x="206" y="498"/>
      <point x="206" y="468" type="curve" smooth="yes"/>
      <point x="206" y="437"/>
      <point x="183" y="416"/>
      <point x="150" y="416" type="curve" smooth="yes"/>
      <point x="117" y="416"/>
      <point x="94" y="437"/>
      <point x="94" y="468" type="curve" smooth="yes"/>
      <point x="94" y="498"/>
      <point x="117" y="517"/>
    </contour>
  </outline>
</glyph>
<glyph name="eight.sub" format="2">
  <advance width="300"/>
  <outline>
    <contour>
      <point x="150" y="160" type="curve" smooth="yes"/>
      <point x="122" y="160"/>
      <point x="102" y="177"/>
      <point x="102" y="200" type="curve" smooth="yes"/>
      <point x="102" y="224"/>
      <point x="122" y="241"/>
      <point x="150" y="241" type="curve" smooth="yes"/>
      <point x="178" y="241"/>
      <point x="198" y="224"/>
      <point x="198" y="200" type="curve" smooth="yes"/>
      <point x="198" y="177"/>
      <point x="178" y="160"/>
    </contour>
    <contour>
      <point x="100" y="130" type="curve"/>
      <point x="100" y="139" type="line"/>
      <point x="57" y="130"/>
      <point x="23" y="102"/>
      <point x="23" y="54" type="curve" smooth="yes"/>
      <point x="23" y="-5"/>
      <point x="73" y="-48"/>
      <point x="150" y="-48" type="curve" smooth="yes"/>
      <point x="227" y="-48"/>
      <point x="277" y="-5"/>
      <point x="277" y="54" type="curve" smooth="yes"/>
      <point x="277" y="102"/>
      <point x="243" y="130"/>
      <point x="200" y="139" type="curve"/>
      <point x="200" y="130" type="line"/>
      <point x="236" y="137"/>
      <point x="267" y="161"/>
      <point x="267" y="204" type="curve" smooth="yes"/>
      <point x="267" y="255"/>
      <point x="223" y="295"/>
      <point x="150" y="295" type="curve" smooth="yes"/>
      <point x="77" y="295"/>
      <point x="33" y="255"/>
      <point x="33" y="204" type="curve" smooth="yes"/>
      <point x="33" y="161"/>
      <point x="64" y="137"/>
    </contour>
    <contour>
      <point x="150" y="107" type="curve" smooth="yes"/>
      <point x="183" y="107"/>
      <point x="206" y="88"/>
      <point x="206" y="58" type="curve" smooth="yes"/>
      <point x="206" y="27"/>
      <point x="183" y="6"/>
      <point x="150" y="6" type="curve" smooth="yes"/>
      <point x="117" y="6"/>
      <point x="94" y="27"/>
      <point x="94" y="58" type="curve" smooth="yes"/>
      <point x="94" y="88"/>
      <point x="117" y="107"/>
    </contour>
  </outline>
</glyph>
<glyph name="eight.sup" format="2">
  <advance width="300"/>
  <outline>
    <contour>
      <point x="150" y="670" type="curve" smooth="yes"/>
      <point x="122" y="670"/>
      <point x="102" y="687"/>
      <point x="102" y="710" type="curve" smooth="yes"/>
      <point x="102" y="734"/>
      <point x="122" y="751"/>
      <point x="150" y="751" type="curve" smooth="yes"/>
      <point x="178" y="751"/>
      <point x="198" y="734"/>
      <point x="198" y="710" type="curve" smooth="yes"/>
      <point x="198" y="687"/>
      <point x="178" y="670"/>
    </contour>
    <contour>
      <point x="100" y="640" type="curve"/>
      <point x="100" y="649" type="line"/>
      <point x="57" y="640"/>
      <point x="23" y="612"/>
      <point x="23" y="564" type="curve" smooth="yes"/>
      <point x="23" y="505"/>
      <point x="73" y="462"/>
      <point x="150" y="462" type="curve" smooth="yes"/>
      <point x="227" y="462"/>
      <point x="277" y="505"/>
      <point x="277" y="564" type="curve" smooth="yes"/>
      <point x="277" y="612"/>
      <point x="243" y="640"/>
      <point x="200" y="649" type="curve"/>
      <point x="200" y="640" type="line"/>
      <point x="236" y="647"/>
      <point x="267" y="671"/>
      <point x="267" y="714" type="curve" smooth="yes"/>
      <point x="267" y="765"/>
      <point x="223" y="805"/>
      <point x="150" y="805" type="curve" smooth="yes"/>
      <point x="77" y="805"/>
      <point x="33" y="765"/>
      <point x="33" y="714" type="curve" smooth="yes"/>
      <point x="33" y="671"/>
      <point x="64" y="647"/>
    </contour>
    <contour>
      <point x="150" y="617" type="curve" smooth="yes"/>
      <point x="183" y="617"/>
      <point x="206" y="598"/>
      <point x="206" y="568" type="curve" smooth="yes"/>
      <point x="206" y="537"/>
      <point x="183" y="516"/>
      <point x="150" y="516" type="curve" smooth="yes"/>
      <point x="117" y="516"/>
      <point x="94" y="537"/>
      <point x="94" y="568" type="curve" smooth="yes"/>
      <point x="94" y="598"/>
      <point x="117" y="617"/>
    </contour>
  </outline>
</glyph>
<glyph name="emdash.uc" format="2">
  <advance width="880"/>
  <outline>
    <contour>
      <point x="57" y="298" type="line"/>
      <point x="823" y="298" type="line"/>
      <point x="823" y="374" type="line"/>
      <point x="57" y="374" type="line"/>
    </contour>
  </outline>
</glyph>
<glyph name="endash.uc" format="2">
  <advance width="680"/>
  <outline>
    <contour>
      <point x="119" y="298" type="line"/>
      <point x="561" y="298" type="line"/>
      <point x="561" y="374" type="line"/>
      <point x="119" y="374" type="line"/>
    </contour>
  </outline>
</glyph>
<glyph name="fhook.tab" format="2">
  <advance width="600"/>
  <outline>
    <contour>
      <point x="169" y="382" type="line"/>
      <point x="492" y="382" type="line"/>
      <point x="492" y="452" type="line"/>
      <point x="169" y="452" type="line"/>
    </contour>
    <contour>
      <point x="277" y="109" type="curve" smooth="yes"/>
      <point x="428" y="582" type="line" smooth="yes"/>
      <point x="441" y="622"/>
      <point x="462" y="640"/>
      <point x="506" y="640" type="curve" smooth="yes"/>
      <point x="517" y="640"/>
      <point x="528" y="639"/>
      <point x="538" y="638" type="curve"/>
      <point x="538" y="708" type="line"/>
      <point x="524" y="711"/>
      <point x="507" y="712"/>
      <point x="494" y="712" type="curve" smooth="yes"/>
      <point x="395" y="712"/>
      <point x="361" y="657"/>
      <point x="340" y="591" type="curve" smooth="yes"/>
      <point x="189" y="118" type="line" smooth="yes"/>
      <point x="176" y="78"/>
      <point x="155" y="60"/>
      <point x="111" y="60" type="curve" smooth="yes"/>
      <point x="100" y="60"/>
      <point x="89" y="61"/>
      <point x="79" y="62" type="curve"/>
      <point x="79" y="-8" type="line"/>
      <point x="93" y="-11"/>
      <point x="110" y="-12"/>
      <point x="123" y="-12" type="curve" smooth="yes"/>
      <point x="222" y="-12"/>
      <point x="256" y="43"/>
    </contour>
  </outline>
</glyph>
<glyph name="five.den" format="2">
  <advance width="300"/>
  <outline>
    <contour>
      <point x="31" y="108" type="line"/>
      <point x="33" y="36"/>
      <point x="82" y="-5"/>
      <point x="156" y="-5" type="curve" smooth="yes"/>
      <point x="232" y="-5"/>
      <point x="277" y="41"/>
      <point x="277" y="113" type="curve" smooth="yes"/>
      <point x="277" y="177"/>
      <point x="241" y="226"/>
      <point x="176" y="226" type="curve" smooth="yes"/>
      <point x="129" y="226"/>
      <point x="100" y="198"/>
      <point x="89" y="168" type="curve"/>
      <point x="111" y="168" type="line"/>
      <point x="123" y="314" type="line"/>
      <point x="88" y="273" type="line"/>
      <point x="266" y="273" type="line"/>
      <point x="266" y="333" type="line"/>
      <point x="60" y="333" type="line"/>
      <point x="44" y="143" type="line"/>
      <point x="111" y="138" type="line"/>
      <point x="119" y="158"/>
      <point x="135" y="171"/>
      <point x="157" y="171" type="curve" smooth="yes"/>
      <point x="186" y="171"/>
      <point x="204" y="147"/>
      <point x="204" y="113" type="curve" smooth="yes"/>
      <point x="204" y="75"/>
      <point x="184" y="51"/>
      <point x="155" y="51" type="curve" smooth="yes"/>
      <point x="127" y="51"/>
      <point x="109" y="72"/>
      <point x="108" y="99" type="curve"/>
    </contour>
  </outline>
</glyph>
<glyph name="five.num" format="2">
  <advance width="300"/>
  <outline>
    <contour>
      <point x="31" y="475" type="line"/>
      <point x="33" y="403"/>
      <point x="82" y="362"/>
      <point x="156" y="362" type="curve" smooth="yes"/>
      <point x="232" y="362"/>
      <point x="277" y="408"/>
      <point x="277" y="480" type="curve" smooth="yes"/>
      <point x="277" y="544"/>
      <point x="241" y="593"/>
      <point x="176" y="593" type="curve" smooth="yes"/>
      <point x="129" y="593"/>
      <point x="100" y="565"/>
      <point x="89" y="535" type="curve"/>
      <point x="111" y="535" type="line"/>
      <point x="123" y="681" type="line"/>
      <point x="88" y="640" type="line"/>
      <point x="266" y="640" type="line"/>
      <point x="266" y="700" type="line"/>
      <point x="60" y="700" type="line"/>
      <point x="44" y="510" type="line"/>
      <point x="111" y="505" type="line"/>
      <point x="119" y="525"/>
      <point x="135" y="538"/>
      <point x="157" y="538" type="curve" smooth="yes"/>
      <point x="186" y="538"/>
      <point x="204" y="514"/>
      <point x="204" y="480" type="curve" smooth="yes"/>
      <point x="204" y="442"/>
      <point x="184" y="418"/>
      <point x="155" y="418" type="curve" smooth="yes"/>
      <point x="127" y="418"/>
      <point x="109" y="439"/>
      <point x="108" y="466" type="curve"/>
    </contour>
  </outline>
</glyph>
<glyph name="five.sub" format="2">
  <advance width="300"/>
  <outline>
    <contour>
      <point x="31" y="65" type="line"/>
      <point x="33" y="-7"/>
      <point x="82" y="-48"/>
      <point x="156" y="-48" type="curve" smooth="yes"/>
      <point x="232" y="-48"/>
      <point x="277" y="-2"/>
      <point x="277" y="70" type="curve" smooth="yes"/>
      <point x="277" y="134"/>
      <point x="241" y="183"/>
      <point x="176" y="183" type="curve" smooth="yes"/>
      <point x="129" y="183"/>
      <point x="100" y="155"/>
      <point x="89" y="125" type="curve"/>
      <point x="111" y="125" type="line"/>
      <point x="123" y="271" type="line"/>
      <point x="88" y="230" type="line"/>
      <point x="266" y="230" type="line"/>
      <point x="266" y="290" type="line"/>
      <point x="60" y="290" type="line"/>
      <point x="44" y="100" type="line"/>
      <point x="111" y="95" type="line"/>
      <point x="119" y="115"/>
      <point x="135" y="128"/>
      <point x="157" y="128" type="curve" smooth="yes"/>
      <point x="186" y="128"/>
      <point x="204" y="104"/>
      <point x="204" y="70" type="curve" smooth="yes"/>
      <point x="204" y="32"/>
      <point x="184" y="8"/>
      <point x="155" y="8" type="curve" smooth="yes"/>
      <point x="127" y="8"/>
      <point x="109" y="29"/>
      <point x="108" y="56" type="curve"/>
    </contour>
  </outline>
</glyph>
<glyph name="five.sup" format="2">
  <advance width="300"/>
  <outline>
    <contour>
      <point x="31" y="575" type="line"/>
      <point x="33" y="503"/>
      <point x="82" y="462"/>
      <point x="156" y="462" type="curve" smooth="yes"/>
      <point x="232" y="462"/>
      <point x="277" y="508"/>
      <point x="277" y="580" type="curve" smooth="yes"/>
      <point x="277" y="644"/>
      <point x="241" y="693"/>
      <point x="176" y="693" type="curve" smooth="yes"/>
      <point x="129" y="693"/>
      <point x="100" y="665"/>
      <point x="89" y="635" type="curve"/>
      <point x="111" y="635" type="line"/>
      <point x="123" y="781" type="line"/>
      <point x="88" y="740" type="line"/>
      <point x="266" y="740" type="line"/>
      <point x="266" y="800" type="line"/>
      <point x="60" y="800" type="line"/>
      <point x="44" y="610" type="line"/>
      <point x="111" y="605" type="line"/>
      <point x="119" y="625"/>
      <point x="135" y="638"/>
      <point x="157" y="638" type="curve" smooth="yes"/>
      <point x="186" y="638"/>
      <point x="204" y="614"/>
      <point x="204" y="580" type="curve" smooth="yes"/>
      <point x="204" y="542"/>
      <point x="184" y="518"/>
      <point x="155" y="518" type="curve" smooth="yes"/>
      <point x="127" y="518"/>
      <point x="109" y="539"/>
      <point x="108" y="566" type="curve"/>
    </contour>
  </outline>
</glyph>
<glyph name="four.den" format="2">
  <advance width="300"/>
  <outline>
    <contour>
      <point x="234" y="334" type="line"/>
      <point x="158" y="334" type="line"/>
      <point x="10" y="136" type="line"/>
      <point x="10" y="76" type="line"/>
      <point x="290" y="76" type="line"/>
      <point x="290" y="133" type="line"/>
      <point x="38" y="133" type="line"/>
      <point x="58" y="106" type="line"/>
      <point x="214" y="315" type="line"/>
      <point x="165" y="315" type="line"/>
      <point x="165" y="1" type="line"/>
      <point x="234" y="1" type="line"/>
    </contour>
  </outline>
</glyph>
<glyph name="four.num" format="2">
  <advance width="300"/>
  <outline>
    <contour>
      <point x="234" y="701" type="line"/>
      <point x="158" y="701" type="line"/>
      <point x="10" y="503" type="line"/>
      <point x="10" y="443" type="line"/>
      <point x="290" y="443" type="line"/>
      <point x="290" y="500" type="line"/>
      <point x="38" y="500" type="line"/>
      <point x="58" y="473" type="line"/>
      <point x="214" y="682" type="line"/>
      <point x="165" y="682" type="line"/>
      <point x="165" y="368" type="line"/>
      <point x="234" y="368" type="line"/>
    </contour>
  </outline>
</glyph>
<glyph name="four.sub" format="2">
  <advance width="300"/>
  <outline>
    <contour>
      <point x="234" y="291" type="line"/>
      <point x="158" y="291" type="line"/>
      <point x="10" y="93" type="line"/>
      <point x="10" y="33" type="line"/>
      <point x="290" y="33" type="line"/>
      <point x="290" y="90" type="line"/>
      <point x="38" y="90" type="line"/>
      <point x="58" y="63" type="line"/>
      <point x="214" y="272" type="line"/>
      <point x="165" y="272" type="line"/>
      <point x="165" y="-42" type="line"/>
      <point x="234" y="-42" type="line"/>
    </contour>
  </outline>
</glyph>
<glyph name="four.sup" format="2">
  <advance width="300"/>
  <outline>
    <contour>
      <point x="234" y="801" type="line"/>
      <point x="158" y="801" type="line"/>
      <point x="10" y="603" type="line"/>
      <point x="10" y="543" type="line"/>
      <point x="290" y="543" type="line"/>
      <point x="290" y="600" type="line"/>
      <point x="38" y="600" type="line"/>
      <point x="58" y="573" type="line"/>
      <point x="214" y="782" type="line"/>
      <point x="165" y="782" type="line"/>
      <point x="165" y="468" type="line"/>
      <point x="234" y="468" type="line"/>
    </contour>
  </outline>
</glyph>
<glyph name="gravecmb.uc" format="2">
  <advance width="600"/>
  <outline>
    <contour>
      <point x="293" y="892" type="line"/>
      <point x="368" y="771" type="line"/>
      <point x="300" y="771" type="line"/>
      <point x="202" y="892" type="line"/>
    </contour>
  </outline>
</glyph>
<glyph name="guillemetright.uc" format="2">
  <advance width="500"/>
  <outline>
    <contour>
      <point x="227" y="530" type="line"/>
      <point x="323" y="530" type="line"/>
      <point x="463" y="356" type="line"/>
      <point x="463" y="314" type="line"/>
      <point x="323" y="140" type="line"/>
      <point x="227" y="140" type="line"/>
      <point x="404" y="360" type="line"/>
      <point x="404" y="310" type="line"/>
    </contour>
    <contour>
      <point x="36" y="530" type="line"/>
      <point x="132" y="530" type="line"/>
      <point x="272" y="356" type="line"/>
      <point x="272" y="314" type="line"/>
      <point x="132" y="140" type="line"/>
      <point x="36" y="140" type="line"/>
      <point x="213" y="360" type="line"/>
      <point x="213" y="310" type="line"/>
    </contour>
  </outline>
</glyph>
<glyph name="guilsinglright.uc" format="2">
  <advance width="300"/>
  <outline>
    <contour>
      <point x="32" y="530" type="line"/>
      <point x="128" y="530" type="line"/>
      <point x="268" y="356" type="line"/>
      <point x="268" y="314" type="line"/>
      <point x="128" y="140" type="line"/>
      <point x="32" y="140" type="line"/>
      <point x="209" y="360" type="line"/>
      <point x="209" y="310" type="line"/>
    </contour>
  </outline>
</glyph>
<glyph name="horncmb.uc" format="2">
  <advance width="600"/>
  <outline>
    <contour>
      <point x="320" y="791" type="line"/>
      <point x="325" y="774"/>
      <point x="327" y="755"/>
      <point x="327" y="740" type="curve" smooth="yes"/>
      <point x="327" y="707"/>
      <point x="309" y="700"/>
      <point x="272" y="700" type="curve" smooth="yes"/>
      <point x="187" y="700" type="line"/>
      <point x="187" y="638" type="line"/>
      <point x="282" y="638" type="line" smooth="yes"/>
      <point x="359" y="638"/>
      <point x="397" y="671"/>
      <point x="397" y="730" type="curve" smooth="yes"/>
      <point x="397" y="751"/>
      <point x="394" y="776"/>
      <point x="389" y="791" type="curve"/>
    </contour>
  </outline>
</glyph>
<glyph name="nine.den" format="2">
  <advance width="300"/>
  <outline>
    <contour>
      <point x="150" y="338" type="curve" smooth="yes"/>
      <point x="70" y="338"/>
      <point x="28" y="286"/>
      <point x="28" y="221" type="curve" smooth="yes"/>
      <point x="28" y="153"/>
      <point x="75" y="112"/>
      <point x="133" y="112" type="curve" smooth="yes"/>
      <point x="181" y="112"/>
      <point x="216" y="139"/>
      <point x="224" y="189" type="curve"/>
      <point x="204" y="189" type="line"/>
      <point x="204" y="158" type="line" smooth="yes"/>
      <point x="204" y="98"/>
      <point x="190" y="50"/>
      <point x="148" y="50" type="curve" smooth="yes"/>
      <point x="124" y="50"/>
      <point x="109" y="64"/>
      <point x="106" y="90" type="curve"/>
      <point x="29" y="101" type="line"/>
      <point x="32" y="36"/>
      <point x="75" y="-5"/>
      <point x="146" y="-5" type="curve" smooth="yes"/>
      <point x="236" y="-5"/>
      <point x="276" y="56"/>
      <point x="276" y="173" type="curve" smooth="yes"/>
      <point x="276" y="228"/>
      <point x="269" y="260"/>
      <point x="251" y="289" type="curve" smooth="yes"/>
      <point x="230" y="320"/>
      <point x="194" y="338"/>
    </contour>
    <contour>
      <point x="150" y="166" type="curve" smooth="yes"/>
      <point x="122" y="166"/>
      <point x="100" y="187"/>
      <point x="100" y="224" type="curve" smooth="yes"/>
      <point x="100" y="261"/>
      <point x="122" y="282"/>
      <point x="150" y="282" type="curve" smooth="yes"/>
      <point x="178" y="282"/>
      <point x="200" y="261"/>
      <point x="200" y="224" type="curve" smooth="yes"/>
      <point x="200" y="187"/>
      <point x="178" y="166"/>
    </contour>
  </outline>
</glyph>
<glyph name="nine.num" format="2">
  <advance width="300"/>
  <outline>
    <contour>
      <point x="152" y="705" type="curve" smooth="yes"/>
      <point x="72" y="705"/>
      <point x="30" y="653"/>
      <point x="30" y="588" type="curve" smooth="yes"/>
      <point x="30" y="520"/>
      <point x="77" y="479"/>
      <point x="135" y="479" type="curve" smooth="yes"/>
      <point x="183" y="479"/>
      <point x="218" y="506"/>
      <point x="226" y="556" type="curve"/>
      <point x="206" y="556" type="line"/>
      <point x="206" y="525" type="line" smooth="yes"/>
      <point x="206" y="465"/>
      <point x="192" y="417"/>
      <point x="150" y="417" type="curve" smooth="yes"/>
      <point x="126" y="417"/>
      <point x="111" y="431"/>
      <point x="108" y="457" type="curve"/>
      <point x="31" y="468" type="line"/>
      <point x="34" y="403"/>
      <point x="77" y="362"/>
      <point x="148" y="362" type="curve" smooth="yes"/>
      <point x="238" y="362"/>
      <point x="278" y="423"/>
      <point x="278" y="540" type="curve" smooth="yes"/>
      <point x="278" y="595"/>
      <point x="271" y="627"/>
      <point x="253" y="656" type="curve" smooth="yes"/>
      <point x="232" y="687"/>
      <point x="196" y="705"/>
    </contour>
    <contour>
      <point x="152" y="533" type="curve" smooth="yes"/>
      <point x="124" y="533"/>
      <point x="102" y="554"/>
      <point x="102" y="591" type="curve" smooth="yes"/>
      <point x="102" y="628"/>
      <point x="124" y="649"/>
      <point x="152" y="649" type="curve" smooth="yes"/>
      <point x="180" y="649"/>
      <point x="202" y="628"/>
      <point x="202" y="591" type="curve" smooth="yes"/>
      <point x="202" y="554"/>
      <point x="180" y="533"/>
    </contour>
  </outline>
</glyph>
<glyph name="nine.sub" format="2">
  <advance width="300"/>
  <outline>
    <contour>
      <point x="152" y="295" type="curve" smooth="yes"/>
      <point x="72" y="295"/>
      <point x="30" y="243"/>
      <point x="30" y="178" type="curve" smooth="yes"/>
      <point x="30" y="110"/>
      <point x="77" y="69"/>
      <point x="135" y="69" type="curve" smooth="yes"/>
      <point x="183" y="69"/>
      <point x="218" y="96"/>
      <point x="226" y="146" type="curve"/>
      <point x="206" y="146" type="line"/>
      <point x="206" y="115" type="line" smooth="yes"/>
      <point x="206" y="55"/>
      <point x="192" y="7"/>
      <point x="150" y="7" type="curve" smooth="yes"/>
      <point x="126" y="7"/>
      <point x="111" y="21"/>
      <point x="108" y="47" type="curve"/>
      <point x="31" y="58" type="line"/>
      <point x="34" y="-7"/>
      <point x="77" y="-48"/>
      <point x="148" y="-48" type="curve" smooth="yes"/>
      <point x="238" y="-48"/>
      <point x="278" y="13"/>
      <point x="278" y="130" type="curve" smooth="yes"/>
      <point x="278" y="185"/>
      <point x="271" y="217"/>
      <point x="253" y="246" type="curve" smooth="yes"/>
      <point x="232" y="277"/>
      <point x="196" y="295"/>
    </contour>
    <contour>
      <point x="152" y="123" type="curve" smooth="yes"/>
      <point x="124" y="123"/>
      <point x="102" y="144"/>
      <point x="102" y="181" type="curve" smooth="yes"/>
      <point x="102" y="218"/>
      <point x="124" y="239"/>
      <point x="152" y="239" type="curve" smooth="yes"/>
      <point x="180" y="239"/>
      <point x="202" y="218"/>
      <point x="202" y="181" type="curve" smooth="yes"/>
      <point x="202" y="144"/>
      <point x="180" y="123"/>
    </contour>
  </outline>
</glyph>
<glyph name="nine.sup" format="2">
  <advance width="300"/>
  <outline>
    <contour>
      <point x="152" y="805" type="curve" smooth="yes"/>
      <point x="72" y="805"/>
      <point x="30" y="753"/>
      <point x="30" y="688" type="curve" smooth="yes"/>
      <point x="30" y="620"/>
      <point x="77" y="579"/>
      <point x="135" y="579" type="curve" smooth="yes"/>
      <point x="183" y="579"/>
      <point x="218" y="606"/>
      <point x="226" y="656" type="curve"/>
      <point x="206" y="656" type="line"/>
      <point x="206" y="625" type="line" smooth="yes"/>
      <point x="206" y="565"/>
      <point x="192" y="517"/>
      <point x="150" y="517" type="curve" smooth="yes"/>
      <point x="126" y="517"/>
      <point x="111" y="531"/>
      <point x="108" y="557" type="curve"/>
      <point x="31" y="568" type="line"/>
      <point x="34" y="503"/>
      <point x="77" y="462"/>
      <point x="148" y="462" type="curve" smooth="yes"/>
      <point x="238" y="462"/>
      <point x="278" y="523"/>
      <point x="278" y="640" type="curve" smooth="yes"/>
      <point x="278" y="695"/>
      <point x="271" y="727"/>
      <point x="253" y="756" type="curve" smooth="yes"/>
      <point x="232" y="787"/>
      <point x="196" y="805"/>
    </contour>
    <contour>
      <point x="152" y="633" type="curve" smooth="yes"/>
      <point x="124" y="633"/>
      <point x="102" y="654"/>
      <point x="102" y="691" type="curve" smooth="yes"/>
      <point x="102" y="728"/>
      <point x="124" y="749"/>
      <point x="152" y="749" type="curve" smooth="yes"/>
      <point x="180" y="749"/>
      <point x="202" y="728"/>
      <point x="202" y="691" type="curve" smooth="yes"/>
      <point x="202" y="654"/>
      <point x="180" y="633"/>
    </contour>
  </outline>
</glyph>
<glyph name="one.den" format="2">
  <advance width="300"/>
  <outline>
    <contour>
      <point x="137" y="333" type="line"/>
      <point x="137" y="275"/>
      <point x="121" y="257"/>
      <point x="46" y="257" type="curve"/>
      <point x="46" y="204" type="line"/>
      <point x="172" y="204" type="line"/>
      <point x="130" y="249" type="line"/>
      <point x="130" y="0" type="line"/>
      <point x="202" y="0" type="line"/>
      <point x="202" y="333" type="line"/>
    </contour>
  </outline>
</glyph>
<glyph name="one.num" format="2">
  <advance width="300"/>
  <outline>
    <contour>
      <point x="137" y="700" type="line"/>
      <point x="137" y="642"/>
      <point x="121" y="624"/>
      <point x="46" y="624" type="curve"/>
      <point x="46" y="571" type="line"/>
      <point x="172" y="571" type="line"/>
      <point x="130" y="616" type="line"/>
      <point x="130" y="367" type="line"/>
      <point x="202" y="367" type="line"/>
      <point x="202" y="700" type="line"/>
    </contour>
  </outline>
</glyph>
<glyph name="one.sub" format="2">
  <advance width="300"/>
  <outline>
    <contour>
      <point x="137" y="290" type="line"/>
      <point x="137" y="232"/>
      <point x="121" y="214"/>
      <point x="46" y="214" type="curve"/>
      <point x="46" y="161" type="line"/>
      <point x="172" y="161" type="line"/>
      <point x="130" y="206" type="line"/>
      <point x="130" y="-43" type="line"/>
      <point x="202" y="-43" type="line"/>
      <point x="202" y="290" type="line"/>
    </contour>
  </outline>
</glyph>
<glyph name="one.sup" format="2">
  <advance width="300"/>
  <outline>
    <contour>
      <point x="137" y="800" type="line"/>
      <point x="137" y="742"/>
      <point x="121" y="724"/>
      <point x="46" y="724" type="curve"/>
      <point x="46" y="671" type="line"/>
      <point x="172" y="671" type="line"/>
      <point x="130" y="716" type="line"/>
      <point x="130" y="467" type="line"/>
      <point x="202" y="467" type="line"/>
      <point x="202" y="800" type="line"/>
    </contour>
  </outline>
</glyph>
<glyph name="one.tab" format="2">
  <advance width="600"/>
  <outline>
    <contour>
      <point x="293" y="700" type="line"/>
      <point x="293" y="591"/>
      <point x="261" y="555"/>
      <point x="87" y="555" type="curve"/>
      <point x="87" y="490" type="line"/>
      <point x="339" y="490" type="line"/>
      <point x="282" y="540" type="line"/>
      <point x="282" y="0" type="line"/>
      <point x="372" y="0" type="line"/>
      <point x="372" y="700" type="line"/>
    </contour>
    <contour>
      <point x="87" y="0" type="line"/>
      <point x="542" y="0" type="line"/>
      <point x="542" y="75" type="line"/>
      <point x="87" y="75" type="line"/>
    </contour>
  </outline>
</glyph>
<glyph name="plus.sub" format="2">
  <advance width="450"/>
  <outline>
    <contour>
      <point x="98" y="96" type="line"/>
      <point x="352" y="96" type="line"/>
      <point x="352" y="152" type="line"/>
      <point x="98" y="152" type="line"/>
    </contour>
    <contour>
      <point x="195" y="258" type="line"/>
      <point x="195" y="-10" type="line"/>
      <point x="255" y="-10" type="line"/>
      <point x="255" y="258" type="line"/>
    </contour>
  </outline>
</glyph>
<glyph name="plusminus.tab" format="2">
  <advance width="600"/>
  <outline>
    <contour>
      <point x="528" y="347" type="line"/>
      <point x="528" y="423" type="line"/>
      <point x="72" y="423" type="line"/>
      <point x="72" y="347" type="line"/>
    </contour>
    <contour>
      <point x="339" y="613" type="line"/>
      <point x="261" y="613" type="line"/>
      <point x="261" y="157" type="line"/>
      <point x="339" y="157" type="line"/>
    </contour>
    <contour>
      <point x="528" y="0" type="line"/>
      <point x="528" y="76" type="line"/>
      <point x="72" y="76" type="line"/>
      <point x="72" y="0" type="line"/>
    </contour>
  </outline>
</glyph>
<glyph name="seven.den" format="2">
  <advance width="300"/>
  <outline>
    <contour>
      <point x="41" y="333" type="line"/>
      <point x="41" y="207" type="line"/>
      <point x="109" y="207" type="line"/>
      <point x="109" y="303" type="line"/>
      <point x="84" y="273" type="line"/>
      <point x="256" y="273" type="line"/>
      <point x="235" y="311" type="line"/>
      <point x="171" y="214"/>
      <point x="106" y="113"/>
      <point x="101" y="0" type="curve"/>
      <point x="178" y="0" type="line"/>
      <point x="185" y="111"/>
      <point x="237" y="202"/>
      <point x="291" y="294" type="curve"/>
      <point x="291" y="333" type="line"/>
    </contour>
  </outline>
</glyph>
<glyph name="seven.num" format="2">
  <advance width="300"/>
  <outline>
    <contour>
      <point x="41" y="700" type="line"/>
      <point x="41" y="574" type="line"/>
      <point x="109" y="574" type="line"/>
      <point x="109" y="670" type="line"/>
      <point x="84" y="640" type="line"/>
      <point x="256" y="640" type="line"/>
      <point x="235" y="678" type="line"/>
      <point x="171" y="581"/>
      <point x="106" y="480"/>
      <point x="101" y="367" type="curve"/>
      <point x="178" y="367" type="line"/>
      <point x="185" y="478"/>
      <point x="237" y="569"/>
      <point x="291" y="661" type="curve"/>
      <point x="291" y="700" type="line"/>
    </contour>
  </outline>
</glyph>
<glyph name="seven.sub" format="2">
  <advance width="300"/>
  <outline>
    <contour>
      <point x="41" y="290" type="line"/>
      <point x="41" y="164" type="line"/>
      <point x="109" y="164" type="line"/>
      <point x="109" y="260" type="line"/>
      <point x="84" y="230" type="line"/>
      <point x="256" y="230" type="line"/>
      <point x="235" y="268" type="line"/>
      <point x="171" y="171"/>
      <point x="106" y="70"/>
      <point x="101" y="-43" type="curve"/>
      <point x="178" y="-43" type="line"/>
      <point x="185" y="68"/>
      <point x="237" y="159"/>
      <point x="291" y="251" type="curve"/>
      <point x="291" y="290" type="line"/>
    </contour>
  </outline>
</glyph>
<glyph name="seven.sup" format="2">
  <advance width="300"/>
  <outline>
    <contour>
      <point x="41" y="800" type="line"/>
      <point x="41" y="674" type="line"/>
      <point x="109" y="674" type="line"/>
      <point x="109" y="770" type="line"/>
      <point x="84" y="740" type="line"/>
      <point x="256" y="740" type="line"/>
      <point x="235" y="778" type="line"/>
      <point x="171" y="681"/>
      <point x="106" y="580"/>
      <point x="101" y="467" type="curve"/>
      <point x="178" y="467" type="line"/>
      <point x="185" y="578"/>
      <point x="237" y="669"/>
      <point x="291" y="761" type="curve"/>
      <point x="291" y="800" type="line"/>
    </contour>
  </outline>
</glyph>
<glyph name="six.den" format="2">
  <advance width="300"/>
  <outline>
    <contour>
      <point x="146" y="-5" type="curve" smooth="yes"/>
      <point x="226" y="-5"/>
      <point x="268" y="49"/>
      <point x="268" y="111" type="curve" smooth="yes"/>
      <point x="268" y="179"/>
      <point x="224" y="222"/>
      <point x="166" y="222" type="curve" smooth="yes"/>
      <point x="118" y="222"/>
      <point x="82" y="193"/>
      <point x="72" y="145" type="curve"/>
      <point x="93" y="145" type="line"/>
      <point x="93" y="174" type="line" smooth="yes"/>
      <point x="93" y="243"/>
      <point x="124" y="279"/>
      <point x="157" y="279" type="curve" smooth="yes"/>
      <point x="178" y="279"/>
      <point x="192" y="266"/>
      <point x="192" y="245" type="curve"/>
      <point x="263" y="237" type="line"/>
      <point x="261" y="296"/>
      <point x="225" y="338"/>
      <point x="158" y="338" type="curve" smooth="yes"/>
      <point x="75" y="338"/>
      <point x="20" y="267"/>
      <point x="20" y="157" type="curve" smooth="yes"/>
      <point x="20" y="106"/>
      <point x="28" y="71"/>
      <point x="46" y="44" type="curve" smooth="yes"/>
      <point x="68" y="12"/>
      <point x="101" y="-5"/>
    </contour>
    <contour>
      <point x="146" y="50" type="curve" smooth="yes"/>
      <point x="115" y="50"/>
      <point x="96" y="76"/>
      <point x="96" y="109" type="curve" smooth="yes"/>
      <point x="96" y="142"/>
      <point x="115" y="168"/>
      <point x="146" y="168" type="curve" smooth="yes"/>
      <point x="178" y="168"/>
      <point x="196" y="142"/>
      <point x="196" y="109" type="curve" smooth="yes"/>
      <point x="196" y="76"/>
      <point x="178" y="50"/>
    </contour>
  </outline>
</glyph>
<glyph name="six.num" format="2">
  <advance width="300"/>
  <outline>
    <contour>
      <point x="146" y="362" type="curve" smooth="yes"/>
      <point x="226" y="362"/>
      <point x="268" y="416"/>
      <point x="268" y="478" type="curve" smooth="yes"/>
      <point x="268" y="546"/>
      <point x="224" y="589"/>
      <point x="166" y="589" type="curve" smooth="yes"/>
      <point x="118" y="589"/>
      <point x="82" y="560"/>
      <point x="72" y="512" type="curve"/>
      <point x="93" y="512" type="line"/>
      <point x="93" y="541" type="line" smooth="yes"/>
      <point x="93" y="610"/>
      <point x="124" y="646"/>
      <point x="157" y="646" type="curve" smooth="yes"/>
      <point x="178" y="646"/>
      <point x="192" y="633"/>
      <point x="192" y="612" type="curve"/>
      <point x="263" y="604" type="line"/>
      <point x="261" y="663"/>
      <point x="225" y="705"/>
      <point x="158" y="705" type="curve" smooth="yes"/>
      <point x="75" y="705"/>
      <point x="20" y="634"/>
      <point x="20" y="524" type="curve" smooth="yes"/>
      <point x="20" y="473"/>
      <point x="28" y="438"/>
      <point x="46" y="411" type="curve" smooth="yes"/>
      <point x="68" y="379"/>
      <point x="101" y="362"/>
    </contour>
    <contour>
      <point x="146" y="417" type="curve" smooth="yes"/>
      <point x="115" y="417"/>
      <point x="96" y="443"/>
      <point x="96" y="476" type="curve" smooth="yes"/>
      <point x="96" y="509"/>
      <point x="115" y="535"/>
      <point x="146" y="535" type="curve" smooth="yes"/>
      <point x="178" y="535"/>
      <point x="196" y="509"/>
      <point x="196" y="476" type="curve" smooth="yes"/>
      <point x="196" y="443"/>
      <point x="178" y="417"/>
    </contour>
  </outline>
</glyph>
<glyph name="six.sub" format="2">
  <advance width="300"/>
  <outline>
    <contour>
      <point x="146" y="-48" type="curve" smooth="yes"/>
      <point x="226" y="-48"/>
      <point x="268" y="6"/>
      <point x="268" y="68" type="curve" smooth="yes"/>
      <point x="268" y="136"/>
      <point x="224" y="179"/>
      <point x="166" y="179" type="curve" smooth="yes"/>
      <point x="118" y="179"/>
      <point x="82" y="150"/>
      <point x="72" y="102" type="curve"/>
      <point x="93" y="102" type="line"/>
      <point x="93" y="131" type="line" smooth="yes"/>
      <point x="93" y="200"/>
      <point x="124" y="236"/>
      <point x="157" y="236" type="curve" smooth="yes"/>
      <point x="178" y="236"/>
      <point x="192" y="223"/>
      <point x="192" y="202" type="curve"/>
      <point x="263" y="194" type="line"/>
      <point x="261" y="253"/>
      <point x="225" y="295"/>
      <point x="158" y="295" type="curve" smooth="yes"/>
      <point x="75" y="295"/>
      <point x="20" y="224"/>
      <point x="20" y="114" type="curve" smooth="yes"/>
      <point x="20" y="63"/>
      <point x="28" y="28"/>
      <point x="46" y="1" type="curve" smooth="yes"/>
      <point x="68" y="-31"/>
      <point x="101" y="-48"/>
    </contour>
    <contour>
      <point x="146" y="7" type="curve" smooth="yes"/>
      <point x="115" y="7"/>
      <point x="96" y="33"/>
      <point x="96" y="66" type="curve" smooth="yes"/>
      <point x="96" y="99"/>
      <point x="115" y="125"/>
      <point x="146" y="125" type="curve" smooth="yes"/>
      <point x="178" y="125"/>
      <point x="196" y="99"/>
      <point x="196" y="66" type="curve" smooth="yes"/>
      <point x="196" y="33"/>
      <point x="178" y="7"/>
    </contour>
  </outline>
</glyph>
<glyph name="six.sup" format="2">
  <advance width="300"/>
  <outline>
    <contour>
      <point x="146" y="462" type="curve" smooth="yes"/>
      <point x="226" y="462"/>
      <point x="268" y="516"/>
      <point x="268" y="578" type="curve" smooth="yes"/>
      <point x="268" y="646"/>
      <point x="224" y="689"/>
      <point x="166" y="689" type="curve" smooth="yes"/>
      <point x="118" y="689"/>
      <point x="82" y="660"/>
      <point x="72" y="612" type="curve"/>
      <point x="93" y="612" type="line"/>
      <point x="93" y="641" type="line" smooth="yes"/>
      <point x="93" y="710"/>
      <point x="124" y="746"/>
      <point x="157" y="746" type="curve" smooth="yes"/>
      <point x="178" y="746"/>
      <point x="192" y="733"/>
      <point x="192" y="712" type="curve"/>
      <point x="263" y="704" type="line"/>
      <point x="261" y="763"/>
      <point x="225" y="805"/>
      <point x="158" y="805" type="curve" smooth="yes"/>
      <point x="75" y="805"/>
      <point x="20" y="734"/>
      <point x="20" y="624" type="curve" smooth="yes"/>
      <point x="20" y="573"/>
      <point x="28" y="538"/>
      <point x="46" y="511" type="curve" smooth="yes"/>
      <point x="68" y="479"/>
      <point x="101" y="462"/>
    </contour>
    <contour>
      <point x="146" y="517" type="curve" smooth="yes"/>
      <point x="115" y="517"/>
      <point x="96" y="543"/>
      <point x="96" y="576" type="curve" smooth="yes"/>
      <point x="96" y="609"/>
      <point x="115" y="635"/>
      <point x="146" y="635" type="curve" smooth="yes"/>
      <point x="178" y="635"/>
      <point x="196" y="609"/>
      <point x="196" y="576" type="curve" smooth="yes"/>
      <point x="196" y="543"/>
      <point x="178" y="517"/>
    </contour>
  </outline>
</glyph>
<glyph name="slash.uc" format="2">
  <advance width="600"/>
  <outline>
    <contour>
      <point x="456" y="745" type="line"/>
      <point x="43" y="-83" type="line"/>
      <point x="134" y="-83" type="line"/>
      <point x="547" y="745" type="line"/>
    </contour>
  </outline>
</glyph>
<glyph name="sterling.tab" format="2">
  <advance width="600"/>
  <outline>
    <contour>
      <point x="54" y="77" type="line"/>
      <point x="54" y="0" type="line"/>
      <point x="542" y="0" type="line"/>
      <point x="542" y="77" type="line"/>
      <point x="205" y="77" type="line"/>
      <point x="254" y="109"/>
      <point x="277" y="156"/>
      <point x="277" y="206" type="curve" smooth="yes"/>
      <point x="277" y="305"/>
      <point x="189" y="383"/>
      <point x="189" y="488" type="curve" smooth="yes"/>
      <point x="189" y="559"/>
      <point x="225" y="634"/>
      <point x="322" y="634" type="curve" smooth="yes"/>
      <point x="401" y="634"/>
      <point x="446" y="579"/>
      <point x="446" y="518" type="curve" smooth="yes"/>
      <point x="446" y="501"/>
      <point x="442" y="488"/>
      <point x="438" y="477" type="curve"/>
      <point x="519" y="470" type="line"/>
      <point x="526" y="485"/>
      <point x="530" y="505"/>
      <point x="530" y="526" type="curve" smooth="yes"/>
      <point x="530" y="628"/>
      <point x="448" y="712"/>
      <point x="322" y="712" type="curve" smooth="yes"/>
      <point x="168" y="712"/>
      <point x="100" y="595"/>
      <point x="100" y="488" type="curve" smooth="yes"/>
      <point x="100" y="364"/>
      <point x="187" y="290"/>
      <point x="187" y="201" type="curve" smooth="yes"/>
      <point x="187" y="132"/>
      <point x="140" y="77"/>
      <point x="67" y="77" type="curve" smooth="yes"/>
    </contour>
    <contour>
      <point x="66" y="336" type="line"/>
      <point x="66" y="266" type="line"/>
      <point x="427" y="266" type="line"/>
      <point x="427" y="336" type="line"/>
    </contour>
  </outline>
</glyph>
